<?xml version="1.0" standalone="no"?>
<!DOCTYPE svg PUBLIC "-//W3C//DTD SVG 20010904//EN"
 "http://www.w3.org/TR/2001/REC-SVG-20010904/DTD/svg10.dtd">
<svg version="1.0" xmlns="http://www.w3.org/2000/svg"
 width="310.000000pt" height="310.000000pt" viewBox="0 0 310.000000 310.000000"
 preserveAspectRatio="xMidYMid meet">
<metadata>
Created by potrace 1.11, written by Peter Selinger 2001-2013
</metadata>
<g transform="translate(0.000000,310.000000) scale(0.100000,-0.100000)"
fill="#000000" stroke="none">
<path d="M1529 2825 c-4 -3 -67 -8 -140 -10 -74 -2 -169 -11 -213 -20 -185
-38 -367 -128 -531 -260 -54 -44 -83 -70 -176 -158 -50 -47 -109 -142 -135
-219 -89 -262 -136 -591 -110 -783 13 -99 15 -111 36 -180 49 -159 152 -288
277 -345 80 -36 166 -81 173 -90 3 -3 28 -22 55 -42 71 -53 88 -74 127 -158
58 -127 126 -186 243 -213 53 -12 163 -14 205 -4 8 2 31 7 50 11 58 13 148 66
191 113 74 80 109 188 109 334 0 91 -40 186 -121 290 l-28 35 77 28 c119 44
288 134 312 166 10 13 69 40 89 40 29 0 73 -42 100 -95 25 -50 91 -239 91
-260 0 -25 53 -170 68 -187 31 -37 70 -15 91 49 17 53 44 57 69 12 33 -60 49
-75 68 -63 10 6 24 29 32 52 18 55 40 54 74 -3 32 -52 51 -56 90 -18 l28 27
29 -28 c32 -31 63 -29 81 3 13 25 6 51 -30 128 -31 68 -41 122 -41 236 l0 67
-27 -6 c-15 -3 -40 -10 -56 -15 -15 -5 -32 -7 -36 -4 -12 7 -1 113 20 199 29
115 26 132 -30 241 -64 126 -87 191 -84 240 1 22 4 75 7 118 4 68 2 83 -19
126 -14 27 -47 74 -74 105 -27 31 -62 73 -77 94 -15 20 -34 43 -40 50 -7 7
-13 18 -13 23 0 22 -151 160 -230 211 -129 83 -213 120 -337 147 -80 17 -233
27 -244 16z m799 -958 c94 -87 107 -311 24 -407 -31 -37 -39 -41 -65 -36 -41
8 -56 23 -80 76 -29 64 -31 277 -3 330 40 76 72 86 124 37z m-845 -892 c41
-82 67 -165 67 -211 0 -45 -32 -115 -74 -161 -45 -50 -113 -84 -184 -90 -150
-14 -262 106 -256 274 2 37 5 75 7 83 2 8 7 32 12 53 4 20 11 37 15 37 13 0
30 -50 37 -108 9 -81 27 -118 73 -148 29 -19 52 -26 85 -26 47 1 119 32 128
54 12 34 -7 95 -62 203 -60 116 -60 117 -33 110 43 -12 64 -8 91 20 l26 25 17
-22 c9 -13 32 -54 51 -93z"/>
<path d="M1840 1130 c-25 -11 -55 -32 -66 -46 -21 -26 -21 -26 -3 -75 40 -104
56 -182 48 -234 -16 -99 -22 -151 -24 -204 -6 -148 82 -292 208 -339 46 -18
73 -21 149 -18 51 2 125 9 164 15 88 15 205 17 304 7 141 -15 227 -9 250 19
17 21 14 87 -7 165 -19 69 -20 88 -8 190 4 36 9 86 10 113 l3 47 -39 0 c-51 0
-85 -23 -99 -65 -14 -42 -28 -37 -59 20 -24 45 -46 56 -69 33 -7 -7 -12 -20
-12 -29 0 -10 -11 -31 -25 -46 l-24 -28 -2 25 c-5 82 -10 90 -55 90 -31 0 -37
-4 -50 -35 -19 -46 -37 -52 -90 -33 -40 14 -46 14 -82 -2 -43 -20 -82 -67 -82
-100 0 -13 19 -40 46 -67 26 -24 42 -48 38 -53 -5 -4 -35 -17 -67 -29 -54 -20
-58 -20 -63 -3 -3 9 -23 53 -44 97 -71 151 -73 160 -74 371 -1 174 -3 194 -20
213 -25 28 -95 28 -156 1z"/>
</g>
</svg>
