<svg height="108pt" viewBox="0 0 481.91998 108" width="481.91998pt" xmlns="http://www.w3.org/2000/svg" xmlns:xlink="http://www.w3.org/1999/xlink"><defs><clipPath id="a"><path d="m0 0h481.921875v107.945313h-481.921875zm0 0"/></clipPath><clipPath id="b"><path d="m266 86h100v21.195313h-100zm0 0"/></clipPath><clipPath id="c"><path d="m390 0h91.921875v39h-91.921875zm0 0"/></clipPath><clipPath id="d"><path d="m390 68h91.921875v39h-91.921875zm0 0"/></clipPath><clipPath id="e"><path d="m231 85h27v22.195313h-27zm0 0"/></clipPath><clipPath id="f"><path d="m351 85h27v22.195313h-27zm0 0"/></clipPath><g id="g"><path d="m.59375 0v-4.671875h.71875v.671875c.332031-.507813.828125-.765625 1.484375-.765625.28125 0 .535156.054687.765625.15625.238281.09375.414063.226562.53125.390625.113281.15625.195313.351562.25.578125.03125.148437.046875.402344.046875.765625v2.875h-.796875v-2.84375c0-.320313-.03125-.5625-.09375-.71875s-.171875-.28125-.328125-.375c-.15625-.101563-.339844-.15625-.546875-.15625-.335937 0-.625.109375-.875.328125-.242187.210937-.359375.617187-.359375 1.21875v2.546875zm0 0"/></g><g id="h"><path d="m.59375 1.78125v-6.453125h.71875v.609375c.164063-.238281.351563-.414063.5625-.53125.21875-.113281.484375-.171875.796875-.171875.394531 0 .742188.105469 1.046875.3125.300781.199219.53125.484375.6875.859375s.234375.78125.234375 1.21875c0 .480469-.089844.914062-.265625 1.296875-.167969.386719-.414062.683594-.734375.890625-.324219.1953125-.667969.296875-1.03125.296875-.261719 0-.496094-.0585937-.703125-.171875-.210937-.113281-.382812-.253906-.515625-.421875v2.265625zm.71875-4.09375c0 .605469.117188 1.054687.359375 1.34375.25.28125.546875.421875.890625.421875s.640625-.144531.890625-.4375c.257813-.300781.390625-.765625.390625-1.390625 0-.59375-.125-1.035156-.375-1.328125-.242187-.300781-.53125-.453125-.875-.453125-.335937 0-.632812.164062-.890625.484375-.261719.3125-.390625.765625-.390625 1.359375zm0 0"/></g><g id="i"><path d="m3.65625 0v-.6875c-.367187.53125-.859375.796875-1.484375.796875-.273437 0-.527344-.0546875-.765625-.15625-.242187-.113281-.421875-.25-.546875-.40625-.117187-.15625-.195312-.347656-.234375-.578125-.03125-.15625-.046875-.40625-.046875-.75v-2.890625h.78125v2.59375c0 .417969.019531.695312.0625.828125.039063.210937.140625.375.296875.5.164063.117187.367188.171875.609375.171875.238281 0 .460938-.054688.671875-.171875.207031-.125.351563-.289063.4375-.5.082031-.207031.125-.515625.125-.921875v-2.5h.796875v4.671875zm0 0"/></g><g id="j"><path d="m2.328125-.703125.109375.6875c-.230469.0507813-.429687.078125-.59375.078125-.292969 0-.515625-.046875-.671875-.140625s-.273437-.210938-.34375-.359375c-.0625-.144531-.09375-.453125-.09375-.921875v-2.6875h-.578125v-.625h.578125v-1.15625l.796875-.46875v1.625h.796875v.625h-.796875v2.71875c0 .230469.007813.375.03125.4375.03125.0625.078125.117187.140625.15625.0625.042969.148438.0625.265625.0625.09375 0 .210938-.007813.359375-.03125zm0 0"/></g><g id="k"><path d="m.71875 0v-6.4375h4.65625v.75h-3.8125v1.984375h3.5625v.75h-3.5625v2.1875h3.953125v.765625zm0 0"/></g><g id="l"><path d="m1.890625 0-1.78125-4.671875h.84375l1 2.796875c.101563.304687.203125.617187.296875.9375.070313-.238281.171875-.53125.296875-.875l1.03125-2.859375h.8125l-1.765625 4.671875zm0 0"/></g><g id="m"><path d="m3.78125-1.5.828125.09375c-.136719.480469-.382812.855469-.734375 1.125-.34375.2617187-.789062.390625-1.328125.390625-.679687 0-1.21875-.2070313-1.625-.625-.398437-.425781-.59375-1.019531-.59375-1.78125 0-.78125.203125-1.382813.609375-1.8125.40625-.4375.929688-.65625 1.578125-.65625.625 0 1.128906.214844 1.515625.640625.394531.417969.59375 1.011719.59375 1.78125v.21875h-3.484375c.03125.511719.175781.902344.4375 1.171875.257813.273437.585938.40625.984375.40625.289063 0 .535156-.070313.734375-.21875.207031-.15625.367188-.398438.484375-.734375zm-2.59375-1.28125h2.609375c-.03125-.394531-.132812-.691406-.296875-.890625-.25-.300781-.578125-.453125-.984375-.453125-.367187 0-.671875.125-.921875.375-.242187.242187-.375.5625-.40625.96875zm0 0"/></g><g id="n"><path d="m.4375-3.140625c0-1.0625.285156-1.894531.859375-2.5.570313-.613281 1.3125-.921875 2.21875-.921875.59375 0 1.128906.148437 1.609375.4375.476563.28125.84375.679687 1.09375 1.1875.25.511719.375 1.085937.375 1.71875 0 .65625-.132812 1.246094-.390625 1.765625-.261719.511719-.636719.902344-1.125 1.171875-.480469.2617187-1 .390625-1.5625.390625-.605469 0-1.148437-.1445313-1.625-.4375-.480469-.289063-.84375-.691406-1.09375-1.203125-.242187-.507813-.359375-1.046875-.359375-1.609375zm.875.015625c0 .78125.207031 1.398437.625 1.84375.414063.4375.941406.65625 1.578125.65625.632813 0 1.160156-.222656 1.578125-.671875.414063-.445313.625-1.085938.625-1.921875 0-.519531-.089844-.972656-.265625-1.359375-.179687-.394531-.4375-.703125-.78125-.921875s-.726562-.328125-1.140625-.328125c-.605469 0-1.125.210937-1.5625.625-.4375.417969-.65625 1.109375-.65625 2.078125zm0 0"/></g><g id="o"><path d="m.578125 0v-4.671875h.71875v.71875c.175781-.332031.34375-.550781.5-.65625.15625-.101563.328125-.15625.515625-.15625.257813 0 .53125.085937.8125.25l-.28125.734375c-.1875-.113281-.382812-.171875-.578125-.171875-.167969 0-.324219.054687-.46875.15625-.136719.105469-.234375.25-.296875.4375-.085937.28125-.125.589844-.125.921875v2.4375zm0 0"/></g><g id="p"><path d="m3.640625-1.703125.78125.09375c-.085937.542969-.304687.964844-.65625 1.265625-.355469.3046875-.789062.453125-1.296875.453125-.636719 0-1.148437-.2070313-1.53125-.625-.386719-.414063-.578125-1.015625-.578125-1.796875 0-.507813.082031-.953125.25-1.328125.164063-.375.414063-.65625.75-.84375.34375-.1875.71875-.28125 1.125-.28125.5 0 .910156.132812 1.234375.390625.320313.25.53125.609375.625 1.078125l-.765625.125c-.074219-.3125-.203125-.546875-.390625-.703125-.1875-.164063-.414062-.25-.671875-.25-.40625 0-.734375.148437-.984375.4375-.242187.28125-.359375.730469-.359375 1.34375 0 .636719.117188 1.09375.359375 1.375.238281.28125.550781.421875.9375.421875.3125 0 .570313-.09375.78125-.28125.207031-.1875.335938-.476563.390625-.875zm0 0"/></g><g id="q"><path d="m.28125-1.390625.78125-.125c.039063.3125.160156.554687.359375.71875.207031.167969.488281.25.84375.25.363281 0 .632813-.070313.8125-.21875.175781-.144531.265625-.316406.265625-.515625 0-.1875-.078125-.328125-.234375-.421875-.117187-.070313-.386719-.164063-.8125-.28125-.585937-.144531-.992187-.269531-1.21875-.375-.21875-.101563-.386719-.25-.5-.4375-.117187-.1875-.171875-.394531-.171875-.625 0-.207031.046875-.398438.140625-.578125.09375-.175781.222656-.328125.390625-.453125.125-.082031.289063-.15625.5-.21875.21875-.0625.445313-.09375.6875-.09375.363281 0 .679688.054687.953125.15625.28125.105469.488281.246094.625.421875.132813.179687.226563.417969.28125.71875l-.78125.109375c-.03125-.238281-.136719-.425781-.3125-.5625-.167969-.132813-.402344-.203125-.703125-.203125-.367187 0-.625.0625-.78125.1875-.15625.117187-.234375.257812-.234375.421875 0 .105469.03125.195312.09375.265625.0625.09375.164063.167969.3125.21875.070313.03125.300781.101562.6875.203125.5625.148437.953125.265625 1.171875.359375.226563.09375.40625.234375.53125.421875.125.179687.1875.402344.1875.671875 0 .273437-.078125.523437-.234375.75-.15625.230469-.382812.414062-.671875.546875-.28125.125-.609375.1875-.984375.1875-.605469 0-1.070312-.125-1.390625-.375-.3125-.257813-.511719-.632813-.59375-1.125zm0 0"/></g><g id="r"><path d="m3.640625-.578125c-.292969.25-.574219.429687-.84375.53125-.273437.1015625-.5625.15625-.875.15625-.511719 0-.90625-.125-1.1875-.375-.273437-.25-.40625-.570313-.40625-.96875 0-.226563.050781-.4375.15625-.625.101563-.1875.238281-.335938.40625-.453125.164063-.113281.351563-.203125.5625-.265625.15625-.03125.390625-.066406.703125-.109375.644531-.070313 1.117188-.164063 1.421875-.28125 0-.101563 0-.171875 0-.203125 0-.320313-.074219-.546875-.21875-.671875-.210937-.1875-.511719-.28125-.90625-.28125-.375 0-.652344.070312-.828125.203125-.179687.125-.308594.355469-.390625.6875l-.765625-.09375c.0625-.332031.171875-.597656.328125-.796875.164063-.207031.398438-.363281.703125-.46875.3125-.113281.664063-.171875 1.0625-.171875.40625 0 .726563.046875.96875.140625.25.09375.429688.214844.546875.359375.125.136719.207031.3125.25.53125.03125.136719.046875.375.046875.71875v1.0625c0 .730469.015625 1.195312.046875 1.390625.03125.199219.097656.386719.203125.5625h-.828125c-.085937-.164063-.136719-.359375-.15625-.578125zm-.0625-1.765625c-.292969.117187-.726562.214844-1.296875.296875-.324219.054687-.554687.109375-.6875.171875-.136719.054687-.242187.136719-.3125.25-.074219.117187-.109375.242187-.109375.375 0 .210937.078125.386719.234375.53125.15625.136719.390625.203125.703125.203125.300781 0 .570313-.066406.8125-.203125.238281-.132813.414063-.316406.53125-.546875.082031-.175781.125-.4375.125-.78125zm0 0"/></g><g id="s"><path d="m.296875-2.328125c0-.863281.238281-1.503906.71875-1.921875.40625-.34375.894531-.515625 1.46875-.515625.644531 0 1.171875.210937 1.578125.625.40625.417969.609375.996094.609375 1.734375 0 .605469-.09375 1.078125-.28125 1.421875-.179687.34375-.4375.617187-.78125.8125-.34375.1875-.71875.28125-1.125.28125-.65625 0-1.1875-.2070313-1.59375-.625-.398437-.425781-.59375-1.03125-.59375-1.8125zm.8125 0c0 .59375.128906 1.042969.390625 1.34375.257813.292969.585938.4375.984375.4375.394531 0 .722656-.144531.984375-.4375.257813-.300781.390625-.757813.390625-1.375 0-.570313-.132812-1.007813-.390625-1.3125-.261719-.300781-.589844-.453125-.984375-.453125-.398437 0-.726562.152344-.984375.453125-.261719.292969-.390625.742187-.390625 1.34375zm0 0"/></g><g id="t"><path d="m.59375-5.53125v-.90625h.796875v.90625zm0 5.53125v-4.671875h.796875v4.671875zm0 0"/></g><g id="u"><path d="m.40625-2.0625.796875-.078125c.039063.324219.128906.589844.265625.796875.144531.210937.363281.375.65625.5.289063.125.617188.1875.984375.1875.320313 0 .609375-.046875.859375-.140625s.4375-.222656.5625-.390625c.125-.175781.1875-.363281.1875-.5625 0-.195313-.0625-.367188-.1875-.515625-.117187-.15625-.308594-.285156-.578125-.390625-.167969-.070313-.546875-.175781-1.140625-.3125-.59375-.144531-1.011719-.28125-1.25-.40625-.304687-.15625-.53125-.351563-.6875-.59375-.148437-.238281-.21875-.507813-.21875-.8125 0-.320313.085938-.625.265625-.90625.1875-.28125.457031-.492188.8125-.640625.351563-.144531.75-.21875 1.1875-.21875.476563 0 .898438.078125 1.265625.234375.363281.148437.640625.371094.828125.671875.195313.304687.304688.640625.328125 1.015625l-.828125.0625c-.042969-.40625-.1875-.710938-.4375-.921875-.25-.207031-.625-.3125-1.125-.3125-.511719 0-.886719.09375-1.125.28125-.242187.1875-.359375.417969-.359375.6875 0 .230469.082031.417969.25.5625.164063.15625.59375.3125 1.28125.46875.695313.15625 1.175781.292969 1.4375.40625.375.167969.648438.386719.828125.65625.175781.261719.265625.570312.265625.921875 0 .335937-.101562.65625-.296875.96875-.199219.304687-.480469.539062-.84375.703125-.367187.1640625-.777344.25-1.234375.25-.585937 0-1.074219-.0859375-1.46875-.25-.398437-.175781-.710937-.429688-.9375-.765625-.21875-.34375-.335937-.726563-.34375-1.15625zm0 0"/></g><g id="v"><path d="m.59375 0v-4.671875h.703125v.65625c.144531-.226563.335938-.410156.578125-.546875.25-.132813.53125-.203125.84375-.203125.34375 0 .625.074219.84375.21875.21875.136719.375.335937.46875.59375.375-.539063.851563-.8125 1.4375-.8125.46875 0 .828125.132812 1.078125.390625.25.25.375.640625.375 1.171875v3.203125h-.796875v-2.9375c0-.320313-.027344-.550781-.078125-.6875-.042969-.132813-.132812-.242188-.265625-.328125-.136719-.09375-.296875-.140625-.484375-.140625-.324219 0-.59375.109375-.8125.328125s-.328125.570312-.328125 1.046875v2.71875h-.796875v-3.03125c0-.351563-.0625-.617188-.1875-.796875-.125-.175781-.335937-.265625-.625-.265625-.230469 0-.4375.0625-.625.1875-.1875.117187-.324219.289062-.40625.515625-.085937.21875-.125.542969-.125.96875v2.421875zm0 0"/></g><g id="w"><path d="m.703125 0v-6.4375h2.859375c.570313 0 1.007813.058594 1.3125.171875.300781.117187.539063.320312.71875.609375.175781.292969.265625.617187.265625.96875 0 .460937-.152344.84375-.453125 1.15625-.292969.3125-.746094.511719-1.359375.59375.21875.117187.390625.226562.515625.328125.25.230469.484375.515625.703125.859375l1.125 1.75h-1.078125l-.859375-1.34375c-.242187-.382813-.445312-.675781-.609375-.875-.15625-.207031-.304687-.351563-.4375-.4375-.125-.082031-.25-.140625-.375-.171875-.105469-.019531-.265625-.03125-.484375-.03125h-.984375v2.859375zm.859375-3.59375h1.828125c.394531 0 .703125-.039063.921875-.125.21875-.082031.382813-.210938.5-.390625.113281-.175781.171875-.367188.171875-.578125 0-.300781-.117187-.550781-.34375-.75-.21875-.195313-.570312-.296875-1.046875-.296875h-2.03125zm0 0"/></g></defs><g clip-path="url(#a)"><path d="m0 0h482v107.94531h-482zm0 0" fill="#fff"/></g><path d="m6.99868 16.998656h108.003913c.390828 0 .781656.041688 1.167272.114643.385617.078165.760811.192808 1.125584.343928.364772.15112.708701.333506 1.036996.55237.328295.218863.630535.468993.911931.745178.276185.281396.526315.583636.745178.911931s.40125.672223.55237 1.036996c.15112.364772.265762.739967.343928 1.125583.078166.385617.114643.776445.114643 1.172483v27.998892c0 .390828-.036477.781655-.114643 1.172483-.078166.385617-.192808.760811-.343928 1.120373-.15112.364772-.333507.713911-.55237 1.042207-.218863.323084-.468993.630535-.745178.90672-.281396.276185-.583636.526314-.911931.745178-.328295.218863-.672224.40646-1.036996.55758-.364773.15112-.739967.260552-1.125584.338718-.385616.078165-.776444.114642-1.167272.114642h-108.003913c-.390828 0-.781656-.036477-1.167272-.114642-.390828-.078166-.766023-.187598-1.125584-.338718-.364772-.15112-.713912-.338717-1.036996-.55758-.328295-.218864-.630535-.468993-.911931-.745178-.276185-.276185-.526315-.583636-.745178-.90672-.218864-.328296-.406461-.677435-.557581-1.042207-.145909-.359562-.260552-.734756-.338717-1.120373-.078166-.390828-.114643-.781655-.114643-1.172483v-27.998892c0-.396038.036477-.786866.114643-1.172483.078165-.385616.192808-.760811.338717-1.125583.15112-.364773.338717-.708701.557581-1.036996.218863-.328295.468993-.630535.745178-.911931.281396-.276185.583636-.526315.911931-.745178.323084-.218864.672224-.40125 1.036996-.55237.359561-.15112.734756-.265763 1.125584-.343928.385616-.072955.776444-.114643 1.167272-.114643zm0 0" fill="none" stroke="#000" transform="matrix(.749611 0 0 .749611 .374806 .374806)"/><g><path d="m.84375 0v-6.4375h.84375v6.4375zm0 0" transform="translate(22.968554 30.734056)"/><use x="25.467747" xlink:href="#g" y="30.734056"/><use x="30.470522" xlink:href="#h" y="30.734056"/><use x="35.473297" xlink:href="#i" y="30.734056"/><use x="40.476074" xlink:href="#j" y="30.734056"/><use x="45.474457" xlink:href="#k" y="30.734056"/><use x="51.474274" xlink:href="#l" y="30.734056"/><use x="55.971943" xlink:href="#m" y="30.734056"/><use x="60.974716" xlink:href="#g" y="30.734056"/><use x="65.977493" xlink:href="#j" y="30.734056"/></g><path d="m201.000306 1.000778h119.999717v139.99967h-119.999717zm0 0" fill="none" stroke="#000" transform="matrix(.749611 0 0 .749611 .374806 .374806)"/><g><use x="170.65366" xlink:href="#n" y="50.973557"/><use x="177.65053" xlink:href="#o" y="50.973557"/><use x="180.64604" xlink:href="#p" y="50.973557"/><path d="m.59375 0v-6.4375h.796875v2.3125c.363281-.425781.828125-.640625 1.390625-.640625.34375 0 .640625.070312.890625.203125.257813.136719.441406.324219.546875.5625.113281.242187.171875.589844.171875 1.046875v2.953125h-.78125v-2.953125c0-.394531-.089844-.679688-.265625-.859375-.167969-.1875-.40625-.28125-.71875-.28125-.242187 0-.464844.0625-.671875.1875-.210937.117187-.355469.277344-.4375.484375-.085937.210937-.125.5-.125.875v2.546875zm0 0" transform="translate(185.14371 50.973557)"/><use x="190.14648" xlink:href="#m" y="50.973557"/><use x="195.14926" xlink:href="#q" y="50.973557"/><use x="199.64693" xlink:href="#j" y="50.973557"/><use x="202.14612" xlink:href="#o" y="50.973557"/><use x="205.14163" xlink:href="#r" y="50.973557"/><use x="210.14441" xlink:href="#j" y="50.973557"/><use x="212.6436" xlink:href="#s" y="50.973557"/><use x="217.64638" xlink:href="#o" y="50.973557"/></g><g><path d="m.671875 0v-6.4375h1.28125l1.515625 4.5625c.144531.417969.25.734375.3125.953125.070313-.238281.1875-.582031.34375-1.03125l1.546875-4.484375h1.140625v6.4375h-.8125v-5.390625l-1.875 5.390625h-.765625l-1.875-5.484375v5.484375zm0 0" transform="translate(170.4077 62.217724)"/><use x="177.90088" xlink:href="#t" y="62.217724"/><use x="179.89935" xlink:href="#p" y="62.217724"/><use x="184.39702" xlink:href="#o" y="62.217724"/><use x="187.39255" xlink:href="#s" y="62.217724"/><use x="192.39531" xlink:href="#q" y="62.217724"/><use x="196.89299" xlink:href="#m" y="62.217724"/><use x="201.89577" xlink:href="#o" y="62.217724"/><use x="204.89128" xlink:href="#l" y="62.217724"/><use x="209.38895" xlink:href="#t" y="62.217724"/><use x="211.38742" xlink:href="#p" y="62.217724"/><use x="215.88509" xlink:href="#m" y="62.217724"/></g><path d="m6.99868 85.997972h108.003913c.390828 0 .781656.041688 1.167272.119854.385617.072954.760811.187597 1.125584.338717.364772.15112.708701.333506 1.036996.55237.328295.218863.630535.468993.911931.750389.276185.276185.526315.578425.745178.90672s.40125.672223.55237 1.036996c.15112.364772.265762.739967.343928 1.125583.078166.385617.114643.776445.114643 1.172483v27.998892c0 .396039-.036477.781655-.114643 1.172483-.078166.385617-.192808.760811-.343928 1.125584-.15112.359561-.333507.7087-.55237 1.036996-.218863.328295-.468993.630535-.745178.90672-.281396.281396-.583636.526314-.911931.745178-.328295.218863-.672224.40646-1.036996.55758-.364773.15112-.739967.265763-1.125584.338718-.385616.078165-.776444.114642-1.167272.114642h-108.003913c-.390828 0-.781656-.036477-1.167272-.114642-.390828-.072955-.766023-.187598-1.125584-.338718-.364772-.15112-.713912-.338717-1.036996-.55758-.328295-.218864-.630535-.463782-.911931-.745178-.276185-.276185-.526315-.578425-.745178-.90672-.218864-.328296-.406461-.677435-.557581-1.036996-.145909-.364773-.260552-.739967-.338717-1.125584-.078166-.390828-.114643-.776444-.114643-1.172483v-27.998892c0-.396038.036477-.786866.114643-1.172483.078165-.385616.192808-.760811.338717-1.125583.15112-.364773.338717-.708701.557581-1.036996.218863-.328295.468993-.630535.745178-.90672.281396-.281396.583636-.531526.911931-.750389.323084-.218864.672224-.40125 1.036996-.55237.359561-.15112.734756-.265763 1.125584-.338717.385616-.078166.776444-.119854 1.167272-.119854zm0 0" fill="none" stroke="#000" transform="matrix(.749611 0 0 .749611 .374806 .374806)"/><g><use x="19.466463" xlink:href="#n" y="82.45723"/><use x="26.463324" xlink:href="#i" y="82.45723"/><use x="31.466099" xlink:href="#j" y="82.45723"/><use x="33.96529" xlink:href="#h" y="82.45723"/><use x="38.968067" xlink:href="#i" y="82.45723"/><use x="43.970844" xlink:href="#j" y="82.45723"/><use x="48.969227" xlink:href="#k" y="82.45723"/><use x="54.969044" xlink:href="#l" y="82.45723"/><use x="59.466709" xlink:href="#m" y="82.45723"/><use x="64.469482" xlink:href="#g" y="82.45723"/><use x="69.47226" xlink:href="#j" y="82.45723"/></g><path d="m364.001484 1.000778h113.996605c.401249 0 .781655.072955 1.151638.229286.364773.15112.687857.364772.969253.646168s.500259.609691.651379.974464c.15112.369983.229286.750389.229286 1.151638v13.996841c0 .401249-.078166.781655-.229286 1.146427-.15112.369984-.369983.693068-.651379.974464s-.60448.500259-.969253.651379c-.369983.15112-.750389.229286-1.151638.229286h-113.996605c-.401249 0-.781655-.078166-1.151638-.229286-.364773-.15112-.687857-.369983-.969253-.651379s-.500259-.60448-.651379-.974464c-.15112-.364772-.229286-.745178-.229286-1.146427v-13.996841c0-.401249.078166-.781655.229286-1.151638.15112-.364773.369983-.693068.651379-.974464s.60448-.495048.969253-.646168c.369983-.156331.750389-.229286 1.151638-.229286zm0 0" fill="none" stroke="#000" transform="matrix(.749611 0 0 .749611 .374806 .374806)"/><g><use x="297.33795" xlink:href="#u" y="11.244167"/><use x="303.33777" xlink:href="#j" y="11.244167"/><use x="305.83694" xlink:href="#o" y="11.244167"/><use x="308.83246" xlink:href="#m" y="11.244167"/><use x="313.83524" xlink:href="#r" y="11.244167"/><use x="318.83801" xlink:href="#v" y="11.244167"/><path d="m3.359375 0h-.796875v-5.046875c-.1875.1875-.4375.375-.75.5625-.3125.179687-.589844.308594-.828125.390625v-.765625c.4375-.195313.820313-.441406 1.15625-.734375.332031-.300781.566406-.59375.703125-.875h.515625zm0 0" transform="translate(328.83038 11.244167)"/></g><path d="m364.001484 31.000707h113.996605c.401249 0 .781655.072955 1.151638.229286.364773.15112.687857.369983.969253.646168.281396.281396.500259.609691.651379.974464.15112.369983.229286.750389.229286 1.151639v13.99684c0 .40125-.078166.781655-.229286 1.146428-.15112.369983-.369983.693067-.651379.974463s-.60448.500259-.969253.65138c-.369983.15112-.750389.229285-1.151638.229285h-113.996605c-.401249 0-.781655-.078165-1.151638-.229285-.364773-.151121-.687857-.369984-.969253-.65138s-.500259-.60448-.651379-.974463c-.15112-.364773-.229286-.745178-.229286-1.146428v-13.99684c0-.40125.078166-.781656.229286-1.151639.15112-.364773.369983-.693068.651379-.974464.281396-.276185.60448-.495048.969253-.646168.369983-.156331.750389-.229286 1.151638-.229286zm0 0" fill="none" stroke="#000" transform="matrix(.749611 0 0 .749611 .374806 .374806)"/><g><use x="295.32336" xlink:href="#w" y="33.732502"/><use x="301.81952" xlink:href="#m" y="33.732502"/><use x="306.8223" xlink:href="#q" y="33.732502"/><use x="311.31995" xlink:href="#h" y="33.732502"/><use x="316.32272" xlink:href="#s" y="33.732502"/><use x="321.3255" xlink:href="#g" y="33.732502"/><use x="326.32828" xlink:href="#q" y="33.732502"/><use x="330.82596" xlink:href="#m" y="33.732502"/></g><path d="m364.001484 91.000566h113.996605c.401249 0 .781655.072954 1.151638.229285.364773.15112.687857.369984.969253.65138.281396.276184.500259.60448.651379.969252.15112.369984.229286.750389.229286 1.151639v13.99684c0 .40125-.078166.781655-.229286 1.151639-.15112.364772-.369983.687857-.651379.969252-.281396.281396-.60448.50026-.969253.65138-.369983.15112-.750389.229285-1.151638.229285h-113.996605c-.401249 0-.781655-.078165-1.151638-.229285-.364773-.15112-.687857-.369984-.969253-.65138-.281396-.281395-.500259-.60448-.651379-.969252-.15112-.369984-.229286-.750389-.229286-1.151639v-13.99684c0-.40125.078166-.781655.229286-1.151639.15112-.364772.369983-.693068.651379-.969252.281396-.281396.60448-.50026.969253-.65138.369983-.156331.750389-.229285 1.151638-.229285zm0 0" fill="none" stroke="#000" transform="matrix(.749611 0 0 .749611 .374806 .374806)"/><g><use x="297.33795" xlink:href="#u" y="78.709167"/><use x="303.33777" xlink:href="#j" y="78.709167"/><use x="305.83694" xlink:href="#o" y="78.709167"/><use x="308.83246" xlink:href="#m" y="78.709167"/><use x="313.83524" xlink:href="#r" y="78.709167"/><use x="318.83801" xlink:href="#v" y="78.709167"/><path d="m4.53125-.765625v.765625h-4.265625c0-.1875.03125-.367188.09375-.546875.113281-.289063.289063-.578125.53125-.859375.238281-.28125.582031-.601563 1.03125-.96875.695313-.582031 1.164063-1.039063 1.40625-1.375.25-.332031.375-.648438.375-.953125 0-.3125-.117187-.570313-.34375-.78125-.21875-.21875-.507812-.328125-.859375-.328125-.386719 0-.695312.117187-.921875.34375-.230469.230469-.34375.546875-.34375.953125l-.8125-.09375c.050781-.601563.257813-1.0625.625-1.375.363281-.320313.851563-.484375 1.46875-.484375.613281 0 1.097656.171875 1.453125.515625.363281.34375.546875.765625.546875 1.265625 0 .261719-.054687.515625-.15625.765625-.105469.25-.28125.515625-.53125.796875-.242187.273437-.640625.648437-1.203125 1.125-.480469.398437-.789062.667969-.921875.8125-.136719.148437-.246094.289062-.328125.421875zm0 0" transform="translate(328.83038 78.709167)"/></g><g clip-path="url(#b)"><path d="m364.00148 121.0005h113.99661c.40125 0 .78165.0782 1.15164.22928.36477.15112.68785.36998.96925.65138s.50026.60448.65138.96925c.15112.36999.22928.75039.22928 1.15164v13.99684c0 .40125-.0782.78166-.22928 1.15164-.15112.36477-.36998.68786-.65138.96925-.2814.2814-.60448.50026-.96925.65138-.36999.15112-.75039.22929-1.15164.22929h-113.99661c-.40125 0-.78165-.0782-1.15163-.22929-.36478-.15112-.68786-.36998-.96926-.65138-.28139-.28139-.50026-.60448-.65138-.96925-.15112-.36998-.22928-.75039-.22928-1.15164v-13.99684c0-.40125.0782-.78165.22928-1.15164.15112-.36477.36999-.68785.65138-.96925.2814-.2814.60448-.50026.96926-.65138.36998-.15112.75038-.22928 1.15163-.22928zm0 0" fill="none" stroke="#000" transform="matrix(.749611 0 0 .749611 .374806 .374806)"/></g><g><use x="295.32336" xlink:href="#w" y="101.1975"/><use x="301.81952" xlink:href="#m" y="101.1975"/><use x="306.8223" xlink:href="#q" y="101.1975"/><use x="311.31995" xlink:href="#h" y="101.1975"/><use x="316.32272" xlink:href="#s" y="101.1975"/><use x="321.3255" xlink:href="#g" y="101.1975"/><use x="326.32828" xlink:href="#q" y="101.1975"/><use x="330.82596" xlink:href="#m" y="101.1975"/></g><path d="m194.632421 35.99809h-73.631926" fill="none" stroke="#000" stroke-miterlimit="10" transform="matrix(.749611 0 0 .749611 .374806 .374806)"/><path d="m199.879933 35.99809-6.99842 3.501816 1.750908-3.501816-1.750908-3.496605zm0 0" stroke="#000" stroke-miterlimit="10" transform="matrix(.749611 0 0 .749611 .374806 .374806)"/><path d="m201.000306 105.997925h-73.631926" fill="none" stroke="#000" stroke-miterlimit="10" transform="matrix(.749611 0 0 .749611 .374806 .374806)"/><path d="m122.120867 105.997925 6.998421-3.496605-1.750908 3.496605 1.750908 3.501815zm0 0" stroke="#000" stroke-miterlimit="10" transform="matrix(.749611 0 0 .749611 .374806 .374806)"/><g clip-path="url(#c)"><path d="m520.99955 1.000778h119.99972v49.999882h-119.99972zm0 0" fill="none" stroke="#000" transform="matrix(.749611 0 0 .749611 .374806 .374806)"/></g><g><use x="416.26843" xlink:href="#u" y="22.488335"/><use x="422.26825" xlink:href="#m" y="22.488335"/><use x="427.27103" xlink:href="#o" y="22.488335"/><use x="430.26654" xlink:href="#l" y="22.488335"/><use x="434.76422" xlink:href="#t" y="22.488335"/><use x="436.7627" xlink:href="#p" y="22.488335"/><use x="441.26035" xlink:href="#m" y="22.488335"/><path d="m-.015625 0 2.484375-6.4375h.90625l2.640625 6.4375h-.96875l-.75-1.953125h-2.703125l-.703125 1.953125zm1.859375-2.640625h2.1875l-.671875-1.796875c-.210937-.539063-.359375-.984375-.453125-1.328125-.085937.417969-.203125.828125-.359375 1.234375zm0 0" transform="translate(448.76233 22.488335)"/></g><g clip-path="url(#d)"><path d="m520.99955 91.000566h119.99972v49.999884h-119.99972zm0 0" fill="none" stroke="#000" transform="matrix(.749611 0 0 .749611 .374806 .374806)"/></g><g><use x="416.26843" xlink:href="#u" y="89.953339"/><use x="422.26825" xlink:href="#m" y="89.953339"/><use x="427.27103" xlink:href="#o" y="89.953339"/><use x="430.26654" xlink:href="#l" y="89.953339"/><use x="434.76422" xlink:href="#t" y="89.953339"/><use x="436.7627" xlink:href="#p" y="89.953339"/><use x="441.26035" xlink:href="#m" y="89.953339"/><path d="m.65625 0v-6.4375h2.421875c.488281 0 .878906.070312 1.171875.203125.300781.125.535156.324219.703125.59375.175781.273437.265625.554687.265625.84375 0 .28125-.078125.542969-.234375.78125-.148437.242187-.371094.4375-.671875.59375.382813.117187.679688.308594.890625.578125.21875.273437.328125.59375.328125.96875 0 .304687-.070312.585937-.203125.84375-.125.261719-.28125.464844-.46875.609375-.1875.136719-.421875.242187-.703125.3125-.28125.0742187-.632812.109375-1.046875.109375zm.859375-3.734375h1.390625c.375 0 .644531-.023438.8125-.078125.21875-.0625.378906-.164063.484375-.3125.113281-.15625.171875-.34375.171875-.5625s-.054687-.40625-.15625-.5625c-.105469-.164063-.25-.28125-.4375-.34375s-.515625-.09375-.984375-.09375h-1.28125zm0 2.96875h1.59375c.28125 0 .476563-.007813.59375-.03125.1875-.03125.347656-.085938.484375-.171875.132813-.082031.242188-.203125.328125-.359375.082031-.15625.125-.335938.125-.546875 0-.238281-.0625-.445313-.1875-.625-.125-.175781-.296875-.296875-.515625-.359375-.21875-.070313-.53125-.109375-.9375-.109375h-1.484375zm0 0" transform="translate(448.76233 89.953339)"/></g><g stroke="#000" stroke-miterlimit="10" transform="matrix(.749611 0 0 .749611 .374806 .374806)"><path d="m321.000023 10.578661h33.63202" fill="none"/><path d="m359.879556 10.578661-6.998421 3.501815 1.750908-3.501815-1.750908-3.496605zm0 0"/><path d="m329.118815 40.57859h31.881113" fill="none"/><path d="m322.120395 40.57859 6.99842-3.496605v6.99842zm0 0"/><path d="m480.999645 10.578661h33.632021" fill="none"/><path d="m519.879178 10.578661-6.99842 3.501815 1.750908-3.501815-1.750908-3.496605zm0 0"/><path d="m489.118438 40.57859h31.881112" fill="none"/><path d="m482.120017 40.57859 6.998421-3.496605v6.99842zm0 0"/><path d="m321.000023 100.578448h33.63202" fill="none"/><path d="m359.879556 100.578448-6.998421 3.501816 1.750908-3.501816-1.750908-3.496604zm0 0"/><path d="m329.118815 130.578377h31.881113" fill="none"/></g><path d="m241.839844 98.257813 5.246094-2.621094v5.246094zm0 0"/><g clip-path="url(#e)"><path d="m322.12039 130.57838 6.99842-3.49661v6.99842zm0 0" fill="none" stroke="#000" stroke-miterlimit="10" transform="matrix(.749611 0 0 .749611 .374806 .374806)"/></g><path d="m480.999645 100.578448h33.632021" fill="none" stroke="#000" stroke-miterlimit="10" transform="matrix(.749611 0 0 .749611 .374806 .374806)"/><path d="m519.879178 100.578448-6.99842 3.501816 1.750908-3.501816-1.750908-3.496604zm0 0" stroke="#000" stroke-miterlimit="10" transform="matrix(.749611 0 0 .749611 .374806 .374806)"/><path d="m489.118438 130.578377h31.881112" fill="none" stroke="#000" stroke-miterlimit="10" transform="matrix(.749611 0 0 .749611 .374806 .374806)"/><path d="m361.777344 98.257813 5.246094-2.621094v5.246094zm0 0"/><g clip-path="url(#f)"><path d="m482.12002 130.57838 6.99842-3.49661v6.99842zm0 0" fill="none" stroke="#000" stroke-miterlimit="10" transform="matrix(.749611 0 0 .749611 .374806 .374806)"/></g></svg>