<svg height="93.119995pt" viewBox="0 0 462.95999 93.119995" width="462.95999pt" xmlns="http://www.w3.org/2000/svg" xmlns:xlink="http://www.w3.org/1999/xlink"><clipPath id="a"><path d="m0 0h462.960938v92.898438h-462.960938zm0 0"/></clipPath><clipPath id="b"><path d="m439 47h23.960938v28h-23.960938zm0 0"/></clipPath><symbol id="c" overflow="visible"><path d="m.65625-6.4375h2.359375c.539063 0 .953125.042969 1.234375.125.375.117188.695312.3125.96875.59375.269531.28125.472656.632812.609375 1.046875.144531.40625.21875.914063.21875 1.515625 0 .53125-.070313.992188-.203125 1.375-.15625.46875-.386719.84375-.6875 1.125-.230469.230469-.539062.402344-.921875.515625-.28125.09375-.664063.140625-1.140625.140625h-2.4375zm1.296875 1.09375v4.265625h.96875c.363281 0 .625-.019531.78125-.0625.207031-.050781.378906-.140625.515625-.265625.144531-.125.257812-.332031.34375-.625.09375-.289062.140625-.6875.140625-1.1875 0-.488281-.046875-.863281-.140625-1.125-.085938-.269531-.203125-.476562-.359375-.625-.15625-.15625-.359375-.257812-.609375-.3125-.179688-.039062-.53125-.0625-1.0625-.0625zm0 0"/></symbol><symbol id="d" overflow="visible"><path d="m.359375-2.390625c0-.414063.097656-.8125.296875-1.1875.207031-.382813.492188-.675781.859375-.875.375-.207031.789063-.3125 1.25-.3125.695313 0 1.269531.230469 1.71875.6875.457031.460937.6875 1.039063.6875 1.734375 0 .710938-.230469 1.296875-.6875 1.765625-.460937.460937-1.03125.6875-1.71875.6875-.429687 0-.835937-.09375-1.21875-.28125-.386719-.195313-.683594-.484375-.890625-.859375-.199219-.375-.296875-.828125-.296875-1.359375zm1.265625.0625c0 .460937.109375.8125.328125 1.0625.21875.242187.488281.359375.8125.359375.320313 0 .59375-.117188.8125-.359375.21875-.25.328125-.609375.328125-1.078125 0-.445312-.109375-.796875-.328125-1.046875s-.492187-.375-.8125-.375c-.324219 0-.59375.125-.8125.375s-.328125.605469-.328125 1.0625zm0 0"/></symbol><symbol id="e" overflow="visible"><path d="m.546875-4.65625h1.140625v.640625c.40625-.5.890625-.75 1.453125-.75.300781 0 .5625.0625.78125.1875s.394531.3125.53125.5625c.207031-.25.425781-.4375.65625-.5625.238281-.125.492187-.1875.765625-.1875.34375 0 .632812.074219.875.21875.238281.136719.414062.339844.53125.609375.082031.199219.125.515625.125.953125v2.984375h-1.234375v-2.65625c0-.46875-.042969-.769531-.125-.90625-.117187-.175781-.292969-.265625-.53125-.265625-.167969 0-.328125.058594-.484375.171875-.15625.105469-.265625.261719-.328125.46875-.0625.199219-.09375.515625-.09375.953125v2.234375h-1.234375v-2.546875c0-.457031-.027344-.75-.078125-.875-.042969-.132813-.109375-.234375-.203125-.296875-.085938-.070312-.210938-.109375-.375-.109375-.1875 0-.359375.054687-.515625.15625-.148437.105469-.257813.257813-.328125.453125-.0625.1875-.09375.507812-.09375.953125v2.265625h-1.234375zm0 0"/></symbol><symbol id="f" overflow="visible"><path d="m1.5625-3.234375-1.109375-.203125c.125-.445312.335937-.78125.640625-1 .3125-.21875.769531-.328125 1.375-.328125.550781 0 .957031.070313 1.21875.203125.269531.125.457031.292969.5625.5.113281.199219.171875.5625.171875 1.09375l-.015625 1.4375c0 .40625.019531.710938.0625.90625.039062.199219.113281.40625.21875.625h-1.21875c-.03125-.0820312-.070312-.203125-.109375-.359375-.023437-.070313-.039063-.125-.046875-.15625-.210938.210937-.433594.367187-.671875.46875-.242187.1015625-.496094.15625-.765625.15625-.480469 0-.859375-.1289062-1.140625-.390625-.28125-.257812-.421875-.585938-.421875-.984375 0-.269531.0625-.503906.1875-.703125.132812-.207031.3125-.363281.53125-.46875.226562-.113281.554688-.210938.984375-.296875.570313-.113281.972656-.21875 1.203125-.3125v-.109375c0-.238281-.0625-.410156-.1875-.515625-.117188-.101563-.335938-.15625-.65625-.15625-.21875 0-.390625.046875-.515625.140625-.117187.085938-.214844.234375-.296875.453125zm1.65625 1c-.15625.054687-.40625.117187-.75.1875-.34375.074219-.570312.148437-.671875.21875-.167969.117187-.25.257813-.25.421875 0 .179688.0625.328125.1875.453125.132813.125.300781.1875.5.1875.226563 0 .441406-.070313.640625-.21875.144531-.113281.242188-.25.296875-.40625.03125-.101563.046875-.300781.046875-.59375zm0 0"/></symbol><symbol id="g" overflow="visible"><path d="m.640625-5.296875v-1.140625h1.234375v1.140625zm0 5.296875v-4.65625h1.234375v4.65625zm0 0"/></symbol><symbol id="h" overflow="visible"><path d="m4.875 0h-1.21875v-2.375c0-.5-.03125-.820312-.09375-.96875-.054688-.15625-.136719-.273438-.25-.359375-.117188-.082031-.257812-.125-.421875-.125-.21875 0-.414063.0625-.578125.1875-.167969.117187-.28125.273437-.34375.46875-.0625.1875-.09375.542969-.09375 1.0625v2.109375h-1.234375v-4.65625h1.140625v.6875c.40625-.53125.914062-.796875 1.53125-.796875.269531 0 .519531.054687.75.15625.226562.09375.398438.21875.515625.375.113281.148437.191406.320313.234375.515625.039062.1875.0625.464844.0625.828125zm0 0"/></symbol><symbol id="i" overflow="visible"/><symbol id="j" overflow="visible"><path d="m4.765625-2.359375 1.265625.390625c-.199219.710938-.523438 1.234375-.96875 1.578125-.449219.3359375-1.015625.5-1.703125.5-.855469 0-1.558594-.289063-2.109375-.875-.554688-.582031-.828125-1.378906-.828125-2.390625 0-1.070312.273437-1.90625.828125-2.5.550781-.59375 1.28125-.890625 2.1875-.890625.78125 0 1.421875.234375 1.921875.703125.289063.273438.507813.667969.65625 1.1875l-1.296875.296875c-.074219-.332031-.230469-.59375-.46875-.78125-.242188-.195313-.53125-.296875-.875-.296875-.480469 0-.871094.171875-1.171875.515625-.292969.34375-.4375.902344-.4375 1.671875 0 .8125.144531 1.390625.4375 1.734375.289063.34375.671875.515625 1.140625.515625.34375 0 .640625-.109375.890625-.328125s.425781-.5625.53125-1.03125zm0 0"/></symbol><symbol id="k" overflow="visible"><path d="m3.71875 0v-.703125c-.179688.25-.40625.449219-.6875.59375-.273438.1445312-.558594.21875-.859375.21875-.3125 0-.59375-.0703125-.84375-.203125-.25-.144531-.433594-.335938-.546875-.578125-.105469-.25-.15625-.59375-.15625-1.03125v-2.953125h1.21875v2.140625c0 .65625.019531 1.058594.0625 1.203125.050781.148438.132812.265625.25.359375.125.085937.28125.125.46875.125.207031 0 .394531-.054687.5625-.171875.164062-.125.28125-.269531.34375-.4375.0625-.164062.09375-.582031.09375-1.25v-1.96875h1.234375v4.65625zm0 0"/></symbol><symbol id="l" overflow="visible"><path d="m.609375-4.65625h1.15625v.6875c.144531-.238281.34375-.429688.59375-.578125.257813-.144531.546875-.21875.859375-.21875.53125 0 .984375.214844 1.359375.640625.382813.429688.578125 1.015625.578125 1.765625 0 .78125-.195312 1.390625-.578125 1.828125-.375.429688-.835937.640625-1.375.640625-.261719 0-.496094-.0546875-.703125-.15625-.210938-.101563-.429688-.28125-.65625-.53125v2.34375h-1.234375zm1.21875 2.25c0 .523438.101563.90625.3125 1.15625.207031.25.460937.375.765625.375.28125 0 .515625-.113281.703125-.34375.195313-.226562.296875-.601562.296875-1.125 0-.488281-.101562-.851562-.296875-1.09375-.199219-.238281-.445313-.359375-.734375-.359375-.304688 0-.554688.121094-.75.359375-.199219.230469-.296875.574219-.296875 1.03125zm0 0"/></symbol><symbol id="m" overflow="visible"><path d="m.640625 0v-6.4375h1.234375v6.4375zm0 0"/></symbol><symbol id="n" overflow="visible"><path d="m.53125.3125 1.40625.171875c.019531.15625.070312.265625.15625.328125.125.09375.3125.140625.5625.140625.320312 0 .5625-.054687.71875-.15625.113281-.0625.195312-.167969.25-.3125.039062-.09375.0625-.28125.0625-.5625v-.671875c-.375.5-.84375.75-1.40625.75-.625 0-1.121094-.265625-1.484375-.796875-.28125-.414063-.421875-.9375-.421875-1.5625 0-.78125.1875-1.375.5625-1.78125.375-.414063.835938-.625 1.390625-.625.582031 0 1.0625.257813 1.4375.765625v-.65625h1.140625v4.171875c0 .5507812-.046875.960937-.140625 1.234375-.085937.269531-.210937.484375-.375.640625-.15625.15625-.375.273437-.65625.359375-.273437.09375-.617187.140625-1.03125.140625-.792969 0-1.355469-.136719-1.6875-.40625-.324219-.273437-.484375-.617187-.484375-1.03125 0-.042969 0-.089844 0-.140625zm1.09375-2.734375c0 .492187.09375.851563.28125 1.078125.195312.230469.4375.34375.71875.34375.300781 0 .554688-.113281.765625-.34375.207031-.238281.3125-.585938.3125-1.046875 0-.488281-.101563-.847656-.296875-1.078125-.199219-.238281-.449219-.359375-.75-.359375-.304688 0-.554688.121094-.75.359375-.1875.230469-.28125.578125-.28125 1.046875zm0 0"/></symbol><symbol id="o" overflow="visible"><path d="m.65625 0v-6.4375h2.078125c.789063 0 1.304687.039062 1.546875.109375.363281.09375.671875.304687.921875.625.25.324219.375.742187.375 1.25 0 .398437-.074219.730469-.21875 1-.136719.273437-.320313.484375-.546875.640625-.21875.148438-.445312.246094-.671875.296875-.304687.0625-.75.09375-1.34375.09375h-.84375v2.421875zm1.296875-5.34375v1.828125h.703125c.519531 0 .863281-.03125 1.03125-.09375.175781-.070313.3125-.179687.40625-.328125.09375-.144531.140625-.3125.140625-.5 0-.226562-.070313-.421875-.203125-.578125-.136719-.15625-.308594-.25-.515625-.28125-.15625-.03125-.46875-.046875-.9375-.046875zm0 0"/></symbol><symbol id="p" overflow="visible"><path d="m.203125-1.328125 1.25-.1875c.050781.242187.15625.421875.3125.546875.164063.125.390625.1875.671875.1875.320312 0 .5625-.054688.71875-.171875.113281-.082031.171875-.195313.171875-.34375 0-.09375-.03125-.164063-.09375-.21875-.0625-.0625-.199219-.117187-.40625-.171875-1-.21875-1.632813-.414062-1.890625-.59375-.375-.25-.5625-.597656-.5625-1.046875 0-.40625.160156-.742187.484375-1.015625.320313-.28125.816406-.421875 1.484375-.421875.632812 0 1.109375.105469 1.421875.3125.3125.210937.523437.515625.640625.921875l-1.171875.21875c-.042969-.1875-.136719-.328125-.28125-.421875-.136719-.09375-.335937-.140625-.59375-.140625-.324219 0-.554687.046875-.6875.140625-.09375.0625-.140625.148437-.140625.25 0 .085937.039062.15625.125.21875.101562.085937.484375.199219 1.140625.34375.65625.148437 1.113281.328125 1.375.546875.257813.21875.390625.527344.390625.921875 0 .429687-.183594.796875-.546875 1.109375-.355469.3046875-.882813.453125-1.578125.453125-.636719 0-1.140625-.1289062-1.515625-.390625-.367187-.257812-.605469-.609375-.71875-1.046875zm0 0"/></symbol><symbol id="q" overflow="visible"><path d="m.5-1.71875v-1.234375h2.421875v1.234375zm0 0"/></symbol><symbol id="r" overflow="visible"><path d="m2.78125-4.65625v.984375h-.84375v1.875c0 .375.003906.59375.015625.65625.019531.0625.054687.117187.109375.15625.0625.042969.132812.0625.21875.0625.113281 0 .28125-.035156.5-.109375l.09375.953125c-.28125.125-.605469.1875-.96875.1875-.21875 0-.417969-.0390625-.59375-.109375-.179688-.0820312-.308594-.179688-.390625-.296875-.085937-.113281-.148437-.273437-.1875-.484375-.023437-.132812-.03125-.421875-.03125-.859375v-2.03125h-.5625v-.984375h.5625v-.921875l1.234375-.71875v1.640625zm0 0"/></symbol><symbol id="s" overflow="visible"><path d="m1.875-6.4375v2.375c.394531-.46875.867188-.703125 1.421875-.703125.28125 0 .535156.054687.765625.15625.226562.105469.398438.242187.515625.40625.113281.167969.191406.351563.234375.546875.039062.199219.0625.507812.0625.921875v2.734375h-1.21875v-2.46875c0-.476562-.027344-.785156-.078125-.921875-.042969-.132813-.125-.238281-.25-.3125-.117187-.082031-.261719-.125-.4375-.125-.210937 0-.398437.054687-.5625.15625-.15625.105469-.273437.257813-.34375.453125-.074219.199219-.109375.496094-.109375.890625v2.328125h-1.234375v-6.4375zm0 0"/></symbol><symbol id="t" overflow="visible"><path d="m1.828125 0h-1.234375v-4.65625h1.140625v.65625c.195313-.3125.375-.515625.53125-.609375.15625-.101563.332031-.15625.53125-.15625.28125 0 .550781.078125.8125.234375l-.375 1.078125c-.210937-.132813-.402344-.203125-.578125-.203125-.179688 0-.328125.046875-.453125.140625-.117187.09375-.210937.265625-.28125.515625-.0625.25-.09375.773438-.09375 1.5625zm0 0"/></symbol><symbol id="u" overflow="visible"><path d="m3.34375-1.484375 1.234375.203125c-.167969.460938-.421875.808594-.765625 1.046875-.335938.23046875-.757812.34375-1.265625.34375-.8125 0-1.414063-.265625-1.796875-.796875-.3125-.425781-.46875-.960938-.46875-1.609375 0-.769531.203125-1.375.609375-1.8125s.914063-.65625 1.53125-.65625c.695313 0 1.242187.230469 1.640625.6875.394531.460937.585938 1.164063.578125 2.109375h-3.09375c.007813.367188.109375.652344.296875.859375.1875.199219.425781.296875.71875.296875.1875 0 .34375-.050781.46875-.15625.132812-.101562.238281-.273438.3125-.515625zm.0625-1.25c0-.351563-.089844-.625-.265625-.8125-.179687-.1875-.390625-.28125-.640625-.28125-.273438 0-.496094.101563-.671875.296875-.179687.199219-.261719.464844-.25.796875zm0 0"/></symbol><symbol id="v" overflow="visible"><path d="m.65625 0v-6.4375h.859375v5.671875h3.15625v.765625zm0 0"/></symbol><symbol id="w" overflow="visible"><path d="m.296875-2.328125c0-.863281.238281-1.503906.71875-1.921875.40625-.34375.894531-.515625 1.46875-.515625.632813 0 1.15625.214844 1.5625.640625.40625.417969.609375.996094.609375 1.734375 0 .59375-.089844 1.0625-.265625 1.40625-.179687.34375-.4375.617187-.78125.8125-.34375.1875-.71875.28125-1.125.28125-.65625 0-1.1875-.2070312-1.59375-.625-.398437-.425781-.59375-1.03125-.59375-1.8125zm.8125 0c0 .59375.128906 1.042969.390625 1.34375.257812.292969.585938.4375.984375.4375.394531 0 .722656-.144531.984375-.4375.257812-.300781.390625-.757813.390625-1.375 0-.570313-.136719-1.003906-.40625-1.296875-.261719-.300781-.585937-.453125-.96875-.453125-.398437 0-.726563.152344-.984375.453125-.261719.292969-.390625.734375-.390625 1.328125zm0 0"/></symbol><symbol id="x" overflow="visible"><path d="m1.453125 0-1.421875-4.65625h.8125l.734375 2.6875.28125 1c.007813-.050781.085937-.375.234375-.96875l.75-2.71875h.8125l.703125 2.703125.21875.890625.28125-.90625.796875-2.6875h.765625l-1.453125 4.65625h-.828125l-.734375-2.796875-.1875-.78125-.9375 3.578125zm0 0"/></symbol><symbol id="y" overflow="visible"/><symbol id="z" overflow="visible"><path d="m0 .109375 1.859375-6.65625h.640625l-1.859375 6.65625zm0 0"/></symbol><symbol id="A" overflow="visible"><path d="m.28125-1.390625.78125-.125c.039062.3125.160156.554687.359375.71875.195313.167969.476563.25.84375.25.363281 0 .628906-.070313.796875-.21875.175781-.144531.265625-.316406.265625-.515625 0-.175781-.078125-.316406-.234375-.421875-.105469-.070313-.371094-.160156-.796875-.265625-.585937-.144531-.992187-.269531-1.21875-.375-.21875-.113281-.386719-.265625-.5-.453125-.117187-.1875-.171875-.394531-.171875-.625 0-.207031.046875-.398437.140625-.578125.09375-.175781.222656-.320312.390625-.4375.125-.09375.289062-.171875.5-.234375.21875-.0625.445312-.09375.6875-.09375.363281 0 .679688.054687.953125.15625.28125.105469.484375.25.609375.4375.132812.179687.226562.417969.28125.71875l-.765625.09375c-.042969-.238281-.148437-.421875-.3125-.546875-.167969-.132812-.402344-.203125-.703125-.203125-.367188 0-.625.0625-.78125.1875-.15625.117187-.234375.25-.234375.40625 0 .105469.03125.199219.09375.28125.0625.085937.164063.152344.3125.203125.070313.03125.300781.101562.6875.203125.5625.15625.953125.28125 1.171875.375s.390625.234375.515625.421875c.125.179688.1875.398438.1875.65625 0 .273438-.078125.523438-.234375.75-.148438.230469-.367188.414062-.65625.546875-.292969.125-.621094.1875-.984375.1875-.605469 0-1.070313-.125-1.390625-.375-.3125-.257813-.511719-.632813-.59375-1.125zm0 0"/></symbol><symbol id="B" overflow="visible"><path d="m3.78125-1.5.8125.09375c-.125.480469-.367188.855469-.71875 1.125-.34375.2617188-.789062.390625-1.328125.390625-.679687 0-1.21875-.2070312-1.625-.625-.398437-.425781-.59375-1.019531-.59375-1.78125 0-.78125.203125-1.382813.609375-1.8125.40625-.4375.925781-.65625 1.5625-.65625.625 0 1.132812.214844 1.53125.640625.394531.429688.59375 1.023438.59375 1.78125v.21875h-3.484375c.03125.511719.175781.902344.4375 1.171875.257813.273437.582031.40625.96875.40625.289063 0 .539063-.070313.75-.21875.207031-.15625.367187-.398437.484375-.734375zm-2.59375-1.28125h2.609375c-.042969-.382812-.148437-.675781-.3125-.875-.25-.300781-.574219-.453125-.96875-.453125-.367187 0-.671875.121094-.921875.359375-.242188.242188-.375.5625-.40625.96875zm0 0"/></symbol><symbol id="C" overflow="visible"><path d="m5.28125-2.25.859375.203125c-.1875.710937-.515625 1.246094-.984375 1.609375-.460938.3671875-1.023438.546875-1.6875.546875-.6875 0-1.25-.140625-1.6875-.421875s-.773438-.6875-1-1.21875c-.21875-.539062-.328125-1.117188-.328125-1.734375 0-.664063.125-1.25.375-1.75.257813-.5.625-.878906 1.09375-1.140625.46875-.257812.988281-.390625 1.5625-.390625.644531 0 1.1875.167969 1.625.5.4375.324219.738281.78125.90625 1.375l-.828125.203125c-.148438-.46875-.367188-.804688-.65625-1.015625-.28125-.21875-.636719-.328125-1.0625-.328125-.5 0-.917969.121094-1.25.359375-.324219.230469-.554688.546875-.6875.953125-.136719.398438-.203125.808594-.203125 1.234375 0 .542969.078125 1.023437.234375 1.4375.15625.40625.398438.710937.734375.90625.34375.199219.710937.296875 1.109375.296875.46875 0 .867188-.132812 1.203125-.40625.332031-.269531.554687-.675781.671875-1.21875zm0 0"/></symbol><symbol id="D" overflow="visible"><path d="m3.640625 0v-.6875c-.367187.53125-.855469.796875-1.46875.796875-.28125 0-.542969-.0546875-.78125-.15625-.230469-.101563-.40625-.234375-.53125-.390625-.117187-.164062-.195313-.363281-.234375-.59375-.03125-.15625-.046875-.398438-.046875-.734375v-2.890625h.78125v2.578125c0 .417969.015625.699219.046875.84375.050781.199219.15625.359375.3125.484375.164062.117188.367188.171875.609375.171875.238281 0 .457031-.054687.65625-.171875.207031-.125.351563-.289062.4375-.5.09375-.207031.140625-.507812.140625-.90625v-2.5h.796875v4.65625zm0 0"/></symbol><symbol id="E" overflow="visible"><path d="m.59375 1.78125v-6.4375h.71875v.609375c.164062-.238281.351562-.414063.5625-.53125.21875-.125.476562-.1875.78125-.1875.40625 0 .757812.105469 1.0625.3125.300781.199219.53125.484375.6875.859375s.234375.789062.234375 1.234375c0 .46875-.089844.898437-.265625 1.28125-.167969.386719-.417969.683594-.75.890625-.324219.1953125-.664062.296875-1.015625.296875-.261719 0-.5-.0585938-.71875-.171875-.210937-.113281-.382813-.253906-.515625-.421875v2.265625zm.71875-4.078125c0 .59375.117188 1.039063.359375 1.328125.238281.28125.53125.421875.875.421875.351563 0 .65625-.144531.90625-.4375.25-.300781.375-.765625.375-1.390625 0-.59375-.125-1.035156-.375-1.328125-.242187-.289063-.527344-.4375-.859375-.4375-.34375 0-.648438.15625-.90625.46875-.25.3125-.375.773437-.375 1.375zm0 0"/></symbol><symbol id="F" overflow="visible"><path d="m.578125 0v-6.4375h.78125v6.4375zm0 0"/></symbol><symbol id="G" overflow="visible"><path d="m.59375-5.515625v-.921875h.796875v.921875zm0 5.515625v-4.65625h.796875v4.65625zm0 0"/></symbol><symbol id="H" overflow="visible"><path d="m.59375 0v-4.65625h.703125v.65625c.34375-.507812.835937-.765625 1.484375-.765625.28125 0 .535156.054687.765625.15625.238281.09375.414063.226563.53125.390625.125.167969.207031.367188.25.59375.03125.148438.046875.402344.046875.765625v2.859375h-.78125v-2.828125c0-.320313-.03125-.5625-.09375-.71875-.0625-.164063-.171875-.296875-.328125-.390625s-.339844-.140625-.546875-.140625c-.34375 0-.640625.109375-.890625.328125-.242187.210938-.359375.609375-.359375 1.203125v2.546875zm0 0"/></symbol><symbol id="I" overflow="visible"><path d="m.453125.390625.765625.109375c.03125.238281.117188.410156.265625.515625.195313.144531.460937.21875.796875.21875.363281 0 .644531-.074219.84375-.21875.207031-.148437.34375-.351563.40625-.609375.039062-.167969.0625-.5039062.0625-1.015625-.34375.40625-.777344.609375-1.296875.609375-.636719 0-1.132813-.226562-1.484375-.6875-.34375-.46875-.515625-1.023438-.515625-1.671875 0-.4375.078125-.84375.234375-1.21875.15625-.382813.382812-.675781.6875-.875.3125-.207031.675781-.3125 1.09375-.3125.539062 0 .992188.226563 1.359375.671875v-.5625h.71875v4.03125c0 .71875-.074219 1.226562-.21875 1.53125-.148437.300781-.382813.539062-.703125.71875-.324219.175781-.714844.265625-1.171875.265625-.5625 0-1.015625-.125-1.359375-.375-.335938-.25-.496094-.625-.484375-1.125zm.640625-2.796875c0 .605469.117188 1.046875.359375 1.328125.25.28125.554687.421875.921875.421875.363281 0 .664062-.132812.90625-.40625.25-.28125.375-.722656.375-1.328125 0-.5625-.125-.988281-.375-1.28125-.25-.289063-.558594-.4375-.921875-.4375-.34375 0-.640625.148437-.890625.4375-.25.28125-.375.703125-.375 1.265625zm0 0"/></symbol><symbol id="J" overflow="visible"><path d="m.71875 0v-6.4375h.859375v2.640625h3.328125v-2.640625h.859375v6.4375h-.859375v-3.03125h-3.328125v3.03125zm0 0"/></symbol><symbol id="K" overflow="visible"><path d="m.59375 0v-6.4375h.78125v2.3125c.375-.425781.84375-.640625 1.40625-.640625.34375 0 .640625.070313.890625.203125.257813.136719.441406.324219.546875.5625.113281.242188.171875.589844.171875 1.046875v2.953125h-.796875v-2.953125c0-.394531-.089844-.679687-.265625-.859375-.167969-.175781-.40625-.265625-.71875-.265625-.230469 0-.449219.0625-.65625.1875-.210937.117187-.359375.277344-.453125.484375-.085938.210938-.125.496094-.125.859375v2.546875zm0 0"/></symbol><symbol id="L" overflow="visible"><path d="m2.328125 0v-5.671875h-2.125v-.765625h5.109375v.765625h-2.125v5.671875zm0 0"/></symbol><symbol id="M" overflow="visible"><path d="m2.3125-.703125.125.6875c-.230469.0507812-.433594.078125-.609375.078125-.28125 0-.5-.0429688-.65625-.125-.15625-.09375-.273437-.210938-.34375-.359375-.0625-.15625-.09375-.46875-.09375-.9375v-2.6875h-.578125v-.609375h.578125v-1.15625l.78125-.46875v1.625h.796875v.609375h-.796875v2.71875c0 .230469.015625.375.046875.4375s.078125.117187.140625.15625c.0625.042969.148437.0625.265625.0625.082031 0 .195312-.007813.34375-.03125zm0 0"/></symbol><g clip-path="url(#a)"><path d="m0 0h463v92.898438h-463zm0 0" fill="#fff"/></g><path d="m7.998752 1.00162h119.999248v59.997018h-119.999248zm0 0" fill="#f5f5f5" stroke="#636363" transform="matrix(.749191 0 0 .749191 .374595 .374595)"/><g fill="#303030"><g><use height="100%" width="100%" x="34.451073" xlink:href="#c" y="20.977345"/><use height="100%" width="100%" x="40.943573" xlink:href="#d" y="20.977345"/><use height="100%" width="100%" x="46.435204" xlink:href="#e" y="20.977345"/><use height="100%" width="100%" x="54.429008" xlink:href="#f" y="20.977345"/><use height="100%" width="100%" x="59.428982" xlink:href="#g" y="20.977345"/><use height="100%" width="100%" x="61.926773" xlink:href="#h" y="20.977345"/></g><use height="100%" width="100%" x="67.415474" xlink:href="#i" y="20.977345"/><g><use height="100%" width="100%" x="31.466017" xlink:href="#j" y="32.215206"/><use height="100%" width="100%" x="37.958515" xlink:href="#d" y="32.215206"/><use height="100%" width="100%" x="43.450146" xlink:href="#k" y="32.215206"/><use height="100%" width="100%" x="48.941772" xlink:href="#l" y="32.215206"/><use height="100%" width="100%" x="54.433399" xlink:href="#m" y="32.215206"/><use height="100%" width="100%" x="56.93119" xlink:href="#g" y="32.215206"/><use height="100%" width="100%" x="59.428982" xlink:href="#h" y="32.215206"/><use height="100%" width="100%" x="64.920609" xlink:href="#n" y="32.215206"/></g></g><path d="m167.99949 1.00162h119.99925v59.997018h-119.99925zm0 0" fill="#f5f5f5" stroke="#636363" transform="matrix(.749191 0 0 .749191 .374595 .374595)"/><g fill="#303030"><use height="100%" width="100%" x="141.84291" xlink:href="#o" y="20.977345"/><use height="100%" width="100%" x="147.83936" xlink:href="#f" y="20.977345"/><use height="100%" width="100%" x="152.83934" xlink:href="#p" y="20.977345"/><use height="100%" width="100%" x="157.83931" xlink:href="#p" y="20.977345"/><use height="100%" width="100%" x="162.83928" xlink:href="#q" y="20.977345"/><use height="100%" width="100%" x="165.83311" xlink:href="#r" y="20.977345"/><use height="100%" width="100%" x="168.82695" xlink:href="#s" y="20.977345"/><use height="100%" width="100%" x="174.31857" xlink:href="#t" y="20.977345"/><use height="100%" width="100%" x="177.81725" xlink:href="#d" y="20.977345"/><use height="100%" width="100%" x="183.30887" xlink:href="#k" y="20.977345"/><use height="100%" width="100%" x="188.80049" xlink:href="#n" y="20.977345"/><use height="100%" width="100%" x="194.29213" xlink:href="#s" y="20.977345"/></g><use fill="#303030" height="100%" width="100%" x="199.77643" xlink:href="#i" y="20.977345"/><g fill="#303030"><use height="100%" width="100%" x="151.33656" xlink:href="#j" y="32.215206"/><use height="100%" width="100%" x="157.82906" xlink:href="#d" y="32.215206"/><use height="100%" width="100%" x="163.32068" xlink:href="#k" y="32.215206"/><use height="100%" width="100%" x="168.81232" xlink:href="#l" y="32.215206"/><use height="100%" width="100%" x="174.30394" xlink:href="#m" y="32.215206"/><use height="100%" width="100%" x="176.80173" xlink:href="#g" y="32.215206"/><use height="100%" width="100%" x="179.29951" xlink:href="#h" y="32.215206"/><use height="100%" width="100%" x="184.79115" xlink:href="#n" y="32.215206"/></g><path d="m328.00023 1.00162h119.99925v59.997018h-119.99925zm0 0" fill="#f5f5f5" stroke="#636363" transform="matrix(.749191 0 0 .749191 .374595 .374595)"/><g fill="#303030"><use height="100%" width="100%" x="271.20709" xlink:href="#j" y="20.977345"/><use height="100%" width="100%" x="277.69958" xlink:href="#d" y="20.977345"/><use height="100%" width="100%" x="283.19122" xlink:href="#e" y="20.977345"/><use height="100%" width="100%" x="291.18503" xlink:href="#e" y="20.977345"/><use height="100%" width="100%" x="299.17883" xlink:href="#d" y="20.977345"/><use height="100%" width="100%" x="304.67047" xlink:href="#h" y="20.977345"/></g><use fill="#303030" height="100%" width="100%" x="310.15332" xlink:href="#i" y="20.977345"/><g fill="#303030"><use height="100%" width="100%" x="271.20709" xlink:href="#j" y="32.215206"/><use height="100%" width="100%" x="277.69958" xlink:href="#d" y="32.215206"/><use height="100%" width="100%" x="283.19122" xlink:href="#k" y="32.215206"/><use height="100%" width="100%" x="288.68286" xlink:href="#l" y="32.215206"/><use height="100%" width="100%" x="294.17447" xlink:href="#m" y="32.215206"/><use height="100%" width="100%" x="296.67227" xlink:href="#g" y="32.215206"/><use height="100%" width="100%" x="299.17007" xlink:href="#h" y="32.215206"/><use height="100%" width="100%" x="304.66168" xlink:href="#n" y="32.215206"/></g><path d="m488.00097 1.00162h119.99925v59.997018h-119.99925zm0 0" fill="#f5f5f5" stroke="#636363" transform="matrix(.749191 0 0 .749191 .374595 .374595)"/><g fill="#303030"><use height="100%" width="100%" x="393.57104" xlink:href="#j" y="20.977345"/><use height="100%" width="100%" x="400.06354" xlink:href="#d" y="20.977345"/><use height="100%" width="100%" x="405.55518" xlink:href="#h" y="20.977345"/><use height="100%" width="100%" x="411.04681" xlink:href="#r" y="20.977345"/><use height="100%" width="100%" x="414.04065" xlink:href="#u" y="20.977345"/><use height="100%" width="100%" x="419.04062" xlink:href="#h" y="20.977345"/><use height="100%" width="100%" x="424.53223" xlink:href="#r" y="20.977345"/></g><use fill="#303030" height="100%" width="100%" x="427.51877" xlink:href="#i" y="20.977345"/><g fill="#303030"><use height="100%" width="100%" x="391.07764" xlink:href="#j" y="32.215206"/><use height="100%" width="100%" x="397.57013" xlink:href="#d" y="32.215206"/><use height="100%" width="100%" x="403.06177" xlink:href="#k" y="32.215206"/><use height="100%" width="100%" x="408.55341" xlink:href="#l" y="32.215206"/><use height="100%" width="100%" x="414.04501" xlink:href="#m" y="32.215206"/><use height="100%" width="100%" x="416.54282" xlink:href="#g" y="32.215206"/><use height="100%" width="100%" x="419.04062" xlink:href="#h" y="32.215206"/><use height="100%" width="100%" x="424.53223" xlink:href="#n" y="32.215206"/></g><path d="m7.998752 80.999382h593.630008" fill="none" stroke="#000" stroke-miterlimit="10" transform="matrix(.749191 0 0 .749191 .374595 .374595)"/><path d="m455.04297 61.058594-5.24219 2.621094 1.30859-2.621094-1.30859-2.621094zm0 0"/><g clip-path="url(#b)"><path d="m606.87922 80.999382-6.99714 3.498566 1.74668-3.498566-1.74668-3.498566zm0 0" fill="none" stroke="#000" stroke-miterlimit="10" transform="matrix(.749191 0 0 .749191 .374595 .374595)"/></g><g><use height="100%" width="100%" x="7.491909" xlink:href="#v" y="82.410995"/><use height="100%" width="100%" x="12.49188" xlink:href="#w" y="82.410995"/><use height="100%" width="100%" x="17.491852" xlink:href="#x" y="82.410995"/><use height="100%" width="100%" x="23.98435" xlink:href="#y" y="82.410995"/><use height="100%" width="100%" x="26.482141" xlink:href="#z" y="82.410995"/><use height="100%" width="100%" x="28.979933" xlink:href="#y" y="82.410995"/><use height="100%" width="100%" x="31.477722" xlink:href="#v" y="82.410995"/><use height="100%" width="100%" x="36.477695" xlink:href="#w" y="82.410995"/><use height="100%" width="100%" x="41.477665" xlink:href="#w" y="82.410995"/><use height="100%" width="100%" x="46.477634" xlink:href="#A" y="82.410995"/><use height="100%" width="100%" x="50.972782" xlink:href="#B" y="82.410995"/><use height="100%" width="100%" x="55.972752" xlink:href="#y" y="82.410995"/><use height="100%" width="100%" x="58.470543" xlink:href="#C" y="82.410995"/><use height="100%" width="100%" x="64.963043" xlink:href="#w" y="82.410995"/><use height="100%" width="100%" x="69.963013" xlink:href="#D" y="82.410995"/><use height="100%" width="100%" x="74.96299" xlink:href="#E" y="82.410995"/><use height="100%" width="100%" x="79.962959" xlink:href="#F" y="82.410995"/><use height="100%" width="100%" x="81.960312" xlink:href="#G" y="82.410995"/><use height="100%" width="100%" x="83.957664" xlink:href="#H" y="82.410995"/><use height="100%" width="100%" x="88.957634" xlink:href="#I" y="82.410995"/></g><g><use height="100%" width="100%" x="370.39294" xlink:href="#J" y="82.410995"/><use height="100%" width="100%" x="376.88544" xlink:href="#G" y="82.410995"/><use height="100%" width="100%" x="378.88281" xlink:href="#I" y="82.410995"/><use height="100%" width="100%" x="383.88278" xlink:href="#K" y="82.410995"/><use height="100%" width="100%" x="388.88275" xlink:href="#y" y="82.410995"/><use height="100%" width="100%" x="391.38055" xlink:href="#z" y="82.410995"/><use height="100%" width="100%" x="393.87833" xlink:href="#y" y="82.410995"/><use height="100%" width="100%" x="396.37613" xlink:href="#L" y="82.410995"/></g><g><use height="100%" width="100%" x="401.53412" xlink:href="#G" y="82.410995"/><use height="100%" width="100%" x="403.53146" xlink:href="#I" y="82.410995"/><use height="100%" width="100%" x="408.53146" xlink:href="#K" y="82.410995"/><use height="100%" width="100%" x="413.53143" xlink:href="#M" y="82.410995"/><use height="100%" width="100%" x="416.02921" xlink:href="#y" y="82.410995"/><use height="100%" width="100%" x="418.52701" xlink:href="#C" y="82.410995"/><use height="100%" width="100%" x="425.0195" xlink:href="#w" y="82.410995"/><use height="100%" width="100%" x="430.01947" xlink:href="#D" y="82.410995"/><use height="100%" width="100%" x="435.01944" xlink:href="#E" y="82.410995"/><use height="100%" width="100%" x="440.01941" xlink:href="#F" y="82.410995"/><use height="100%" width="100%" x="442.01678" xlink:href="#G" y="82.410995"/><use height="100%" width="100%" x="444.01413" xlink:href="#H" y="82.410995"/><use height="100%" width="100%" x="449.0141" xlink:href="#I" y="82.410995"/></g></svg>