<svg height="288.95999pt" viewBox="0 0 781.91998 288.95999" width="781.91998pt" xmlns="http://www.w3.org/2000/svg" xmlns:xlink="http://www.w3.org/1999/xlink"><defs><clipPath id="a"><path d="m0 0h781.921875v288.65625h-781.921875zm0 0"/></clipPath><clipPath id="b"><path d="m690 98h91.921875v31h-91.921875zm0 0"/></clipPath><clipPath id="c"><path d="m690 158h91.921875v31h-91.921875zm0 0"/></clipPath><clipPath id="d"><path d="m690 218h91.921875v31h-91.921875zm0 0"/></clipPath><g id="e"><path d="m.65625 0v-6.4375h.859375v5.671875h3.171875v.765625zm0 0"/></g><g id="f"><path d="m3.78125-1.5.828125.09375c-.136719.480469-.382812.855469-.734375 1.125-.34375.2617187-.789062.390625-1.328125.390625-.679687 0-1.21875-.2070313-1.625-.625-.398437-.425781-.59375-1.019531-.59375-1.78125 0-.78125.203125-1.382813.609375-1.8125.40625-.4375.929688-.65625 1.578125-.65625.625 0 1.128906.214844 1.515625.640625.394531.417969.59375 1.011719.59375 1.78125v.21875h-3.484375c.03125.511719.175781.902344.4375 1.171875.257813.273437.585938.40625.984375.40625.289063 0 .535156-.070313.734375-.21875.207031-.15625.367188-.398438.484375-.734375zm-2.59375-1.28125h2.609375c-.03125-.394531-.132812-.691406-.296875-.890625-.25-.300781-.578125-.453125-.984375-.453125-.367187 0-.671875.125-.921875.375-.242187.242187-.375.5625-.40625.96875zm0 0"/></g><g id="g"><path d="m.453125.390625.765625.109375c.03125.238281.117188.410156.265625.515625.195313.144531.46875.21875.8125.21875.363281 0 .644531-.074219.84375-.21875.195313-.148437.332031-.351562.40625-.609375.039063-.167969.054688-.5039063.046875-1.015625-.34375.40625-.773437.609375-1.28125.609375-.648437 0-1.148437-.226563-1.5-.6875-.34375-.46875-.515625-1.023438-.515625-1.671875 0-.445313.078125-.859375.234375-1.234375.164063-.375.398438-.660156.703125-.859375.300781-.207031.660156-.3125 1.078125-.3125.550781 0 1.003906.21875 1.359375.65625v-.5625h.734375v4.03125c0 .7265625-.078125 1.242188-.234375 1.546875-.148437.300781-.382812.539063-.703125.71875-.3125.175781-.703125.265625-1.171875.265625-.5625 0-1.015625-.125-1.359375-.375-.335937-.25-.496094-.625-.484375-1.125zm.65625-2.8125c0 .617187.117188 1.0625.359375 1.34375.238281.28125.539063.421875.90625.421875.363281 0 .671875-.140625.921875-.421875s.375-.71875.375-1.3125c0-.570313-.132812-1.003906-.390625-1.296875-.25-.289063-.554687-.4375-.90625-.4375-.355469 0-.65625.148437-.90625.4375-.242187.28125-.359375.703125-.359375 1.265625zm0 0"/></g><g id="h"><path d="m3.640625-.578125c-.292969.25-.574219.429687-.84375.53125-.273437.1015625-.5625.15625-.875.15625-.511719 0-.90625-.125-1.1875-.375-.273437-.25-.40625-.570313-.40625-.96875 0-.226563.050781-.4375.15625-.625.101563-.1875.238281-.335938.40625-.453125.164063-.113281.351563-.203125.5625-.265625.15625-.03125.390625-.066406.703125-.109375.644531-.070313 1.117188-.164063 1.421875-.28125 0-.101563 0-.171875 0-.203125 0-.320313-.074219-.546875-.21875-.671875-.210937-.1875-.511719-.28125-.90625-.28125-.375 0-.652344.070312-.828125.203125-.179687.125-.308594.355469-.390625.6875l-.765625-.09375c.0625-.332031.171875-.597656.328125-.796875.164063-.207031.398438-.363281.703125-.46875.3125-.113281.664063-.171875 1.0625-.171875.40625 0 .726563.046875.96875.140625.25.09375.429688.214844.546875.359375.125.136719.207031.3125.25.53125.03125.136719.046875.375.046875.71875v1.0625c0 .730469.015625 1.195312.046875 1.390625.03125.199219.097656.386719.203125.5625h-.828125c-.085937-.164063-.136719-.359375-.15625-.578125zm-.0625-1.765625c-.292969.117187-.726562.214844-1.296875.296875-.324219.054687-.554687.109375-.6875.171875-.136719.054687-.242187.136719-.3125.25-.074219.117187-.109375.242187-.109375.375 0 .210937.078125.386719.234375.53125.15625.136719.390625.203125.703125.203125.300781 0 .570313-.066406.8125-.203125.238281-.132813.414063-.316406.53125-.546875.082031-.175781.125-.4375.125-.78125zm0 0"/></g><g id="i"><path d="m3.640625-1.703125.78125.09375c-.085937.542969-.304687.964844-.65625 1.265625-.355469.3046875-.789062.453125-1.296875.453125-.636719 0-1.148437-.2070313-1.53125-.625-.386719-.414063-.578125-1.015625-.578125-1.796875 0-.507813.082031-.953125.25-1.328125.164063-.375.414063-.65625.75-.84375.34375-.1875.71875-.28125 1.125-.28125.5 0 .910156.132812 1.234375.390625.320313.25.53125.609375.625 1.078125l-.765625.125c-.074219-.3125-.203125-.546875-.390625-.703125-.1875-.164063-.414062-.25-.671875-.25-.40625 0-.734375.148437-.984375.4375-.242187.28125-.359375.730469-.359375 1.34375 0 .636719.117188 1.09375.359375 1.375.238281.28125.550781.421875.9375.421875.3125 0 .570313-.09375.78125-.28125.207031-.1875.335938-.476563.390625-.875zm0 0"/></g><g id="j"><path d="m.5625 1.796875-.09375-.734375c.175781.039063.328125.0625.453125.0625.175781 0 .316406-.03125.421875-.09375.101563-.054687.191406-.132812.265625-.234375.039063-.085937.117188-.28125.234375-.59375.019531-.042969.046875-.1054687.078125-.1875l-1.78125-4.6875h.859375l.96875 2.703125c.125.34375.238281.703125.34375 1.078125.082031-.351563.1875-.707031.3125-1.0625l1-2.71875h.796875l-1.78125 4.75c-.1875.507813-.335937.863281-.4375 1.0625-.148437.257813-.308594.445313-.484375.5625-.179687.125-.398437.1875-.65625.1875-.148437 0-.3125-.03125-.5-.09375zm0 0"/></g><g id="k"><path d="m.40625-2.0625.796875-.078125c.039063.324219.128906.589844.265625.796875.144531.210937.363281.375.65625.5.289063.125.617188.1875.984375.1875.320313 0 .609375-.046875.859375-.140625s.4375-.222656.5625-.390625c.125-.175781.1875-.363281.1875-.5625 0-.195313-.0625-.367188-.1875-.515625-.117187-.15625-.308594-.285156-.578125-.390625-.167969-.070313-.546875-.175781-1.140625-.3125-.59375-.144531-1.011719-.28125-1.25-.40625-.304687-.15625-.53125-.351563-.6875-.59375-.148437-.238281-.21875-.507813-.21875-.8125 0-.320313.085938-.625.265625-.90625.1875-.28125.457031-.492188.8125-.640625.351563-.144531.75-.21875 1.1875-.21875.476563 0 .898438.078125 1.265625.234375.363281.148437.640625.371094.828125.671875.195313.304687.304688.640625.328125 1.015625l-.828125.0625c-.042969-.40625-.1875-.710938-.4375-.921875-.25-.207031-.625-.3125-1.125-.3125-.511719 0-.886719.09375-1.125.28125-.242187.1875-.359375.417969-.359375.6875 0 .230469.082031.417969.25.5625.164063.15625.59375.3125 1.28125.46875.695313.15625 1.175781.292969 1.4375.40625.375.167969.648438.386719.828125.65625.175781.261719.265625.570312.265625.921875 0 .335937-.101562.65625-.296875.96875-.199219.304687-.480469.539062-.84375.703125-.367187.1640625-.777344.25-1.234375.25-.585937 0-1.074219-.0859375-1.46875-.25-.398437-.175781-.710937-.429688-.9375-.765625-.21875-.34375-.335937-.726563-.34375-1.15625zm0 0"/></g><g id="l"><path d="m.28125-1.390625.78125-.125c.039063.3125.160156.554687.359375.71875.207031.167969.488281.25.84375.25.363281 0 .632813-.070313.8125-.21875.175781-.144531.265625-.316406.265625-.515625 0-.1875-.078125-.328125-.234375-.421875-.117187-.070313-.386719-.164063-.8125-.28125-.585937-.144531-.992187-.269531-1.21875-.375-.21875-.101563-.386719-.25-.5-.4375-.117187-.1875-.171875-.394531-.171875-.625 0-.207031.046875-.398438.140625-.578125.09375-.175781.222656-.328125.390625-.453125.125-.082031.289063-.15625.5-.21875.21875-.0625.445313-.09375.6875-.09375.363281 0 .679688.054687.953125.15625.28125.105469.488281.246094.625.421875.132813.179687.226563.417969.28125.71875l-.78125.109375c-.03125-.238281-.136719-.425781-.3125-.5625-.167969-.132813-.402344-.203125-.703125-.203125-.367187 0-.625.0625-.78125.1875-.15625.117187-.234375.257812-.234375.421875 0 .105469.03125.195312.09375.265625.0625.09375.164063.167969.3125.21875.070313.03125.300781.101562.6875.203125.5625.148437.953125.265625 1.171875.359375.226563.09375.40625.234375.53125.421875.125.179687.1875.402344.1875.671875 0 .273437-.078125.523437-.234375.75-.15625.230469-.382812.414062-.671875.546875-.28125.125-.609375.1875-.984375.1875-.605469 0-1.070312-.125-1.390625-.375-.3125-.257813-.511719-.632813-.59375-1.125zm0 0"/></g><g id="m"><path d="m2.328125-.703125.109375.6875c-.230469.0507813-.429687.078125-.59375.078125-.292969 0-.515625-.046875-.671875-.140625s-.273437-.210938-.34375-.359375c-.0625-.144531-.09375-.453125-.09375-.921875v-2.6875h-.578125v-.625h.578125v-1.15625l.796875-.46875v1.625h.796875v.625h-.796875v2.71875c0 .230469.007813.375.03125.4375.03125.0625.078125.117187.140625.15625.0625.042969.148438.0625.265625.0625.09375 0 .210938-.007813.359375-.03125zm0 0"/></g><g id="n"><path d="m.59375 0v-4.671875h.703125v.65625c.144531-.226563.335938-.410156.578125-.546875.25-.132813.53125-.203125.84375-.203125.34375 0 .625.074219.84375.21875.21875.136719.375.335937.46875.59375.375-.539063.851563-.8125 1.4375-.8125.46875 0 .828125.132812 1.078125.390625.25.25.375.640625.375 1.171875v3.203125h-.796875v-2.9375c0-.320313-.027344-.550781-.078125-.6875-.042969-.132813-.132812-.242188-.265625-.328125-.136719-.09375-.296875-.140625-.484375-.140625-.324219 0-.59375.109375-.8125.328125s-.328125.570312-.328125 1.046875v2.71875h-.796875v-3.03125c0-.351563-.0625-.617188-.1875-.796875-.125-.175781-.335937-.265625-.625-.265625-.230469 0-.4375.0625-.625.1875-.1875.117187-.324219.289062-.40625.515625-.085937.21875-.125.542969-.125.96875v2.421875zm0 0"/></g><g id="o"><path d="m.296875-2.328125c0-.863281.238281-1.503906.71875-1.921875.40625-.34375.894531-.515625 1.46875-.515625.644531 0 1.171875.210937 1.578125.625.40625.417969.609375.996094.609375 1.734375 0 .605469-.09375 1.078125-.28125 1.421875-.179687.34375-.4375.617187-.78125.8125-.34375.1875-.71875.28125-1.125.28125-.65625 0-1.1875-.2070313-1.59375-.625-.398437-.425781-.59375-1.03125-.59375-1.8125zm.8125 0c0 .59375.128906 1.042969.390625 1.34375.257813.292969.585938.4375.984375.4375.394531 0 .722656-.144531.984375-.4375.257813-.300781.390625-.757813.390625-1.375 0-.570313-.132812-1.007813-.390625-1.3125-.261719-.300781-.589844-.453125-.984375-.453125-.398437 0-.726562.152344-.984375.453125-.261719.292969-.390625.742187-.390625 1.34375zm0 0"/></g><g id="p"><path d="m.578125 0v-4.671875h.71875v.71875c.175781-.332031.34375-.550781.5-.65625.15625-.101563.328125-.15625.515625-.15625.257813 0 .53125.085937.8125.25l-.28125.734375c-.1875-.113281-.382812-.171875-.578125-.171875-.167969 0-.324219.054687-.46875.15625-.136719.105469-.234375.25-.296875.4375-.085937.28125-.125.589844-.125.921875v2.4375zm0 0"/></g><g id="q"><path d="m.59375 0v-6.4375h.796875v2.3125c.363281-.425781.828125-.640625 1.390625-.640625.34375 0 .640625.070312.890625.203125.257813.136719.441406.324219.546875.5625.113281.242187.171875.589844.171875 1.046875v2.953125h-.78125v-2.953125c0-.394531-.089844-.679688-.265625-.859375-.167969-.1875-.40625-.28125-.71875-.28125-.242187 0-.464844.0625-.671875.1875-.210937.117187-.355469.277344-.4375.484375-.085937.210937-.125.5-.125.875v2.546875zm0 0"/></g><g id="r"><path d="m3.625 0v-.59375c-.304687.46875-.742187.703125-1.3125.703125-.367187 0-.703125-.10546875-1.015625-.3125-.3125-.207031-.558594-.492188-.734375-.859375-.167969-.363281-.25-.785156-.25-1.265625 0-.46875.078125-.890625.234375-1.265625.15625-.382813.382813-.675781.6875-.875.3125-.195313.660156-.296875 1.046875-.296875.28125 0 .53125.058594.75.171875.21875.117187.394531.273437.53125.46875v-2.3125h.796875v6.4375zm-2.5-2.328125c0 .59375.125 1.042969.375 1.34375.25.292969.546875.4375.890625.4375s.632813-.140625.875-.421875c.25-.28125.375-.710938.375-1.296875 0-.632813-.125-1.101563-.375-1.40625-.25-.300781-.554687-.453125-.90625-.453125-.355469 0-.652344.148437-.890625.4375-.230469.292969-.34375.746094-.34375 1.359375zm0 0"/></g><g id="s"><path d="m3.359375 0h-.796875v-5.046875c-.1875.1875-.4375.375-.75.5625-.3125.179687-.589844.308594-.828125.390625v-.765625c.4375-.195313.820313-.441406 1.15625-.734375.332031-.300781.566406-.59375.703125-.875h.515625zm0 0"/></g><g id="t"><path d="m4.53125-.765625v.765625h-4.265625c0-.1875.03125-.367188.09375-.546875.113281-.289063.289063-.578125.53125-.859375.238281-.28125.582031-.601563 1.03125-.96875.695313-.582031 1.164063-1.039063 1.40625-1.375.25-.332031.375-.648438.375-.953125 0-.3125-.117187-.570313-.34375-.78125-.21875-.21875-.507812-.328125-.859375-.328125-.386719 0-.695312.117187-.921875.34375-.230469.230469-.34375.546875-.34375.953125l-.8125-.09375c.050781-.601563.257813-1.0625.625-1.375.363281-.320313.851563-.484375 1.46875-.484375.613281 0 1.097656.171875 1.453125.515625.363281.34375.546875.765625.546875 1.265625 0 .261719-.054687.515625-.15625.765625-.105469.25-.28125.515625-.53125.796875-.242187.273437-.640625.648437-1.203125 1.125-.480469.398437-.789062.667969-.921875.8125-.136719.148437-.246094.289062-.328125.421875zm0 0"/></g><g id="u"><path d="m.6875 0v-6.4375h2.21875c.507813 0 .894531.03125 1.15625.09375.363281.085937.675781.234375.9375.453125.34375.292969.597656.664062.765625 1.109375.164063.4375.25.949219.25 1.53125 0 .492187-.058594.921875-.171875 1.296875-.117187.375-.261719.6875-.4375.9375-.179687.25-.375.449219-.59375.59375-.210937.136719-.464844.242187-.765625.3125-.292969.0742187-.636719.109375-1.03125.109375zm.859375-.765625h1.375c.425781 0 .757813-.035156 1-.109375.238281-.082031.429688-.195313.578125-.34375.195313-.195313.351563-.46875.46875-.8125.113281-.34375.171875-.753906.171875-1.234375 0-.675781-.109375-1.191406-.328125-1.546875-.21875-.363281-.492187-.609375-.8125-.734375-.230469-.09375-.59375-.140625-1.09375-.140625h-1.359375zm0 0"/></g><g id="v"><path d="m3.65625 0v-.6875c-.367187.53125-.859375.796875-1.484375.796875-.273437 0-.527344-.0546875-.765625-.15625-.242187-.113281-.421875-.25-.546875-.40625-.117187-.15625-.195312-.347656-.234375-.578125-.03125-.15625-.046875-.40625-.046875-.75v-2.890625h.78125v2.59375c0 .417969.019531.695312.0625.828125.039063.210937.140625.375.296875.5.164063.117187.367188.171875.609375.171875.238281 0 .460938-.054688.671875-.171875.207031-.125.351563-.289063.4375-.5.082031-.207031.125-.515625.125-.921875v-2.5h.796875v4.671875zm0 0"/></g><g id="w"><path d="m.59375-5.53125v-.90625h.796875v.90625zm0 5.53125v-4.671875h.796875v4.671875zm0 0"/></g><g id="x"><path d="m.59375 0v-4.671875h.71875v.671875c.332031-.507813.828125-.765625 1.484375-.765625.28125 0 .535156.054687.765625.15625.238281.09375.414063.226562.53125.390625.113281.15625.195313.351562.25.578125.03125.148437.046875.402344.046875.765625v2.875h-.796875v-2.84375c0-.320313-.03125-.5625-.09375-.71875s-.171875-.28125-.328125-.375c-.15625-.101563-.339844-.15625-.546875-.15625-.335937 0-.625.109375-.875.328125-.242187.210937-.359375.617187-.359375 1.21875v2.546875zm0 0"/></g><g id="y"><path d="m.796875 0v-.90625h.90625v.90625c0 .332031-.0625.597656-.1875.796875-.117187.207031-.296875.367188-.546875.484375l-.21875-.34375c.164063-.074219.285156-.183594.359375-.328125.082031-.136719.128906-.339844.140625-.609375zm0 0"/></g><g id="z"><path d="m.71875 0v-6.4375h4.65625v.75h-3.8125v1.984375h3.5625v.75h-3.5625v2.1875h3.953125v.765625zm0 0"/></g><g id="A"><path d="m.78125 0v-4.046875h-.703125v-.625h.703125v-.484375c0-.320313.023438-.554688.078125-.703125.082031-.207031.21875-.375.40625-.5.195313-.125.46875-.1875.8125-.1875.21875 0 .460938.027344.734375.078125l-.125.6875c-.15625-.03125-.308594-.046875-.453125-.046875-.242187 0-.414062.054687-.515625.15625-.105469.105469-.15625.296875-.15625.578125v.421875h.921875v.625h-.921875v4.046875zm0 0"/></g><g id="B"><path d="m1.890625 0-1.78125-4.671875h.84375l1 2.796875c.101563.304687.203125.617187.296875.9375.070313-.238281.171875-.53125.296875-.875l1.03125-2.859375h.8125l-1.765625 4.671875zm0 0"/></g><g id="C"><path d="m.578125 0v-6.4375h.78125v6.4375zm0 0"/></g><g id="D"><path d="m.59375 1.78125v-6.453125h.71875v.609375c.164063-.238281.351563-.414063.5625-.53125.21875-.113281.484375-.171875.796875-.171875.394531 0 .742188.105469 1.046875.3125.300781.199219.53125.484375.6875.859375s.234375.78125.234375 1.21875c0 .480469-.089844.914062-.265625 1.296875-.167969.386719-.414062.683594-.734375.890625-.324219.1953125-.667969.296875-1.03125.296875-.261719 0-.496094-.0585937-.703125-.171875-.210937-.113281-.382812-.253906-.515625-.421875v2.265625zm.71875-4.09375c0 .605469.117188 1.054687.359375 1.34375.25.28125.546875.421875.890625.421875s.640625-.144531.890625-.4375c.257813-.300781.390625-.765625.390625-1.390625 0-.59375-.125-1.035156-.375-1.328125-.242187-.300781-.53125-.453125-.875-.453125-.335937 0-.632812.164062-.890625.484375-.261719.3125-.390625.765625-.390625 1.359375zm0 0"/></g><g id="E"><path d="m1.328125 0h-.734375v-6.4375h.78125v2.296875c.332031-.414063.757813-.625 1.28125-.625.289063 0 .5625.058594.8125.171875.257813.117187.472656.277344.640625.484375.164063.210937.296875.464844.390625.765625.09375.292969.140625.605469.140625.9375 0 .804687-.199219 1.421875-.59375 1.859375-.398437.4375-.871094.65625-1.421875.65625-.554687 0-.984375-.226563-1.296875-.6875zm-.015625-2.375c0 .5625.078125.96875.234375 1.21875.25.40625.582031.609375 1 .609375.351563 0 .65625-.148438.90625-.453125.25-.300781.375-.75.375-1.34375 0-.601563-.121094-1.050781-.359375-1.34375-.242187-.289063-.53125-.4375-.875-.4375-.355469 0-.65625.152344-.90625.453125-.25.304687-.375.734375-.375 1.296875zm0 0"/></g><g id="F"><path d="m3.34375-1.484375 1.234375.203125c-.15625.449219-.40625.792969-.75 1.03125-.34375.2421875-.773437.359375-1.28125.359375-.8125 0-1.414062-.265625-1.796875-.796875-.3125-.425781-.46875-.960938-.46875-1.609375 0-.769531.203125-1.375.609375-1.8125s.914063-.65625 1.53125-.65625c.695313 0 1.242188.230469 1.640625.6875.40625.460937.597656 1.15625.578125 2.09375h-3.09375c.007813.375.109375.667969.296875.875.195313.199219.4375.296875.71875.296875.195313 0 .359375-.050781.484375-.15625.132813-.113281.234375-.285156.296875-.515625zm.078125-1.25c-.011719-.351563-.105469-.625-.28125-.8125-.179687-.1875-.390625-.28125-.640625-.28125-.273437 0-.496094.101562-.671875.296875-.179687.199219-.261719.464844-.25.796875zm0 0"/></g><g id="G"><path d="m3.71875 0v-.703125c-.167969.25-.390625.449219-.671875.59375-.28125.1445313-.574219.21875-.875.21875-.3125 0-.59375-.0703125-.84375-.203125-.25-.144531-.433594-.34375-.546875-.59375-.105469-.25-.15625-.59375-.15625-1.03125v-2.953125h1.234375v2.15625c0 .65625.019531 1.058594.0625 1.203125.039063.148437.117188.265625.234375.359375.125.085937.28125.125.46875.125.207031 0 .394531-.054688.5625-.171875.175781-.125.289063-.269531.34375-.4375.0625-.175781.09375-.597656.09375-1.265625v-1.96875h1.234375v4.671875zm0 0"/></g><g id="H"><path d="m2.78125-4.671875v.984375h-.84375v1.890625c0 .375.003906.59375.015625.65625.019531.0625.054688.117187.109375.15625.0625.042969.132813.0625.21875.0625.113281 0 .28125-.035156.5-.109375l.109375.953125c-.292969.125-.621094.1875-.984375.1875-.21875 0-.417969-.0390625-.59375-.109375-.179687-.0820313-.308594-.179688-.390625-.296875-.085937-.113281-.140625-.273438-.171875-.484375-.03125-.144531-.046875-.429688-.046875-.859375v-2.046875h-.5625v-.984375h.5625v-.921875l1.234375-.71875v1.640625zm0 0"/></g><g id="I"><path d="m.5-1.71875v-1.234375h2.4375v1.234375zm0 0"/></g><g id="J"><path d="m.65625-6.4375h2.375c.53125 0 .9375.042969 1.21875.125.382813.105469.707031.304687.96875.59375.269531.28125.472656.632812.609375 1.046875.144531.40625.21875.914062.21875 1.515625 0 .53125-.0625.992187-.1875 1.375-.167969.46875-.402344.84375-.703125 1.125-.21875.21875-.523437.390625-.90625.515625-.292969.09375-.679687.140625-1.15625.140625h-2.4375zm1.296875 1.078125v4.28125h.96875c.363281 0 .625-.019531.78125-.0625.21875-.050781.394531-.140625.53125-.265625.132813-.132813.242188-.34375.328125-.625.09375-.289063.140625-.6875.140625-1.1875s-.046875-.878906-.140625-1.140625c-.085937-.269531-.203125-.476563-.359375-.625-.15625-.15625-.355469-.257813-.59375-.3125-.1875-.039063-.546875-.0625-1.078125-.0625zm0 0"/></g><g id="K"><path d="m1.828125 0h-1.234375v-4.671875h1.140625v.671875c.195313-.3125.375-.515625.53125-.609375.15625-.101563.332031-.15625.53125-.15625.28125 0 .550781.074219.8125.21875l-.375 1.078125c-.210937-.132813-.402344-.203125-.578125-.203125-.179687 0-.328125.054687-.453125.15625-.117187.09375-.210937.265625-.28125.515625-.0625.25-.09375.773437-.09375 1.5625zm0 0"/></g><g id="L"><path d="m.640625-5.296875v-1.140625h1.234375v1.140625zm0 5.296875v-4.671875h1.234375v4.671875zm0 0"/></g><g id="M"><path d="m1.921875 0-1.875-4.671875h1.296875l.875 2.390625.265625.796875c.0625-.207031.101563-.34375.125-.40625.039063-.132813.082031-.265625.125-.390625l.890625-2.390625h1.265625l-1.84375 4.671875zm0 0"/></g><g id="N"><path d="m4.890625 0h-1.234375v-2.375c0-.507813-.027344-.835938-.078125-.984375-.054687-.144531-.140625-.257813-.265625-.34375-.117187-.082031-.257812-.125-.421875-.125-.210937 0-.402344.0625-.578125.1875-.167969.117187-.28125.273437-.34375.46875-.0625.1875-.09375.542969-.09375 1.0625v2.109375h-1.234375v-4.671875h1.140625v.6875c.40625-.519531.921875-.78125 1.546875-.78125.269531 0 .515625.046875.734375.140625.226563.09375.398438.21875.515625.375.113281.15625.191406.335937.234375.53125.050781.1875.078125.460937.078125.8125zm0 0"/></g><g id="O"><path d="m6.46875 0h-1.421875l-.5625-1.46875h-2.578125l-.53125 1.46875h-1.375l2.515625-6.4375h1.375zm-2.40625-2.546875-.875-2.390625-.875 2.390625zm0 0"/></g><g id="P"><path d="m4.71875-3.28125-1.21875.21875c-.042969-.25-.136719-.429688-.28125-.546875-.148437-.125-.335937-.1875-.5625-.1875-.3125 0-.5625.105469-.75.3125-.179687.210937-.265625.5625-.265625 1.0625 0 .554687.09375.945312.28125 1.171875.1875.230469.4375.34375.75.34375.238281 0 .429688-.0625.578125-.1875.144531-.132813.25-.363281.3125-.6875l1.21875.203125c-.125.554687-.371094.976562-.734375 1.265625-.355469.28125-.835937.421875-1.4375.421875-.679687 0-1.21875-.210938-1.625-.640625-.40625-.4375-.609375-1.035156-.609375-1.796875 0-.769531.203125-1.367188.609375-1.796875.40625-.425781.957031-.640625 1.65625-.640625.5625 0 1.007813.125 1.34375.375.34375.242187.585938.609375.734375 1.109375zm0 0"/></g><g id="Q"><path d="m1.875-6.4375v2.359375c.394531-.457031.875-.6875 1.4375-.6875.28125 0 .535156.054687.765625.15625.226563.105469.398438.242187.515625.40625.113281.15625.191406.339844.234375.546875.039063.199219.0625.507812.0625.921875v2.734375h-1.234375v-2.46875c0-.488281-.027344-.796875-.078125-.921875-.042969-.132813-.125-.238281-.25-.3125-.117187-.082031-.261719-.125-.4375-.125-.210937 0-.398437.054687-.5625.15625-.15625.09375-.273437.246094-.34375.453125-.074219.199219-.109375.492187-.109375.875v2.34375h-1.234375v-6.4375zm0 0"/></g></defs><g clip-path="url(#a)"><path d="m0 0h782v288.65625h-782zm0 0" fill="#fff"/></g><path d="m129.119555 231.001077h31.879981v-79.999528h31.879981" fill="none" stroke="#000" stroke-miterlimit="10" transform="matrix(.74976 0 0 .74976 .37488 .37488)"/><path d="m122.122527 231.001077 6.997028-3.501119v7.002238zm0 0" stroke="#000" stroke-miterlimit="10" transform="matrix(.74976 0 0 .74976 .37488 .37488)"/><path d="m199.881755 151.001549-7.002238 3.495909v-6.997028zm0 0" stroke="#000" stroke-miterlimit="10" transform="matrix(.74976 0 0 .74976 .37488 .37488)"/><path d="m1.00048 201.001905h120.001897v59.998344h-120.001897zm0 0" fill="none" stroke="#000" transform="matrix(.74976 0 0 .74976 .37488 .37488)"/><g><use x="14.983491" xlink:href="#e" y="170.94534"/><use x="19.987263" xlink:href="#f" y="170.94534"/><use x="24.991034" xlink:href="#g" y="170.94534"/><use x="29.994804" xlink:href="#h" y="170.94534"/><use x="34.998573" xlink:href="#i" y="170.94534"/><use x="39.497135" xlink:href="#j" y="170.94534"/><use x="46.495388" xlink:href="#k" y="170.94534"/><use x="52.496399" xlink:href="#j" y="170.94534"/><use x="56.994961" xlink:href="#l" y="170.94534"/><use x="61.493523" xlink:href="#m" y="170.94534"/><use x="63.99321" xlink:href="#f" y="170.94534"/><use x="68.996986" xlink:href="#n" y="170.94534"/></g><g><use x="13.976" xlink:href="#o" y="182.19174"/><use x="18.979771" xlink:href="#p" y="182.19174"/><use x="24.475573" xlink:href="#k" y="182.19174"/><use x="30.476583" xlink:href="#q" y="182.19174"/><use x="35.480354" xlink:href="#h" y="182.19174"/><use x="40.484127" xlink:href="#p" y="182.19174"/><use x="43.48024" xlink:href="#f" y="182.19174"/><use x="48.484009" xlink:href="#r" y="182.19174"/><use x="55.987469" xlink:href="#k" y="182.19174"/><use x="61.98848" xlink:href="#m" y="182.19174"/><use x="64.488167" xlink:href="#o" y="182.19174"/><use x="69.491943" xlink:href="#p" y="182.19174"/><use x="72.488052" xlink:href="#f" y="182.19174"/></g><path d="m201.001905 131.000364h119.996688v39.997159h-119.996688zm0 0" fill="none" stroke="#000" transform="matrix(.74976 0 0 .74976 .37488 .37488)"/><g><use x="176.93172" xlink:href="#k" y="116.21284"/><use x="182.93272" xlink:href="#j" y="116.21284"/><use x="187.43129" xlink:href="#l" y="116.21284"/><use x="191.92986" xlink:href="#m" y="116.21284"/><use x="194.42953" xlink:href="#f" y="116.21284"/><use x="199.4333" xlink:href="#n" y="116.21284"/><use x="209.42767" xlink:href="#s" y="116.21284"/></g><path d="m192.879517 231.001077h-63.759962" fill="none" stroke="#000" stroke-miterlimit="10" transform="matrix(.74976 0 0 .74976 .37488 .37488)"/><path d="m199.881755 231.001077-7.002238 3.501119v-7.002238zm0 0" stroke="#000" stroke-miterlimit="10" transform="matrix(.74976 0 0 .74976 .37488 .37488)"/><path d="m122.122527 231.001077 6.997028-3.501119v7.002238zm0 0" stroke="#000" stroke-miterlimit="10" transform="matrix(.74976 0 0 .74976 .37488 .37488)"/><path d="m201.001905 210.999892h119.996688v40.00237h-119.996688zm0 0" fill="none" stroke="#000" transform="matrix(.74976 0 0 .74976 .37488 .37488)"/><g><use x="176.93172" xlink:href="#k" y="176.19366"/><use x="182.93272" xlink:href="#j" y="176.19366"/><use x="187.43129" xlink:href="#l" y="176.19366"/><use x="191.92986" xlink:href="#m" y="176.19366"/><use x="194.42953" xlink:href="#f" y="176.19366"/><use x="199.4333" xlink:href="#n" y="176.19366"/><use x="209.42767" xlink:href="#t" y="176.19366"/></g><path d="m192.879517 311.000605h-31.879981v-79.999528h-31.879981" fill="none" stroke="#000" stroke-miterlimit="10" transform="matrix(.74976 0 0 .74976 .37488 .37488)"/><path d="m199.881755 311.000605-7.002238 3.501119v-7.002238zm0 0" stroke="#000" stroke-miterlimit="10" transform="matrix(.74976 0 0 .74976 .37488 .37488)"/><path d="m122.122527 231.001077 6.997028-3.501119v7.002238zm0 0" stroke="#000" stroke-miterlimit="10" transform="matrix(.74976 0 0 .74976 .37488 .37488)"/><path d="m201.001905 290.999421h119.996688v40.002369h-119.996688zm0 0" fill="none" stroke="#000" transform="matrix(.74976 0 0 .74976 .37488 .37488)"/><g><use x="176.93172" xlink:href="#k" y="236.17448"/><use x="182.93272" xlink:href="#j" y="236.17448"/><use x="187.43129" xlink:href="#l" y="236.17448"/><use x="191.92986" xlink:href="#m" y="236.17448"/><use x="194.42953" xlink:href="#f" y="236.17448"/><use x="199.4333" xlink:href="#n" y="236.17448"/><use x="209.42767" xlink:href="#t" y="236.17448"/></g><path d="m400.998121 201.001905h120.001897v59.998344h-120.001897zm0 0" fill="none" stroke="#000" transform="matrix(.74976 0 0 .74976 .37488 .37488)"/><g><use x="314.8876" xlink:href="#e" y="170.94534"/><use x="319.89139" xlink:href="#f" y="170.94534"/><use x="324.89514" xlink:href="#g" y="170.94534"/><use x="329.89893" xlink:href="#h" y="170.94534"/><use x="334.90268" xlink:href="#i" y="170.94534"/><use x="339.40125" xlink:href="#j" y="170.94534"/><use x="346.39951" xlink:href="#k" y="170.94534"/><use x="352.40051" xlink:href="#j" y="170.94534"/><use x="356.89908" xlink:href="#l" y="170.94534"/><use x="361.39764" xlink:href="#m" y="170.94534"/><use x="363.89734" xlink:href="#f" y="170.94534"/><use x="368.90109" xlink:href="#n" y="170.94534"/></g><g><use x="313.88013" xlink:href="#o" y="182.19174"/><use x="318.88388" xlink:href="#p" y="182.19174"/><use x="324.3797" xlink:href="#k" y="182.19174"/><use x="330.38071" xlink:href="#q" y="182.19174"/><use x="335.38446" xlink:href="#h" y="182.19174"/><use x="340.38824" xlink:href="#p" y="182.19174"/><use x="343.38437" xlink:href="#f" y="182.19174"/><use x="348.38812" xlink:href="#r" y="182.19174"/><use x="355.89157" xlink:href="#k" y="182.19174"/><use x="361.89261" xlink:href="#m" y="182.19174"/><use x="364.39227" xlink:href="#o" y="182.19174"/><use x="369.39606" xlink:href="#p" y="182.19174"/><use x="372.39218" xlink:href="#f" y="182.19174"/></g><g stroke="#000" transform="matrix(.74976 0 0 .74976 .37488 .37488)"><path d="m552.879999 231.001077h-23.757593" fill="none" stroke-miterlimit="10"/><path d="m559.882238 231.001077-7.002239 3.501119v-7.002238zm0 0" stroke-miterlimit="10"/><path d="m522.120168 231.001077 7.002238-3.501119v7.002238zm0 0" stroke-miterlimit="10"/><path d="m680.999075 231.001077h31.879981" fill="none" stroke-miterlimit="10"/><path d="m719.881294 231.001077-7.002238 3.501119v-7.002238zm0 0" stroke-miterlimit="10"/><path d="m561.002387 201.001905h119.996688v59.998344h-119.996688zm0 0" fill="none"/></g><g><use x="435.84503" xlink:href="#u" y="165.69702"/><use x="442.34247" xlink:href="#h" y="165.69702"/><use x="447.34622" xlink:href="#m" y="165.69702"/><use x="449.84592" xlink:href="#h" y="165.69702"/><use x="457.34937" xlink:href="#k" y="165.69702"/><use x="463.3504" xlink:href="#o" y="165.69702"/><use x="468.35416" xlink:href="#v" y="165.69702"/><use x="473.35794" xlink:href="#p" y="165.69702"/><use x="476.35403" xlink:href="#i" y="165.69702"/><use x="480.8526" xlink:href="#w" y="165.69702"/><use x="482.85147" xlink:href="#x" y="165.69702"/><use x="487.85526" xlink:href="#g" y="165.69702"/><use x="492.85901" xlink:href="#y" y="165.69702"/></g><g><use x="444.35013" xlink:href="#z" y="176.19366"/><path d="m.0625 0 1.703125-2.421875-1.578125-2.25h1l.71875 1.09375c.125.210937.226563.386719.3125.53125.132813-.195313.253906-.367188.359375-.515625l.78125-1.109375h.953125l-1.609375 2.203125 1.734375 2.46875h-.96875l-.96875-1.453125-.25-.390625-1.21875 1.84375zm0 0" transform="translate(450.35114 176.19366)"/><use x="454.8497" xlink:href="#m" y="176.19366"/><use x="457.34937" xlink:href="#p" y="176.19366"/><use x="460.34549" xlink:href="#h" y="176.19366"/><use x="465.34927" xlink:href="#i" y="176.19366"/><use x="469.84781" xlink:href="#m" y="176.19366"/><use x="472.3475" xlink:href="#w" y="176.19366"/><use x="474.34637" xlink:href="#o" y="176.19366"/><use x="479.35016" xlink:href="#x" y="176.19366"/><use x="484.35394" xlink:href="#y" y="176.19366"/></g><path d="m2.328125 0v-5.6875h-2.109375v-.75h5.09375v.75h-2.125v5.6875zm0 0" transform="translate(435.517 187.44006)"/><g><use x="440.67892" xlink:href="#p" y="187.44006"/><use x="443.67505" xlink:href="#h" y="187.44006"/><use x="448.6788" xlink:href="#x" y="187.44006"/><use x="453.68259" xlink:href="#l" y="187.44006"/><use x="458.18115" xlink:href="#A" y="187.44006"/><use x="460.68085" xlink:href="#o" y="187.44006"/><use x="465.6846" xlink:href="#p" y="187.44006"/><use x="468.68073" xlink:href="#n" y="187.44006"/><use x="476.17538" xlink:href="#h" y="187.44006"/><use x="481.17917" xlink:href="#m" y="187.44006"/><use x="483.67886" xlink:href="#w" y="187.44006"/><use x="485.67773" xlink:href="#o" y="187.44006"/><use x="490.68149" xlink:href="#x" y="187.44006"/></g><path d="m721.001444 201.001905h119.996687v59.998344h-119.996687zm0 0" fill="none" stroke="#000" transform="matrix(.74976 0 0 .74976 .37488 .37488)"/><g><use x="558.30194" xlink:href="#z" y="176.19366"/><use x="564.30298" xlink:href="#B" y="176.19366"/><use x="568.80151" xlink:href="#f" y="176.19366"/><use x="573.8053" xlink:href="#x" y="176.19366"/><use x="578.80908" xlink:href="#m" y="176.19366"/><use x="583.80847" xlink:href="#k" y="176.19366"/><use x="589.80945" xlink:href="#m" y="176.19366"/><use x="592.30914" xlink:href="#p" y="176.19366"/><use x="595.3053" xlink:href="#f" y="176.19366"/><use x="600.30902" xlink:href="#h" y="176.19366"/><use x="605.31281" xlink:href="#n" y="176.19366"/></g><path d="m920.997659 151.001549h-39.997159v79.999528h-31.879981" fill="none" stroke="#000" stroke-miterlimit="10" transform="matrix(.74976 0 0 .74976 .37488 .37488)"/><path d="m842.118281 231.001077 7.002238-3.501119v7.002238zm0 0" stroke="#000" stroke-miterlimit="10" transform="matrix(.74976 0 0 .74976 .37488 .37488)"/><g clip-path="url(#b)"><path d="m920.99766 131.00036h120.00194v39.99716h-120.00194zm0 0" fill="none" stroke="#000" transform="matrix(.74976 0 0 .74976 .37488 .37488)"/></g><g><use x="716.75909" xlink:href="#k" y="116.21284"/><use x="722.76013" xlink:href="#j" y="116.21284"/><use x="727.25867" xlink:href="#l" y="116.21284"/><use x="731.75726" xlink:href="#m" y="116.21284"/><use x="734.25696" xlink:href="#f" y="116.21284"/><use x="739.26074" xlink:href="#n" y="116.21284"/><use x="749.25507" xlink:href="#s" y="116.21284"/></g><path d="m920.997659 231.001077h-71.87714" fill="none" stroke="#000" stroke-miterlimit="10" transform="matrix(.74976 0 0 .74976 .37488 .37488)"/><path d="m842.118281 231.001077 7.002238-3.501119v7.002238zm0 0" stroke="#000" stroke-miterlimit="10" transform="matrix(.74976 0 0 .74976 .37488 .37488)"/><g clip-path="url(#c)"><path d="m920.99766 210.99989h120.00194v40.00237h-120.00194zm0 0" fill="none" stroke="#000" transform="matrix(.74976 0 0 .74976 .37488 .37488)"/></g><g><use x="716.75909" xlink:href="#k" y="176.19366"/><use x="722.76013" xlink:href="#j" y="176.19366"/><use x="727.25867" xlink:href="#l" y="176.19366"/><use x="731.75726" xlink:href="#m" y="176.19366"/><use x="734.25696" xlink:href="#f" y="176.19366"/><use x="739.26074" xlink:href="#n" y="176.19366"/><use x="749.25507" xlink:href="#t" y="176.19366"/></g><path d="m920.997659 311.000605h-39.997159v-79.999528h-31.879981" fill="none" stroke="#000" stroke-miterlimit="10" transform="matrix(.74976 0 0 .74976 .37488 .37488)"/><path d="m842.118281 231.001077 7.002238-3.501119v7.002238zm0 0" stroke="#000" stroke-miterlimit="10" transform="matrix(.74976 0 0 .74976 .37488 .37488)"/><g clip-path="url(#d)"><path d="m920.99766 290.99942h120.00194v40.00237h-120.00194zm0 0" fill="none" stroke="#000" transform="matrix(.74976 0 0 .74976 .37488 .37488)"/></g><g><use x="716.75909" xlink:href="#k" y="236.17448"/><use x="722.76013" xlink:href="#j" y="236.17448"/><use x="727.25867" xlink:href="#l" y="236.17448"/><use x="731.75726" xlink:href="#m" y="236.17448"/><use x="734.25696" xlink:href="#f" y="236.17448"/><use x="739.26074" xlink:href="#n" y="236.17448"/><use x="749.25507" xlink:href="#t" y="236.17448"/></g><path d="m361.000962 381.002146v-380.001666" fill="none" stroke="#000" stroke-miterlimit="10" transform="matrix(.74976 0 0 .74976 .37488 .37488)"/><g><path d="m.65625 0v-6.4375h2.734375c.695313 0 1.195313.058594 1.5.171875.3125.117187.5625.324219.75.625.1875.292969.28125.625.28125 1 0 .492187-.140625.890625-.421875 1.203125s-.703125.511719-1.265625.59375c.28125.167969.507813.351562.6875.546875.1875.1875.4375.539062.75 1.046875l.78125 1.25h-1.5625l-.9375-1.40625c-.335937-.5-.5625-.8125-.6875-.9375-.125-.132813-.257812-.222656-.390625-.265625-.136719-.050781-.355469-.078125-.65625-.078125h-.265625v2.6875zm1.296875-3.71875h.96875c.625 0 1.015625-.023438 1.171875-.078125.15625-.050781.273438-.140625.359375-.265625.09375-.132813.140625-.296875.140625-.484375 0-.21875-.0625-.394531-.1875-.53125-.117187-.132813-.277344-.21875-.484375-.25-.105469-.019531-.421875-.03125-.953125-.03125h-1.015625zm0 0" transform="translate(2.249281 41.986576)"/><use x="8.746715" xlink:href="#F" y="41.986576"/><path d="m3.703125 1.78125v-2.359375c-.167969.210937-.371094.375-.609375.5-.242187.125-.5.1875-.78125.1875-.53125 0-.96875-.203125-1.3125-.609375-.398437-.457031-.59375-1.085938-.59375-1.890625 0-.75.1875-1.332031.5625-1.75.375-.414063.84375-.625 1.40625-.625.3125 0 .582031.070312.8125.203125.226563.125.429688.320312.609375.578125v-.6875h1.140625v6.453125zm.03125-4.171875c0-.476563-.101562-.832031-.296875-1.0625-.1875-.238281-.429687-.359375-.71875-.359375-.304687 0-.558594.121094-.765625.359375-.199219.242187-.296875.617187-.296875 1.125 0 .523437.09375.898437.28125 1.125.195313.21875.441406.328125.734375.328125.28125 0 .523438-.125.734375-.375.21875-.257813.328125-.640625.328125-1.140625zm0 0" transform="translate(13.750486 41.986576)"/><use x="19.246288" xlink:href="#G" y="41.986576"/><use x="24.742088" xlink:href="#F" y="41.986576"/><path d="m.21875-1.328125 1.234375-.1875c.050781.242187.15625.421875.3125.546875.164063.125.394531.1875.6875.1875.3125 0 .550781-.0625.71875-.1875.101563-.070313.15625-.179688.15625-.328125 0-.09375-.027344-.171875-.078125-.234375-.0625-.050781-.203125-.101563-.421875-.15625-.992187-.21875-1.621094-.421875-1.890625-.609375-.375-.25-.5625-.597656-.5625-1.046875 0-.40625.160156-.742188.484375-1.015625.320313-.269531.816406-.40625 1.484375-.40625.644531 0 1.117188.105469 1.421875.3125.3125.199219.523438.507812.640625.921875l-1.15625.203125c-.054687-.175781-.152344-.3125-.296875-.40625-.136719-.101563-.328125-.15625-.578125-.15625-.335937 0-.570312.046875-.703125.140625-.09375.0625-.140625.148437-.140625.25 0 .09375.039063.167969.125.21875.101563.085937.484375.203125 1.140625.359375.664063.148437 1.128906.328125 1.390625.546875.257813.21875.390625.527344.390625.921875 0 .429687-.183594.796875-.546875 1.109375-.355469.3046875-.882812.453125-1.578125.453125-.636719 0-1.140625-.1289063-1.515625-.390625-.375-.257813-.617187-.609375-.71875-1.046875zm0 0" transform="translate(29.745859 41.986576)"/><use x="34.749634" xlink:href="#H" y="41.986576"/><use x="37.745743" xlink:href="#I" y="41.986576"/><use x="40.741856" xlink:href="#J" y="41.986576"/><use x="47.239292" xlink:href="#K" y="41.986576"/><use x="50.740612" xlink:href="#L" y="41.986576"/><use x="53.240303" xlink:href="#M" y="41.986576"/><use x="58.244072" xlink:href="#F" y="41.986576"/><use x="63.247845" xlink:href="#N" y="41.986576"/><use x="71.243332" xlink:href="#O" y="41.986576"/><use x="77.740768" xlink:href="#K" y="41.986576"/><use x="81.242088" xlink:href="#P" y="41.986576"/><use x="86.245865" xlink:href="#Q" y="41.986576"/><use x="91.741661" xlink:href="#L" y="41.986576"/><use x="94.241348" xlink:href="#H" y="41.986576"/><use x="97.237465" xlink:href="#F" y="41.986576"/><use x="102.24123" xlink:href="#P" y="41.986576"/><use x="107.24501" xlink:href="#H" y="41.986576"/><use x="110.24112" xlink:href="#G" y="41.986576"/><use x="115.73692" xlink:href="#K" y="41.986576"/><use x="119.23824" xlink:href="#F" y="41.986576"/></g><g><use x="2.249281" xlink:href="#z" y="52.483219"/><use x="8.250292" xlink:href="#h" y="52.483219"/><use x="13.254063" xlink:href="#i" y="52.483219"/><use x="17.752625" xlink:href="#q" y="52.483219"/><use x="25.256084" xlink:href="#l" y="52.483219"/><use x="29.754646" xlink:href="#j" y="52.483219"/><use x="34.253208" xlink:href="#l" y="52.483219"/><use x="38.75177" xlink:href="#m" y="52.483219"/><use x="41.251457" xlink:href="#f" y="52.483219"/><use x="46.25523" xlink:href="#n" y="52.483219"/><use x="56.249592" xlink:href="#h" y="52.483219"/><use x="61.253365" xlink:href="#i" y="52.483219"/><use x="65.751923" xlink:href="#m" y="52.483219"/><use x="68.251617" xlink:href="#w" y="52.483219"/><use x="70.250488" xlink:href="#B" y="52.483219"/><use x="74.749046" xlink:href="#f" y="52.483219"/><use x="79.752823" xlink:href="#C" y="52.483219"/><use x="81.751694" xlink:href="#j" y="52.483219"/><path d="m3.5625 1.78125v-2.28125c-.117187.179687-.289062.324219-.515625.4375-.21875.1132813-.453125.171875-.703125.171875-.554687 0-1.03125-.21875-1.4375-.65625-.398437-.445313-.59375-1.054688-.59375-1.828125 0-.46875.078125-.890625.234375-1.265625.164063-.375.40625-.65625.71875-.84375s.648438-.28125 1.015625-.28125c.582031 0 1.035156.242187 1.359375.71875v-.625h.71875v6.453125zm-2.4375-4.125c0 .59375.125 1.042969.375 1.34375.257813.304687.5625.453125.90625.453125s.632813-.140625.875-.421875c.238281-.289063.359375-.726563.359375-1.3125 0-.613281-.132812-1.078125-.390625-1.390625-.25-.320313-.546875-.484375-.890625-.484375s-.636719.148437-.875.4375c-.242187.292969-.359375.75-.359375 1.375zm0 0" transform="translate(88.749947 52.483219)"/><use x="93.753716" xlink:href="#v" y="52.483219"/><use x="98.757484" xlink:href="#f" y="52.483219"/><use x="103.76126" xlink:href="#p" y="52.483219"/><use x="106.75737" xlink:href="#w" y="52.483219"/><use x="108.75624" xlink:href="#f" y="52.483219"/><use x="113.76002" xlink:href="#l" y="52.483219"/><use x="120.75826" xlink:href="#h" y="52.483219"/><use x="128.26172" xlink:href="#D" y="52.483219"/><use x="133.2655" xlink:href="#h" y="52.483219"/><use x="138.26927" xlink:href="#p" y="52.483219"/><use x="141.26538" xlink:href="#m" y="52.483219"/><use x="146.26476" xlink:href="#o" y="52.483219"/><use x="151.26852" xlink:href="#A" y="52.483219"/><use x="156.26791" xlink:href="#m" y="52.483219"/><use x="158.76759" xlink:href="#q" y="52.483219"/><use x="163.77136" xlink:href="#f" y="52.483219"/></g><g><use x="2.249281" xlink:href="#h" y="63.729626"/><use x="7.253052" xlink:href="#D" y="63.729626"/><use x="12.256823" xlink:href="#D" y="63.729626"/><use x="17.260593" xlink:href="#C" y="63.729626"/><use x="19.259466" xlink:href="#w" y="63.729626"/><use x="21.258341" xlink:href="#i" y="63.729626"/><use x="25.756901" xlink:href="#h" y="63.729626"/><use x="30.760674" xlink:href="#m" y="63.729626"/><use x="33.260361" xlink:href="#w" y="63.729626"/><use x="35.259235" xlink:href="#o" y="63.729626"/><use x="40.263004" xlink:href="#x" y="63.729626"/><use x="47.766464" xlink:href="#A" y="63.729626"/><use x="50.266155" xlink:href="#o" y="63.729626"/><use x="55.269924" xlink:href="#p" y="63.729626"/><use x="60.765728" xlink:href="#v" y="63.729626"/><use x="65.769501" xlink:href="#D" y="63.729626"/><use x="70.77327" xlink:href="#r" y="63.729626"/><use x="75.777039" xlink:href="#h" y="63.729626"/><use x="80.780815" xlink:href="#m" y="63.729626"/><use x="83.280502" xlink:href="#f" y="63.729626"/><use x="88.284271" xlink:href="#l" y="63.729626"/></g><g><path d="m.65625 0v-6.4375h4.78125v1.078125h-3.484375v1.4375h3.234375v1.078125h-3.234375v1.765625h3.609375v1.078125zm0 0" transform="translate(302.15338 41.986576)"/><use x="308.15442" xlink:href="#M" y="41.986576"/><use x="313.15817" xlink:href="#F" y="41.986576"/><use x="318.16196" xlink:href="#N" y="41.986576"/><use x="323.65775" xlink:href="#H" y="41.986576"/><use x="326.65387" xlink:href="#I" y="41.986576"/><use x="329.64996" xlink:href="#J" y="41.986576"/><use x="336.1474" xlink:href="#K" y="41.986576"/><use x="339.64874" xlink:href="#L" y="41.986576"/><use x="342.14841" xlink:href="#M" y="41.986576"/><use x="347.15219" xlink:href="#F" y="41.986576"/><use x="352.15594" xlink:href="#N" y="41.986576"/><use x="360.15146" xlink:href="#O" y="41.986576"/><use x="366.6489" xlink:href="#K" y="41.986576"/><use x="370.15021" xlink:href="#P" y="41.986576"/><use x="375.15399" xlink:href="#Q" y="41.986576"/><use x="380.64978" xlink:href="#L" y="41.986576"/><use x="383.14948" xlink:href="#H" y="41.986576"/><use x="386.14557" xlink:href="#F" y="41.986576"/><use x="391.14935" xlink:href="#P" y="41.986576"/><use x="396.15314" xlink:href="#H" y="41.986576"/><use x="399.14923" xlink:href="#G" y="41.986576"/><use x="404.64505" xlink:href="#K" y="41.986576"/><use x="408.14636" xlink:href="#F" y="41.986576"/></g><g><path d="m-.015625 0 2.484375-6.4375h.90625l2.640625 6.4375h-.96875l-.75-1.953125h-2.703125l-.703125 1.953125zm1.859375-2.640625h2.1875l-.671875-1.796875c-.210937-.539063-.359375-.984375-.453125-1.328125-.085937.417969-.203125.828125-.359375 1.234375zm0 0" transform="translate(302.15338 52.483219)"/><use x="308.15442" xlink:href="#A" y="52.483219"/><use x="310.65408" xlink:href="#m" y="52.483219"/><use x="313.15378" xlink:href="#f" y="52.483219"/><use x="318.15756" xlink:href="#p" y="52.483219"/><use x="323.65335" xlink:href="#u" y="52.483219"/><use x="330.15079" xlink:href="#h" y="52.483219"/><use x="335.15457" xlink:href="#m" y="52.483219"/><use x="337.65424" xlink:href="#h" y="52.483219"/><use x="345.15771" xlink:href="#e" y="52.483219"/><use x="350.16147" xlink:href="#w" y="52.483219"/><use x="352.16034" xlink:href="#E" y="52.483219"/><use x="357.16412" xlink:href="#f" y="52.483219"/><use x="362.16791" xlink:href="#p" y="52.483219"/><use x="365.164" xlink:href="#h" y="52.483219"/><use x="370.16779" xlink:href="#m" y="52.483219"/><use x="372.66748" xlink:href="#w" y="52.483219"/><use x="374.66635" xlink:href="#o" y="52.483219"/><use x="379.6701" xlink:href="#x" y="52.483219"/><use x="384.67389" xlink:href="#y" y="52.483219"/><use x="389.67325" xlink:href="#f" y="52.483219"/><use x="394.67703" xlink:href="#h" y="52.483219"/><use x="399.68082" xlink:href="#i" y="52.483219"/><use x="404.17935" xlink:href="#q" y="52.483219"/><use x="411.68283" xlink:href="#l" y="52.483219"/><use x="416.1814" xlink:href="#j" y="52.483219"/><use x="420.67996" xlink:href="#l" y="52.483219"/><use x="425.1785" xlink:href="#m" y="52.483219"/><use x="427.67819" xlink:href="#f" y="52.483219"/><use x="432.68198" xlink:href="#n" y="52.483219"/><use x="442.67633" xlink:href="#i" y="52.483219"/><use x="447.1749" xlink:href="#h" y="52.483219"/><use x="452.17868" xlink:href="#x" y="52.483219"/></g><g><use x="302.15338" xlink:href="#C" y="63.729626"/><use x="304.15225" xlink:href="#w" y="63.729626"/><use x="306.15112" xlink:href="#l" y="63.729626"/><use x="310.64969" xlink:href="#m" y="63.729626"/><use x="313.14938" xlink:href="#f" y="63.729626"/><use x="318.15317" xlink:href="#x" y="63.729626"/><use x="325.65662" xlink:href="#h" y="63.729626"/><use x="330.6604" xlink:href="#x" y="63.729626"/><use x="335.66415" xlink:href="#r" y="63.729626"/><use x="343.16763" xlink:href="#i" y="63.729626"/><use x="347.6662" xlink:href="#o" y="63.729626"/><use x="352.66995" xlink:href="#x" y="63.729626"/><use x="357.67374" xlink:href="#l" y="63.729626"/><use x="362.1723" xlink:href="#v" y="63.729626"/><use x="367.17606" xlink:href="#n" y="63.729626"/><use x="374.67075" xlink:href="#f" y="63.729626"/><use x="382.17419" xlink:href="#h" y="63.729626"/><use x="387.17798" xlink:href="#D" y="63.729626"/><use x="392.18173" xlink:href="#D" y="63.729626"/><use x="397.18552" xlink:href="#C" y="63.729626"/><use x="399.18439" xlink:href="#w" y="63.729626"/><use x="401.18326" xlink:href="#i" y="63.729626"/><use x="405.68182" xlink:href="#h" y="63.729626"/><use x="410.68558" xlink:href="#E" y="63.729626"/><use x="415.68936" xlink:href="#C" y="63.729626"/><use x="417.68823" xlink:href="#f" y="63.729626"/><use x="425.19168" xlink:href="#f" y="63.729626"/><use x="430.19547" xlink:href="#B" y="63.729626"/><use x="434.69403" xlink:href="#f" y="63.729626"/><use x="439.69778" xlink:href="#x" y="63.729626"/><use x="444.70157" xlink:href="#m" y="63.729626"/><use x="447.20126" xlink:href="#l" y="63.729626"/></g></svg>