<svg height="48pt" viewBox="0 0 571.91998 48" width="571.91998pt" xmlns="http://www.w3.org/2000/svg" xmlns:xlink="http://www.w3.org/1999/xlink"><defs><clipPath id="a"><path d="m0 0h571.921875v47.980469h-571.921875zm0 0"/></clipPath><clipPath id="b"><path d="m116 0h100v47.230469h-100zm0 0"/></clipPath><clipPath id="c"><path d="m356 0h100v47.230469h-100zm0 0"/></clipPath><clipPath id="d"><path d="m480 0h91.921875v47h-91.921875zm0 0"/></clipPath><g id="e"><path d="m.40625-2.0625.796875-.078125c.039063.324219.128906.589844.265625.796875.144531.210937.363281.375.65625.5.289063.125.617188.1875.984375.1875.320313 0 .609375-.046875.859375-.140625s.4375-.222656.5625-.390625c.125-.175781.1875-.363281.1875-.5625 0-.195313-.0625-.367188-.1875-.515625-.117187-.15625-.308594-.285156-.578125-.390625-.167969-.070313-.546875-.175781-1.140625-.3125-.59375-.144531-1.011719-.28125-1.25-.40625-.304687-.15625-.53125-.351563-.6875-.59375-.148437-.238281-.21875-.507813-.21875-.8125 0-.320313.085938-.625.265625-.90625.1875-.28125.457031-.492188.8125-.640625.351563-.144531.75-.21875 1.1875-.21875.476563 0 .898438.078125 1.265625.234375.363281.148437.640625.371094.828125.671875.195313.304687.304688.640625.328125 1.015625l-.828125.0625c-.042969-.40625-.1875-.710938-.4375-.921875-.25-.207031-.625-.3125-1.125-.3125-.511719 0-.886719.09375-1.125.28125-.242187.1875-.359375.417969-.359375.6875 0 .230469.082031.417969.25.5625.164063.15625.59375.3125 1.28125.46875.695313.15625 1.175781.292969 1.4375.40625.375.167969.648438.386719.828125.65625.175781.261719.265625.570312.265625.921875 0 .335937-.101562.65625-.296875.96875-.199219.304687-.480469.539062-.84375.703125-.367187.1640625-.777344.25-1.234375.25-.585937 0-1.074219-.0859375-1.46875-.25-.398437-.175781-.710937-.429688-.9375-.765625-.21875-.34375-.335937-.726563-.34375-1.15625zm0 0"/></g><g id="f"><path d="m3.78125-1.5.828125.09375c-.136719.480469-.382812.855469-.734375 1.125-.34375.2617187-.789062.390625-1.328125.390625-.679687 0-1.21875-.2070313-1.625-.625-.398437-.425781-.59375-1.019531-.59375-1.78125 0-.78125.203125-1.382813.609375-1.8125.40625-.4375.929688-.65625 1.578125-.65625.625 0 1.128906.214844 1.515625.640625.394531.417969.59375 1.011719.59375 1.78125v.21875h-3.484375c.03125.511719.175781.902344.4375 1.171875.257813.273437.585938.40625.984375.40625.289063 0 .535156-.070313.734375-.21875.207031-.15625.367188-.398438.484375-.734375zm-2.59375-1.28125h2.609375c-.03125-.394531-.132812-.691406-.296875-.890625-.25-.300781-.578125-.453125-.984375-.453125-.367187 0-.671875.125-.921875.375-.242187.242187-.375.5625-.40625.96875zm0 0"/></g><g id="g"><path d="m.578125 0v-4.671875h.71875v.71875c.175781-.332031.34375-.550781.5-.65625.15625-.101563.328125-.15625.515625-.15625.257813 0 .53125.085937.8125.25l-.28125.734375c-.1875-.113281-.382812-.171875-.578125-.171875-.167969 0-.324219.054687-.46875.15625-.136719.105469-.234375.25-.296875.4375-.085937.28125-.125.589844-.125.921875v2.4375zm0 0"/></g><g id="h"><path d="m1.890625 0-1.78125-4.671875h.84375l1 2.796875c.101563.304687.203125.617187.296875.9375.070313-.238281.171875-.53125.296875-.875l1.03125-2.859375h.8125l-1.765625 4.671875zm0 0"/></g><g id="i"><path d="m.59375-5.53125v-.90625h.796875v.90625zm0 5.53125v-4.671875h.796875v4.671875zm0 0"/></g><g id="j"><path d="m3.640625-1.703125.78125.09375c-.085937.542969-.304687.964844-.65625 1.265625-.355469.3046875-.789062.453125-1.296875.453125-.636719 0-1.148437-.2070313-1.53125-.625-.386719-.414063-.578125-1.015625-.578125-1.796875 0-.507813.082031-.953125.25-1.328125.164063-.375.414063-.65625.75-.84375.34375-.1875.71875-.28125 1.125-.28125.5 0 .910156.132812 1.234375.390625.320313.25.53125.609375.625 1.078125l-.765625.125c-.074219-.3125-.203125-.546875-.390625-.703125-.1875-.164063-.414062-.25-.671875-.25-.40625 0-.734375.148437-.984375.4375-.242187.28125-.359375.730469-.359375 1.34375 0 .636719.117188 1.09375.359375 1.375.238281.28125.550781.421875.9375.421875.3125 0 .570313-.09375.78125-.28125.207031-.1875.335938-.476563.390625-.875zm0 0"/></g><g id="k"><path d="m.71875 0v-6.4375h4.65625v.75h-3.8125v1.984375h3.5625v.75h-3.5625v2.1875h3.953125v.765625zm0 0"/></g><g id="l"><path d="m.59375 0v-4.671875h.71875v.671875c.332031-.507813.828125-.765625 1.484375-.765625.28125 0 .535156.054687.765625.15625.238281.09375.414063.226562.53125.390625.113281.15625.195313.351562.25.578125.03125.148437.046875.402344.046875.765625v2.875h-.796875v-2.84375c0-.320313-.03125-.5625-.09375-.71875s-.171875-.28125-.328125-.375c-.15625-.101563-.339844-.15625-.546875-.15625-.335937 0-.625.109375-.875.328125-.242187.210937-.359375.617187-.359375 1.21875v2.546875zm0 0"/></g><g id="m"><path d="m2.328125-.703125.109375.6875c-.230469.0507813-.429687.078125-.59375.078125-.292969 0-.515625-.046875-.671875-.140625s-.273437-.210938-.34375-.359375c-.0625-.144531-.09375-.453125-.09375-.921875v-2.6875h-.578125v-.625h.578125v-1.15625l.796875-.46875v1.625h.796875v.625h-.796875v2.71875c0 .230469.007813.375.03125.4375.03125.0625.078125.117187.140625.15625.0625.042969.148438.0625.265625.0625.09375 0 .210938-.007813.359375-.03125zm0 0"/></g></defs><g clip-path="url(#a)"><path d="m0 0h572v47.980469h-572zm0 0" fill="#fff"/></g><g stroke="#000" transform="matrix(.749672 0 0 .749672 .374836 .374836)"><path d="m121.001009 30.998139h33.629278" fill="none" stroke-miterlimit="10"/><path d="m159.882582 30.998139-7.00306 3.50153 1.750765-3.50153-1.750765-3.49632zm0 0" stroke-miterlimit="10"/><path d="m1.000656 1.000656h120.000353v60.000176h-120.000353zm0 0" fill="none"/></g><g><use x="26.472801" xlink:href="#e" y="26.238529"/><use x="32.47311" xlink:href="#f" y="26.238529"/><use x="37.476292" xlink:href="#g" y="26.238529"/><use x="40.472054" xlink:href="#h" y="26.238529"/><use x="44.970085" xlink:href="#i" y="26.238529"/><use x="46.968723" xlink:href="#j" y="26.238529"/><use x="51.466759" xlink:href="#f" y="26.238529"/><path d="m-.015625 0 2.484375-6.4375h.90625l2.640625 6.4375h-.96875l-.75-1.953125h-2.703125l-.703125 1.953125zm1.859375-2.640625h2.1875l-.671875-1.796875c-.210937-.539063-.359375-.984375-.453125-1.328125-.085937.417969-.203125.828125-.359375 1.234375zm0 0" transform="translate(58.969337 26.238529)"/></g><path d="m280.998006 30.998139h33.634489" fill="none" stroke="#000" stroke-miterlimit="10" transform="matrix(.749672 0 0 .749672 .374836 .374836)"/><path d="m319.879579 30.998139-6.997849 3.50153 1.750765-3.50153-1.750765-3.49632zm0 0" stroke="#000" stroke-miterlimit="10" transform="matrix(.749672 0 0 .749672 .374836 .374836)"/><g clip-path="url(#b)"><path d="m170.00159 1.000656h101.99769c.59401 0 1.1776.057316 1.75598.17195.57838.114633 1.14112.286583 1.68824.51064.54711.229267 1.06296.505429 1.55797.833697.48979.328269.94312.703433 1.35997 1.120282.42206.416848.79201.870171 1.12028 1.365179.32827.489798.60443 1.005648.8337 1.552762.22405.547114.396 1.10986.51064 1.688238.11463.578378.17195 1.167177.17195 1.755976v42.002728c0 .588799-.0573 1.172388-.17195 1.755976-.11464.578378-.28659 1.141124-.51064 1.688238-.22927.541903-.50543 1.062964-.8337 1.552762-.32827.489797-.69822.948331-1.12028 1.36518-.41685.416848-.87018.792012-1.35997 1.120281-.49501.328268-1.01086.604431-1.55797.828487-.54712.229267-1.10986.401217-1.68824.51585-.57838.114634-1.16197.17195-1.75598.17195h-101.99769c-.59401 0-1.1776-.05732-1.75598-.17195-.58359-.114633-1.14633-.286583-1.68824-.51585-.54711-.224056-1.06817-.500219-1.55797-.828487-.4898-.328269-.94312-.703433-1.36518-1.120281-.41685-.416849-.7868-.875383-1.11507-1.36518-.32827-.489798-.60964-1.010859-.8337-1.552762-.22405-.547114-.396-1.10986-.51064-1.688238-.11463-.583588-.17716-1.167177-.17716-1.755976v-42.002728c0-.588799.0625-1.177598.17716-1.755976.11464-.578378.28659-1.141124.51064-1.688238.22406-.547114.50543-1.062964.8337-1.552762.32827-.495008.69822-.948331 1.11507-1.365179.42206-.416849.87538-.792013 1.36518-1.120282.4898-.328268 1.01086-.60443 1.55797-.833697.54191-.224057 1.10465-.396007 1.68824-.51064.57838-.114634 1.16197-.17195 1.75598-.17195zm0 0" fill="none" stroke="#000" transform="matrix(.749672 0 0 .749672 .374836 .374836)"/></g><g><use x="150.41472" xlink:href="#k" y="26.238529"/><use x="156.41502" xlink:href="#h" y="26.238529"/><use x="160.91306" xlink:href="#f" y="26.238529"/><use x="165.91624" xlink:href="#l" y="26.238529"/><use x="170.91942" xlink:href="#m" y="26.238529"/><path d="m3.359375 0h-.796875v-5.046875c-.1875.1875-.4375.375-.75.5625-.3125.179687-.589844.308594-.828125.390625v-.765625c.4375-.195313.820313-.441406 1.15625-.734375.332031-.300781.566406-.59375.703125-.875h.515625zm0 0" transform="translate(175.91821 26.238529)"/></g><path d="m441.000214 30.998139h33.629278" fill="none" stroke="#000" stroke-miterlimit="10" transform="matrix(.749672 0 0 .749672 .374836 .374836)"/><path d="m479.881787 30.998139-7.00306 3.50153 1.750765-3.50153-1.750765-3.49632zm0 0" stroke="#000" stroke-miterlimit="10" transform="matrix(.749672 0 0 .749672 .374836 .374836)"/><path d="m320.999861 1.000656h120.000353v60.000176h-120.000353zm0 0" fill="none" stroke="#000" transform="matrix(.749672 0 0 .749672 .374836 .374836)"/><g><use x="266.36792" xlink:href="#e" y="26.238529"/><use x="272.36823" xlink:href="#f" y="26.238529"/><use x="277.37143" xlink:href="#g" y="26.238529"/><use x="280.36719" xlink:href="#h" y="26.238529"/><use x="284.8652" xlink:href="#i" y="26.238529"/><use x="286.86386" xlink:href="#j" y="26.238529"/><use x="291.36188" xlink:href="#f" y="26.238529"/><path d="m.65625 0v-6.4375h2.421875c.488281 0 .878906.070312 1.171875.203125.300781.125.535156.324219.703125.59375.175781.273437.265625.554687.265625.84375 0 .28125-.078125.542969-.234375.78125-.148437.242187-.371094.4375-.671875.59375.382813.117187.679688.308594.890625.578125.21875.273437.328125.59375.328125.96875 0 .304687-.070312.585937-.203125.84375-.125.261719-.28125.464844-.46875.609375-.1875.136719-.421875.242187-.703125.3125-.28125.0742187-.632812.109375-1.046875.109375zm.859375-3.734375h1.390625c.375 0 .644531-.023438.8125-.078125.21875-.0625.378906-.164063.484375-.3125.113281-.15625.171875-.34375.171875-.5625s-.054687-.40625-.15625-.5625c-.105469-.164063-.25-.28125-.4375-.34375s-.515625-.09375-.984375-.09375h-1.28125zm0 2.96875h1.59375c.28125 0 .476563-.007813.59375-.03125.1875-.03125.347656-.085938.484375-.171875.132813-.082031.242188-.203125.328125-.359375.082031-.15625.125-.335938.125-.546875 0-.238281-.0625-.445313-.1875-.625-.125-.175781-.296875-.296875-.515625-.359375-.21875-.070313-.53125-.109375-.9375-.109375h-1.484375zm0 0" transform="translate(298.86447 26.238529)"/></g><path d="m601.002422 30.998139h33.629278" fill="none" stroke="#000" stroke-miterlimit="10" transform="matrix(.749672 0 0 .749672 .374836 .374836)"/><path d="m639.878784 30.998139-6.997849 3.50153 1.750765-3.50153-1.750765-3.49632zm0 0" stroke="#000" stroke-miterlimit="10" transform="matrix(.749672 0 0 .749672 .374836 .374836)"/><g clip-path="url(#c)"><path d="m490.00079 1.000656h101.9977c.59401 0 1.17759.057316 1.75597.17195.57838.114633 1.14113.286583 1.68824.51064.54712.229267 1.06818.505429 1.55797.833697.4898.328269.94312.703433 1.36518 1.120282.41685.416848.7868.870171 1.11507 1.365179.32827.489798.60964 1.005648.8337 1.552762s.39601 1.10986.51064 1.688238.17716 1.167177.17716 1.755976v42.002728c0 .588799-.0625 1.172388-.17716 1.755976-.11463.578378-.28658 1.141124-.51064 1.688238-.22406.541903-.50543 1.062964-.8337 1.552762-.32827.489797-.69822.948331-1.11507 1.36518-.42206.416848-.87538.792012-1.36518 1.120281-.48979.328268-1.01085.604431-1.55797.828487-.54711.229267-1.10986.401217-1.68824.51585-.57838.114634-1.16196.17195-1.75597.17195h-101.9977c-.59401 0-1.1776-.05732-1.75597-.17195-.57838-.114633-1.14113-.286583-1.68824-.51585-.54712-.224056-1.06297-.500219-1.55797-.828487-.4898-.328269-.94312-.703433-1.36518-1.120281-.41685-.416849-.78681-.875383-1.11507-1.36518-.32827-.489798-.60965-1.010859-.8337-1.552762-.22406-.547114-.39601-1.10986-.51064-1.688238-.11463-.583588-.17195-1.167177-.17195-1.755976v-42.002728c0-.588799.0573-1.177598.17195-1.755976.11463-.578378.28658-1.141124.51064-1.688238.22405-.547114.50543-1.062964.8337-1.552762.32826-.495008.69822-.948331 1.11507-1.365179.42206-.416849.87538-.792013 1.36518-1.120282.495-.328268 1.01085-.60443 1.55797-.833697.54711-.224057 1.10986-.396007 1.68824-.51064.57837-.114634 1.16196-.17195 1.75597-.17195zm0 0" fill="none" stroke="#000" transform="matrix(.749672 0 0 .749672 .374836 .374836)"/></g><g><use x="390.30984" xlink:href="#k" y="26.238529"/><use x="396.31015" xlink:href="#h" y="26.238529"/><use x="400.8082" xlink:href="#f" y="26.238529"/><use x="405.81137" xlink:href="#l" y="26.238529"/><use x="410.81454" xlink:href="#m" y="26.238529"/><path d="m4.53125-.765625v.765625h-4.265625c0-.1875.03125-.367188.09375-.546875.113281-.289063.289063-.578125.53125-.859375.238281-.28125.582031-.601563 1.03125-.96875.695313-.582031 1.164063-1.039063 1.40625-1.375.25-.332031.375-.648438.375-.953125 0-.3125-.117187-.570313-.34375-.78125-.21875-.21875-.507812-.328125-.859375-.328125-.386719 0-.695312.117187-.921875.34375-.230469.230469-.34375.546875-.34375.953125l-.8125-.09375c.050781-.601563.257813-1.0625.625-1.375.363281-.320313.851563-.484375 1.46875-.484375.613281 0 1.097656.171875 1.453125.515625.363281.34375.546875.765625.546875 1.265625 0 .261719-.054687.515625-.15625.765625-.105469.25-.28125.515625-.53125.796875-.242187.273437-.640625.648437-1.203125 1.125-.480469.398437-.789062.667969-.921875.8125-.136719.148437-.246094.289062-.328125.421875zm0 0" transform="translate(415.81335 26.238529)"/></g><g clip-path="url(#d)"><path d="m640.99907 1.000656h120.00035v60.000176h-120.00035zm0 0" fill="none" stroke="#000" transform="matrix(.749672 0 0 .749672 .374836 .374836)"/></g><g><use x="506.01706" xlink:href="#e" y="26.238529"/><use x="512.0174" xlink:href="#f" y="26.238529"/><use x="517.02057" xlink:href="#g" y="26.238529"/><use x="520.0163" xlink:href="#h" y="26.238529"/><use x="524.51434" xlink:href="#i" y="26.238529"/><use x="526.513" xlink:href="#j" y="26.238529"/><use x="531.01105" xlink:href="#f" y="26.238529"/><path d="m5.296875-2.265625.84375.21875c-.179687.699219-.5 1.234375-.96875 1.609375-.460937.3671875-1.027344.546875-1.703125.546875-.6875 0-1.25-.140625-1.6875-.421875s-.773437-.6875-1-1.21875c-.21875-.539063-.328125-1.117188-.328125-1.734375 0-.675781.125-1.265625.375-1.765625.257813-.5.625-.875 1.09375-1.125.476563-.257813 1-.390625 1.5625-.390625.644531 0 1.1875.167969 1.625.5.445313.324219.753906.78125.921875 1.375l-.84375.1875c-.148437-.46875-.359375-.804688-.640625-1.015625-.28125-.21875-.640625-.328125-1.078125-.328125-.492187 0-.902344.121094-1.234375.359375-.335937.242187-.570312.5625-.703125.96875-.136719.398437-.203125.804687-.203125 1.21875 0 .554687.078125 1.039062.234375 1.453125.164063.40625.414063.710937.75.90625.332031.199219.695313.296875 1.09375.296875.476563 0 .878906-.132813 1.203125-.40625.332031-.28125.5625-.691406.6875-1.234375zm0 0" transform="translate(538.51361 26.238529)"/></g></svg>