<svg height="1024.07996pt" viewBox="0 0 1026 1024.07996" width="1026pt" xmlns="http://www.w3.org/2000/svg" xmlns:xlink="http://www.w3.org/1999/xlink"><defs><clipPath id="a"><path d="m0 0h1026v1023.75h-1026zm0 0"/></clipPath><g id="b"><path d="m7.5625-3 1.640625.203125c-.261719.949219-.742187 1.6875-1.4375 2.21875-.6875.5234375-1.574219.78125-2.65625.78125-1.367187 0-2.449219-.414063-3.25-1.25-.804687-.84375-1.203125-2.019531-1.203125-3.53125 0-1.570313.398438-2.789063 1.203125-3.65625.8125-.863281 1.863281-1.296875 3.15625-1.296875 1.25 0 2.265625.429687 3.046875 1.28125.789063.84375 1.1875 2.03125 1.1875 3.5625v.421875h-6.953125c.050781 1.03125.335938 1.820312.859375 2.359375.519531.542969 1.171875.8125 1.953125.8125.582031 0 1.078125-.148438 1.484375-.453125.40625-.300781.726563-.785156.96875-1.453125zm-5.1875-2.5625h5.21875c-.074219-.78125-.277344-1.367188-.609375-1.765625-.5-.601563-1.152344-.90625-1.953125-.90625-.730469 0-1.34375.246094-1.84375.734375-.492187.480469-.761719 1.125-.8125 1.9375zm0 0"/></g><g id="c"><path d="m7.234375 0v-1.171875c-.59375.917969-1.464844 1.375-2.609375 1.375-.742187 0-1.421875-.203125-2.046875-.609375s-1.109375-.972656-1.453125-1.703125c-.34375-.738281-.515625-1.585938-.515625-2.546875 0-.925781.15625-1.769531.46875-2.53125.3125-.757813.773438-1.335938 1.390625-1.734375.625-.40625 1.320313-.609375 2.09375-.609375.5625 0 1.0625.121094 1.5.359375.4375.230469.789063.539062 1.0625.921875v-4.625h1.578125v12.875zm-5-4.65625c0 1.199219.25 2.09375.75 2.6875.507813.585937 1.109375.875 1.796875.875s1.269531-.28125 1.75-.84375c.488281-.5625.734375-1.421875.734375-2.578125 0-1.28125-.25-2.21875-.75-2.8125-.492187-.601563-1.09375-.90625-1.8125-.90625-.699219 0-1.289062.292969-1.765625.875-.46875.574219-.703125 1.476562-.703125 2.703125zm0 0"/></g><g id="d"><path d="m1.171875 0v-9.328125h1.421875v1.421875c.363281-.664063.695313-1.101563 1-1.3125.3125-.207031.648438-.3125 1.015625-.3125.53125 0 1.070313.167969 1.625.5l-.546875 1.46875c-.386719-.226563-.773437-.34375-1.15625-.34375-.34375 0-.65625.105469-.9375.3125-.273437.210937-.464844.496094-.578125.859375-.179687.5625-.265625 1.183594-.265625 1.859375v4.875zm0 0"/></g><g id="e"><path d="m7.265625-1.15625c-.585937.5-1.148437.855469-1.6875 1.0625-.542969.195313-1.121094.296875-1.734375.296875-1.03125 0-1.824219-.25-2.375-.75-.542969-.5-.8125-1.132813-.8125-1.90625 0-.457031.097656-.875.296875-1.25.207031-.382813.476563-.691406.8125-.921875.34375-.226563.726563-.398438 1.15625-.515625.300781-.082031.769531-.160156 1.40625-.234375 1.269531-.15625 2.207031-.335938 2.8125-.546875 0-.21875 0-.351563 0-.40625 0-.644531-.148437-1.097656-.4375-1.359375-.40625-.363281-1.007812-.546875-1.796875-.546875-.75 0-1.304687.132812-1.65625.390625-.355469.261719-.617187.726562-.78125 1.390625l-1.546875-.21875c.132813-.65625.363281-1.1875.6875-1.59375.320313-.40625.785156-.71875 1.390625-.9375.613281-.21875 1.320313-.328125 2.125-.328125.800781 0 1.445313.09375 1.9375.28125.5.1875.863281.421875 1.09375.703125.238281.28125.40625.640625.5 1.078125.050781.273437.078125.757812.078125 1.453125v2.109375c0 1.46875.03125 2.402344.09375 2.796875.070313.386719.207031.757812.40625 1.109375h-1.640625c-.167969-.320313-.277344-.707031-.328125-1.15625zm-.125-3.53125c-.574219.242187-1.433594.445312-2.578125.609375-.65625.09375-1.121094.199219-1.390625.3125-.261719.117187-.46875.289062-.625.515625-.148437.21875-.21875.46875-.21875.75 0 .417969.160156.765625.484375 1.046875.320313.28125.789063.421875 1.40625.421875.601563 0 1.140625-.128906 1.609375-.390625.476563-.269531.832031-.632813 1.0625-1.09375.164063-.363281.25-.890625.25-1.578125zm0 0"/></g><g id="f"><path d="m4.640625-1.40625.21875 1.390625c-.4375.09375-.835937.140625-1.1875.140625-.574219 0-1.023437-.0898437-1.34375-.265625-.3125-.1875-.539062-.425781-.671875-.71875-.125-.300781-.1875-.925781-.1875-1.875v-5.359375h-1.15625v-1.234375h1.15625v-2.3125l1.578125-.9375v3.25h1.59375v1.234375h-1.59375v5.453125c0 .449219.023438.742187.078125.875.0625.125.15625.226562.28125.296875.125.074219.300781.109375.53125.109375.175781 0 .410156-.015625.703125-.046875zm0 0"/></g><g id="g"><path d="m1.1875 0v-9.328125h1.40625v1.3125c.289063-.457031.679688-.820313 1.171875-1.09375.488281-.28125 1.039063-.421875 1.65625-.421875.695313 0 1.265625.148437 1.703125.4375.445313.28125.757813.679687.9375 1.1875.738281-1.082031 1.695313-1.625 2.875-1.625.925781 0 1.640625.257812 2.140625.765625.5.511719.75 1.296875.75 2.359375v6.40625h-1.578125v-5.875c0-.632813-.054687-1.085938-.15625-1.359375-.105469-.28125-.292969-.503906-.5625-.671875-.261719-.175781-.574219-.265625-.9375-.265625-.65625 0-1.203125.21875-1.640625.65625-.429687.4375-.640625 1.136719-.640625 2.09375v5.421875h-1.578125v-6.0625c0-.695313-.132812-1.222656-.390625-1.578125-.261719-.351563-.683594-.53125-1.265625-.53125-.449219 0-.859375.121094-1.234375.359375-.375.230469-.652344.574219-.828125 1.03125-.167969.449219-.25 1.09375-.25 1.9375v4.84375zm0 0"/></g><g id="h"><path d="m.59375-4.65625c0-1.726563.476563-3.007813 1.4375-3.84375.800781-.6875 1.78125-1.03125 2.9375-1.03125 1.28125 0 2.328125.421875 3.140625 1.265625.8125.835937 1.21875 1.992187 1.21875 3.46875 0 1.199219-.183594 2.140625-.546875 2.828125-.355469.6875-.875 1.226562-1.5625 1.609375-.6875.375-1.4375.5625-2.25.5625-1.304687 0-2.359375-.414063-3.171875-1.25-.804687-.832031-1.203125-2.035156-1.203125-3.609375zm1.625 0c0 1.1875.257813 2.078125.78125 2.671875.519531.59375 1.175781.890625 1.96875.890625.78125 0 1.429688-.296875 1.953125-.890625.519531-.59375.78125-1.503906.78125-2.734375 0-1.15625-.261719-2.03125-.78125-2.625-.523437-.59375-1.171875-.890625-1.953125-.890625-.792969 0-1.449219.296875-1.96875.890625-.523437.59375-.78125 1.492187-.78125 2.6875zm0 0"/></g><g id="i"><path d="m1.5625 0v-8.09375h-1.390625v-1.234375h1.390625v-.984375c0-.625.054688-1.09375.171875-1.40625.144531-.40625.410156-.734375.796875-.984375.382813-.257813.921875-.390625 1.609375-.390625.445313 0 .941406.054687 1.484375.15625l-.234375 1.375c-.335937-.050781-.648437-.078125-.9375-.078125-.480469 0-.820312.105469-1.015625.3125-.199219.199219-.296875.578125-.296875 1.140625v.859375h1.8125v1.234375h-1.8125v8.09375zm0 0"/></g><g id="j"><path d="m1.390625 0v-12.875h4.4375c1 0 1.757813.0625 2.28125.1875.738281.167969 1.367188.476562 1.890625.921875.675781.574219 1.179688 1.308594 1.515625 2.203125.34375.886719.515625 1.90625.515625 3.0625 0 .96875-.117187 1.835937-.34375 2.59375-.230469.75-.523437 1.375-.875 1.875-.355469.492187-.746094.882812-1.171875 1.171875-.429687.28125-.945312.496094-1.546875.640625-.59375.1484375-1.28125.21875-2.0625.21875zm1.703125-1.515625h2.75c.84375 0 1.503906-.078125 1.984375-.234375.488281-.164063.878906-.390625 1.171875-.671875.394531-.40625.707031-.945313.9375-1.625.226563-.6875.34375-1.515625.34375-2.484375 0-1.34375-.226562-2.375-.671875-3.09375-.4375-.726563-.976562-1.21875-1.609375-1.46875-.460937-.175781-1.195312-.265625-2.203125-.265625h-2.703125zm0 0"/></g><g id="k"><path d="m1.1875-11.0625v-1.8125h1.59375v1.8125zm0 11.0625v-9.328125h1.59375v9.328125zm0 0"/></g><g id="l"><path d="m1.1875 0v-9.328125h1.421875v1.328125c.6875-1.019531 1.675781-1.53125 2.96875-1.53125.5625 0 1.078125.101562 1.546875.296875.46875.199219.816406.464844 1.046875.796875.238281.324219.40625.714844.5 1.171875.0625.292969.09375.804687.09375 1.53125v5.734375h-1.578125v-5.671875c0-.644531-.0625-1.125-.1875-1.4375-.125-.320313-.34375-.578125-.65625-.765625-.3125-.195313-.679687-.296875-1.09375-.296875-.679687 0-1.261719.214844-1.75.640625-.492187.429687-.734375 1.242187-.734375 2.4375v5.09375zm0 0"/></g><g id="m"><path d="m1.1875 3.578125v-12.90625h1.4375v1.21875c.34375-.476563.726563-.832031 1.15625-1.0625.425781-.238281.941406-.359375 1.546875-.359375.800781 0 1.503906.203125 2.109375.609375.601563.40625 1.0625.984375 1.375 1.734375s.46875 1.570312.46875 2.453125c0 .960937-.171875 1.820312-.515625 2.578125-.34375.761719-.84375 1.34375-1.5 1.75-.648437.40625-1.328125.609375-2.046875.609375-.53125 0-1.007812-.109375-1.421875-.328125-.417969-.21875-.761719-.5-1.03125-.84375v4.546875zm1.421875-8.1875c0 1.199219.242188 2.085937.734375 2.65625.488281.574219 1.078125.859375 1.765625.859375.707031 0 1.3125-.296875 1.8125-.890625s.75-1.507813.75-2.75c0-1.195313-.246094-2.085938-.734375-2.671875-.492187-.59375-1.074219-.890625-1.75-.890625-.679687 0-1.277344.320312-1.796875.953125-.523437.625-.78125 1.539062-.78125 2.734375zm0 0"/></g><g id="n"><path d="m.546875-2.78125 1.5625-.25c.09375.625.335938 1.105469.734375 1.4375.40625.335937.96875.5 1.6875.5.726563 0 1.265625-.144531 1.609375-.4375.351563-.289063.53125-.640625.53125-1.046875 0-.351563-.15625-.632813-.46875-.84375-.210937-.132813-.746094-.3125-1.609375-.53125-1.15625-.289063-1.960937-.539063-2.40625-.75-.449219-.21875-.792969-.515625-1.03125-.890625-.230469-.382813-.34375-.800781-.34375-1.25 0-.414063.09375-.800781.28125-1.15625.195313-.351563.457031-.648438.78125-.890625.25-.175781.582031-.328125 1-.453125.425781-.125.882813-.1875 1.375-.1875.726563 0 1.367188.105469 1.921875.3125.550781.210937.957031.496094 1.21875.859375.269531.355469.457031.835937.5625 1.4375l-1.546875.21875c-.074219-.476563-.28125-.851563-.625-1.125-.335937-.269531-.808594-.40625-1.421875-.40625-.71875 0-1.234375.121094-1.546875.359375-.3125.242187-.46875.523437-.46875.84375 0 .199219.0625.382812.1875.546875.132813.179687.335938.320312.609375.421875.15625.0625.625.199219 1.40625.40625 1.113281.304687 1.890625.546875 2.328125.734375.445313.1875.796875.464844 1.046875.828125.25.367187.375.820312.375 1.359375 0 .523437-.15625 1.015625-.46875 1.484375-.304687.46875-.746094.828125-1.328125 1.078125-.574219.25-1.226562.375-1.953125.375-1.21875 0-2.148437-.25-2.78125-.75-.636719-.5-1.042969-1.242188-1.21875-2.234375zm0 0"/></g><g id="o"><path d="m-.03125 0 4.953125-12.875h1.828125l5.265625 12.875h-1.9375l-1.5-3.90625h-5.375l-1.421875 3.90625zm3.71875-5.28125h4.359375l-1.34375-3.578125c-.40625-1.070313-.710937-1.957031-.90625-2.65625-.167969.824219-.398437 1.640625-.6875 2.453125zm0 0"/></g><g id="p"><path d="m4.203125 3.78125c-.875-1.09375-1.617187-2.382812-2.21875-3.859375-.59375-1.476563-.890625-3.003906-.890625-4.578125 0-1.394531.222656-2.734375.671875-4.015625.53125-1.476563 1.34375-2.953125 2.4375-4.421875h1.140625c-.710937 1.21875-1.179687 2.089844-1.40625 2.609375-.367187.8125-.648437 1.65625-.84375 2.53125-.25 1.09375-.375 2.195312-.375 3.296875 0 2.8125.875 5.625 2.625 8.4375zm0 0"/></g><g id="q"><path d="m2.21875 3.78125h-1.125c1.75-2.8125 2.625-5.625 2.625-8.4375 0-1.101563-.125-2.191406-.375-3.265625-.210937-.882813-.492187-1.726563-.84375-2.53125-.230469-.53125-.699219-1.410156-1.40625-2.640625h1.125c1.101563 1.46875 1.914063 2.945312 2.4375 4.421875.457031 1.28125.6875 2.621094.6875 4.015625 0 1.574219-.308594 3.101562-.921875 4.578125-.605469 1.476563-1.339844 2.765625-2.203125 3.859375zm0 0"/></g><g id="r"><path d="m.8125-4.140625 1.609375-.140625c.070313.648437.242188 1.179687.515625 1.59375.28125.40625.710938.742187 1.296875 1 .59375.25 1.253906.375 1.984375.375.644531 0 1.21875-.09375 1.71875-.28125.5-.195313.867188-.460938 1.109375-.796875.238281-.332031.359375-.703125.359375-1.109375 0-.394531-.117187-.742188-.34375-1.046875-.230469-.300781-.617187-.554688-1.15625-.765625-.34375-.132813-1.109375-.34375-2.296875-.625-1.179687-.28125-2.007812-.550781-2.484375-.8125-.617187-.320313-1.074219-.71875-1.375-1.1875-.304687-.476563-.453125-1.015625-.453125-1.609375 0-.644531.179688-1.25.546875-1.8125.375-.570313.914063-1.003906 1.625-1.296875.707031-.289063 1.492188-.4375 2.359375-.4375.957031 0 1.800781.15625 2.53125.46875.726563.304687 1.285156.757812 1.671875 1.359375.394531.59375.609375 1.265625.640625 2.015625l-1.640625.125c-.085937-.8125-.382812-1.425781-.890625-1.84375-.5-.414063-1.246094-.625-2.234375-.625-1.03125 0-1.789062.195312-2.265625.578125-.46875.375-.703125.828125-.703125 1.359375 0 .460937.164063.839844.5 1.140625.332031.304687 1.191406.609375 2.578125.921875 1.382813.3125 2.332031.585937 2.84375.8125.75.34375 1.300781.78125 1.65625 1.3125.363281.53125.546875 1.140625.546875 1.828125s-.199219 1.335937-.59375 1.9375c-.398437.605469-.964844 1.078125-1.703125 1.421875-.730469.3320313-1.554687.5-2.46875.5-1.167969 0-2.148437-.1679687-2.9375-.5-.78125-.34375-1.398437-.851563-1.84375-1.53125-.449219-.6875-.683594-1.460938-.703125-2.328125zm0 0"/></g><g id="s"><path d="m1.1875 0v-12.875h1.578125v4.625c.738281-.851563 1.671875-1.28125 2.796875-1.28125.6875 0 1.285156.136719 1.796875.40625.507813.273437.875.648437 1.09375 1.125.21875.480469.328125 1.179687.328125 2.09375v5.90625h-1.578125v-5.90625c0-.789063-.171875-1.363281-.515625-1.71875-.34375-.363281-.828125-.546875-1.453125-.546875-.46875 0-.914062.121094-1.328125.359375-.40625.242187-.699219.570312-.875.984375-.179687.417969-.265625.992187-.265625 1.71875v5.109375zm0 0"/></g><g id="t"><path d="m1.390625 0v-12.875h4.859375c.851563 0 1.503906.042969 1.953125.125.632813.105469 1.164063.308594 1.59375.609375.425781.292969.769531.703125 1.03125 1.234375.257813.53125.390625 1.117187.390625 1.75 0 1.09375-.351562 2.023437-1.046875 2.78125-.699219.761719-1.960937 1.140625-3.78125 1.140625h-3.296875v5.234375zm1.703125-6.75h3.328125c1.09375 0 1.867188-.203125 2.328125-.609375.46875-.414063.703125-.992188.703125-1.734375 0-.539063-.136719-1.003906-.40625-1.390625-.273437-.382813-.632812-.632813-1.078125-.75-.28125-.082031-.808594-.125-1.578125-.125h-3.296875zm0 0"/></g><g id="u"><path d="m1.15625 0v-12.875h1.578125v12.875zm0 0"/></g></defs><g clip-path="url(#a)"><path d="m0 0h1026v1023.75h-1026zm0 0" fill="#fff"/></g><path d="m579.484375 419.324219c-.203125 1.523437-.457031 3.039062-.757812 4.542969l-1.46875-.296875c.296875-1.472657.542968-2.953125.738281-4.445313zm-1.792969 8.921875c-.398437 1.472656-.84375 2.929687-1.339843 4.375l-1.417969-.488281c.484375-1.410157.921875-2.839844 1.3125-4.28125zm-2.976562 8.660156c-.585938 1.390625-1.214844 2.761719-1.890625 4.109375l-1.339844-.671875c.660156-1.320312 1.277344-2.660156 1.847656-4.019531zm-4.070313 8.125c-.773437 1.316406-1.589843 2.609375-2.449218 3.871094l-1.238282-.839844c.839844-1.238281 1.640625-2.5 2.394532-3.789062zm-5.128906 7.542969c-.9375 1.195312-1.910156 2.363281-2.925781 3.496094l-1.117188-1c.992188-1.109375 1.945313-2.25 2.863282-3.421875zm-6.085937 6.796875c-1.089844 1.0625-2.214844 2.089844-3.371094 3.082031l-.972656-1.140625c1.128906-.96875 2.230468-1.972656 3.296875-3.015625zm-6.929688 5.921875c-1.214844.90625-2.457031 1.769531-3.726562 2.59375l-.816407-1.257813c1.242188-.804687 2.457032-1.648437 3.644532-2.535156zm-7.667969 4.960937c-1.328125.738282-2.679687 1.433594-4.050781 2.082032l-.640625-1.355469c1.34375-.636719 2.664063-1.3125 3.964844-2.035156zm-8.1875 3.871094c-1.433593.566406-2.886718 1.082031-4.359375 1.550781l-.453125-1.429687c1.4375-.457031 2.859375-.964844 4.261719-1.515625zm-8.738281 2.785156c-1.457031.355469-2.921875.667969-4.394531.929688l-.265625-1.476563c1.445312-.253906 2.878906-.558593 4.300781-.910156zm-8.984375 1.585938c-1.503906.164062-3.007812.277344-4.519531.34375l-.0625-1.5c1.476562-.0625 2.949219-.171875 4.417969-.332031zm-8.945312.386719c-1.5-.035157-2.996094-.117188-4.488282-.246094l.128907-1.496094c1.460937.128906 2.925781.210938 4.390625.242188zm-9.058594-.804688c-1.5-.234375-2.988281-.519531-4.46875-.851562l.328125-1.460938c1.449219.324219 2.90625.601563 4.371094.832031zm-8.847656-1.988281c-1.476563-.4375-2.929688-.921875-4.371094-1.453125l.523437-1.40625c1.40625.523437 2.828125.996094 4.269532 1.421875zm-8.578125-3.171875c-1.382813-.617188-2.742188-1.28125-4.082032-1.988281l.703125-1.324219c1.308594.691406 2.640625 1.339844 3.992188 1.945312zm-8.058594-4.269531c-1.292969-.800782-2.558594-1.640625-3.796875-2.527344l.871094-1.21875c1.210937.863281 2.449218 1.6875 3.714843 2.472656zm-7.410156-5.292969c-1.175782-.964844-2.320313-1.964844-3.429688-3.007813l1.023438-1.09375c1.089843 1.019532 2.207031 2 3.359375 2.945313zm-6.65625-6.242188c-1.039063-1.113281-2.039063-2.261718-3.003907-3.441406l1.164063-.945312c.941406 1.152343 1.917969 2.273437 2.933594 3.363281zm-5.757813-7.058593c-.882812-1.238282-1.722656-2.507813-2.519531-3.804688l1.277344-.785156c.78125 1.269531 1.601562 2.507812 2.460937 3.722656zm-4.789062-7.785157c-.707032-1.339843-1.363282-2.703125-1.980469-4.085937l1.371094-.609375c.601562 1.355469 1.246093 2.6875 1.933593 3.996094zm-3.691407-8.300781c-.527343-1.441406-1.007812-2.898437-1.4375-4.371094l1.4375-.421875c.421875 1.441407.890625 2.867188 1.410157 4.273438zm-2.566406-8.75c-.328125-1.484375-.609375-2.976562-.839844-4.476562l1.480469-.226563c.226563 1.46875.5 2.925781.824219 4.378906zm-1.386719-9.042969c-.128906-1.492187-.207031-2.988281-.234375-4.484375l1.496094-.03125c.03125 1.464844.105469 2.925782.230469 4.386719zm-.179687-8.914062c.066406-1.511719.183594-3.019531.351562-4.519531l1.488282.164062c-.164063 1.46875-.277344 2.945313-.34375 4.421875zm1.019531-9.113281c.265625-1.472657.578125-2.9375.941406-4.386719l1.453125.359375c-.351562 1.421875-.660156 2.851562-.917968 4.292969zm2.1875-8.769532c.472656-1.46875.992188-2.917968 1.558594-4.351562l1.394531.550781c-.554687 1.402344-1.066406 2.824219-1.527344 4.261719zm3.359375-8.480468c.652344-1.375 1.347656-2.722657 2.089844-4.050782l1.308594.734375c-.726563 1.296875-1.40625 2.613282-2.046875 3.957032zm4.46875-7.984375c.824219-1.269532 1.691406-2.507813 2.597656-3.71875l1.199219.898437c-.886719 1.183594-1.734375 2.398438-2.542969 3.636719zm5.453125-7.273438c.992188-1.152344 2.019531-2.277344 3.089844-3.363281l1.066406 1.050781c-1.042969 1.0625-2.050781 2.160156-3.019531 3.289063zm6.394531-6.515625c1.136719-1.011719 2.304688-1.984375 3.503907-2.917969l.921875 1.183594c-1.175782.914063-2.316407 1.867188-3.425782 2.855469zm7.179688-5.585937c1.265625-.859375 2.558594-1.671875 3.878906-2.441407l.757813 1.292969c-1.292969.753906-2.558594 1.550781-3.796875 2.390625zm7.902344-4.613282c1.347656-.667968 2.71875-1.296875 4.109375-1.878906l.578125 1.386719c-1.363282.566406-2.703125 1.179687-4.023438 1.835937zm8.402343-3.503906c1.445313-.492187 2.90625-.9375 4.378907-1.332031l.386718 1.449219c-1.441406.386718-2.867187.820312-4.28125 1.300781zm8.753907-2.351562c1.507812-.300782 3.027343-.550782 4.550781-.75l.195312 1.488281c-1.492187.191406-2.976562.4375-4.453125.730469zm9.09375-1.1875c1.429687-.085938 2.859375-.132813 4.289062-.132813h.160156v1.5h-.160156c-1.398437 0-2.796875.042969-4.195312.128906zm8.90625.023437c1.523437.101563 3.039062.253906 4.546875.460938l-.199219 1.484375c-1.476563-.199219-2.960938-.351563-4.449219-.449219zm9.085937 1.226563c1.46875.300781 2.929688.648437 4.375 1.042968l-.394531 1.445313c-1.414063-.386719-2.84375-.726563-4.28125-1.019531zm8.75 2.398437c1.445313.5 2.871094 1.046875 4.28125 1.644531l-.585937 1.378907c-1.375-.582032-2.773438-1.117188-4.183594-1.609375zm8.386719 3.542969c1.359375.6875 2.699219 1.417969 4.011719 2.191406l-.761719 1.292969c-1.285156-.757813-2.59375-1.472656-3.925781-2.144531zm7.875 4.648437c1.25.855469 2.472656 1.753907 3.664062 2.6875l-.925781 1.179688c-1.164062-.914063-2.359375-1.792969-3.582031-2.628906zm7.152344 5.625c1.132812 1.019532 2.230468 2.074219 3.292968 3.167969l-1.074218 1.042969c-1.039063-1.066406-2.113282-2.097656-3.21875-3.097656zm6.367187 6.546875c.984375 1.15625 1.929688 2.34375 2.835938 3.566407l-1.203125.890625c-.886719-1.191407-1.8125-2.355469-2.773438-3.488282zm5.417969 7.300782c.832031 1.289062 1.617187 2.601562 2.359375 3.945312l-1.3125.722656c-.726563-1.3125-1.496094-2.597656-2.304688-3.855468zm4.429687 8c.636719 1.363281 1.230469 2.742187 1.78125 4.144531l-1.398437.546875c-.535156-1.371094-1.117188-2.722656-1.742188-4.054688zm3.316407 8.503906c.457031 1.445312.867187 2.90625 1.226562 4.378906l-1.457031.355469c-.351563-1.441406-.75-2.871094-1.199219-4.285156zm2.148437 8.785156c.265625 1.519531.480469 3.050781.644531 4.585938l-1.492187.160156c-.160156-1.503906-.367188-3-.628906-4.488281zm.972656 9.101563c.039063.914062.054688 1.824218.054688 2.738281 0 1.488281-.046875 2.96875-.144531 4.453125l-1.496094-.097656c.097656-1.449219.144531-2.902344.144531-4.355469 0-.890625-.019531-1.785156-.054687-2.679688zm0 0" fill="#333"/><path d="m5.999174 2.001462h1359.998651v79.995935h-1359.998651zm0 0" fill="none" stroke="#666" stroke-width="2" transform="scale(.749452)"/><path d="m581.867188 47.828125c.414062-8.105469 6.84375-14.566406 14.695312-14.566406 2.65625 0 5.253906.742187 7.527344 2.15625 4.210937 2.625 6.910156 7.332031 7.171875 12.410156zm6.675781-24.625c0-4.453125 3.597656-8.078125 8.019531-8.078125s8.019531 3.625 8.019531 8.078125-3.597656 8.070313-8.019531 8.070313-8.019531-3.617188-8.019531-8.070313zm16.414062 10.828125c-1.414062-.882812-2.960937-1.527344-4.546875-1.925781 3.410157-1.496094 5.808594-4.921875 5.808594-8.902344 0-5.359375-4.332031-9.714844-9.65625-9.714844-5.320312 0-9.652344 4.355469-9.652344 9.714844 0 3.988281 2.398438 7.410156 5.824219 8.910156-7.171875 1.800782-12.523437 8.523438-12.523437 16.535157 0 .449218.367187.816406.816406.816406h31.074219c.449218 0 .816406-.367188.816406-.816406 0-5.953125-3.050781-11.558594-7.960938-14.617188zm0 0" fill="#ff8000"/><path d="m626.835938 47.828125c.410156-8.105469 6.839843-14.566406 14.695312-14.566406 2.652344 0 5.253906.742187 7.523438 2.15625 4.210937 2.625 6.910156 7.332031 7.171875 12.410156zm6.675781-24.625c0-4.453125 3.597656-8.078125 8.019531-8.078125s8.019531 3.625 8.019531 8.078125-3.597656 8.070313-8.019531 8.070313-8.019531-3.617188-8.019531-8.070313zm16.414062 10.828125c-1.417968-.882812-2.960937-1.527344-4.550781-1.925781 3.410156-1.496094 5.808594-4.921875 5.808594-8.902344 0-5.359375-4.332031-9.714844-9.652344-9.714844-5.320312 0-9.652344 4.355469-9.652344 9.714844 0 3.988281 2.398438 7.410156 5.824219 8.910156-7.175781 1.800782-12.523437 8.523438-12.523437 16.535157 0 .449218.367187.816406.816406.816406h31.070312c.449219 0 .816407-.367188.816407-.816406 0-5.953125-3.050782-11.558594-7.957032-14.617188zm0 0" fill="#526c91"/><path d="m671.800781 47.828125c.414063-8.105469 6.84375-14.566406 14.699219-14.566406 2.652344 0 5.25.742187 7.523438 2.15625 4.210937 2.625 6.910156 7.332031 7.171875 12.410156zm6.679688-24.625c0-4.453125 3.597656-8.078125 8.019531-8.078125s8.015625 3.625 8.015625 8.078125-3.59375 8.070313-8.015625 8.070313-8.019531-3.617188-8.019531-8.070313zm16.410156 10.828125c-1.414062-.882812-2.957031-1.527344-4.546875-1.925781 3.410156-1.496094 5.808594-4.921875 5.808594-8.902344 0-5.359375-4.332031-9.714844-9.652344-9.714844-5.324219 0-9.65625 4.355469-9.65625 9.714844 0 3.988281 2.398438 7.410156 5.824219 8.910156-7.171875 1.800782-12.523438 8.523438-12.523438 16.535157 0 .449218.367188.816406.816407.816406h31.074218c.449219 0 .816407-.367188.816407-.816406 0-5.953125-3.050782-11.558594-7.960938-14.617188zm0 0" fill="#74a15b"/><g><path d="m1.46875 0v-12.875h8.6875v1.515625h-6.984375v3.984375h6.046875v1.53125h-6.046875v5.84375zm0 0" transform="translate(259.73199 40.470417)"/><use x="270.71909" xlink:href="#b" y="40.470417"/><use x="280.72253" xlink:href="#c" y="40.470417"/><use x="290.72595" xlink:href="#b" y="40.470417"/><use x="300.72937" xlink:href="#d" y="40.470417"/><use x="306.71915" xlink:href="#e" y="40.470417"/><use x="316.72256" xlink:href="#f" y="40.470417"/><use x="321.71991" xlink:href="#b" y="40.470417"/><use x="331.72333" xlink:href="#c" y="40.470417"/><path d="m4.65625 0v-11.359375h-4.234375v-1.515625h10.203125v1.515625h-4.265625v11.359375zm0 0" transform="translate(346.72409 40.470417)"/></g><g><use x="355.7175" xlink:href="#b" y="40.470417"/><use x="365.72095" xlink:href="#e" y="40.470417"/><use x="375.72437" xlink:href="#g" y="40.470417"/><use x="395.70486" xlink:href="#h" y="40.470417"/><use x="405.70831" xlink:href="#i" y="40.470417"/><use x="415.70294" xlink:href="#j" y="40.470417"/><use x="428.69247" xlink:href="#h" y="40.470417"/><use x="438.69592" xlink:href="#g" y="40.470417"/><use x="453.67911" xlink:href="#e" y="40.470417"/><use x="463.68253" xlink:href="#k" y="40.470417"/><use x="467.67862" xlink:href="#l" y="40.470417"/><path d="m1.421875 0v-12.875h9.3125v1.515625h-7.609375v3.953125h7.125v1.5h-7.125v4.390625h7.90625v1.515625zm0 0" transform="translate(482.67938 40.470417)"/><path d="m.125 0 3.40625-4.84375-3.140625-4.484375h1.96875l1.4375 2.1875c.269531.417969.484375.765625.640625 1.046875.257813-.382813.5-.726563.71875-1.03125l1.578125-2.203125h1.875l-3.21875 4.390625 3.46875 4.9375h-1.9375l-1.921875-2.890625-.5-.78125-2.453125 3.671875zm0 0" transform="translate(494.67648 40.470417)"/><use x="503.66989" xlink:href="#m" y="40.470417"/><use x="513.67334" xlink:href="#b" y="40.470417"/><use x="523.67676" xlink:href="#d" y="40.470417"/><use x="529.6665" xlink:href="#f" y="40.470417"/><use x="534.66382" xlink:href="#n" y="40.470417"/></g><path d="m505.999828 461.998936c0 2.293342-.083394 4.581472-.250183 6.869602-.172001 2.28813-.422183 4.576259-.760972 6.853965-.33879 2.277705-.755761 4.555411-1.261338 6.81748-.505578 2.267281-1.09455 4.524138-1.761704 6.77057-.672366 2.251645-1.422914 4.482441-2.256857 6.708025-.839155 2.220372-1.751279 4.43032-2.75201 6.619419-.995519 2.194311-2.074432 4.367774-3.231527 6.5256-1.157096 2.157826-2.397585 4.294804-3.711045 6.410933-1.313459 2.116129-2.705101 4.21141-4.174924 6.28063-1.469824 2.074432-3.01783 4.117591-4.633593 6.139901-1.620976 2.022311-3.314922 4.013349-5.081837 5.978326-1.766916 1.964977-3.606802 3.903893-5.514445 5.806325-1.907644 1.907643-3.888257 3.778801-5.936628 5.618687-2.048372 1.839886-4.159289 3.643286-6.343176 5.415414-2.178674 1.772128-4.419895 3.507771-6.728873 5.206929-2.308979 1.693946-4.680503 3.356618-7.10936 4.972382-2.428858 1.620976-4.915049 3.200254-7.463786 4.737836-2.548736 1.542794-5.149595 3.038678-7.802574 4.492865-2.658192 1.448975-5.368505 2.861465-8.125727 4.227046-2.762435 1.360369-5.571779 2.684253-8.428032 3.956015-2.861465 1.271762-5.759415 2.496615-8.709487 3.674559s-5.936628 2.308978-8.970094 3.387892c-3.028254 1.078913-6.098205 2.110917-9.20464 3.090799-3.106436.979882-6.249357 1.907643-9.423551 2.783283-3.174193.87564-6.37966 1.699158-9.616399 2.470555-3.23674.771397-6.49954 1.490672-9.7884 2.157826-3.288861.667154-6.598571 1.276974-9.934341 1.834674-3.330557.552486-6.687176 1.058064-10.054219 1.501096-3.372255.448244-6.754934.839155-10.158462 1.177944-3.398316.333577-6.807056.615032-10.22622.839154-3.424376.224123-6.848753.396123-10.283554.505578-3.429588.114667-6.864389.172001-10.304402.172001-3.4348 0-6.869601-.057334-10.29919-.172001-3.4348-.109455-6.859177-.281455-10.283553-.505578-3.419164-.224122-6.827904-.505577-10.22622-.839154-3.403528-.338789-6.786207-.7297-10.158462-1.177944-3.372255-.443032-6.723662-.94861-10.05422-1.501096-3.33577-.5577-6.645479-1.16752-9.93434-1.834674-3.28886-.667154-6.551661-1.386429-9.7884-2.157826s-6.442206-1.594915-9.616399-2.470555c-3.174194-.87564-6.317115-1.803401-9.423551-2.783283s-6.176386-2.011886-9.20464-3.090799c-3.033466-1.078914-6.020023-2.209948-8.970094-3.387892-2.950072-1.177944-5.848022-2.402797-8.709487-3.674559-2.856253-1.271762-5.665597-2.595646-8.428032-3.956015-2.757222-1.365581-5.467535-2.778071-8.125727-4.227046-2.65298-1.454187-5.253838-2.950071-7.802575-4.492865-2.548736-1.537582-5.034927-3.11686-7.463785-4.737836-2.428858-1.615764-4.800382-3.278436-7.10936-4.972382-2.308978-1.699158-4.550199-3.434801-6.734086-5.206929-2.178674-1.772128-4.289591-3.575528-6.337963-5.415414-2.048371-1.839886-4.028984-3.711044-5.936628-5.618687-1.907643-1.902432-3.747529-3.841348-5.514445-5.806325-1.766915-1.964977-3.460861-3.956015-5.081837-5.978326-1.615763-2.02231-3.163769-4.065469-4.633593-6.139901-1.469824-2.06922-2.861465-4.164501-4.174925-6.28063-1.313459-2.116129-2.553949-4.253107-3.711044-6.410933s-2.236008-4.331289-3.231527-6.5256c-1.000731-2.189099-1.912856-4.399047-2.75201-6.619419-.833943-2.225584-1.584491-4.45638-2.256857-6.708025-.672366-2.246432-1.256126-4.503289-1.761704-6.77057-.505577-2.262069-.922549-4.539775-1.261338-6.81748-.338789-2.277706-.588972-4.565835-.760972-6.853965-.166789-2.28813-.250183-4.57626-.250183-6.869602 0-2.288129.083394-4.581471.250183-6.869601.172-2.28813.422183-4.571047.760972-6.853965.338789-2.277705.755761-4.550199 1.261338-6.81748.505578-2.267281 1.089338-4.524138 1.761704-6.770571.672366-2.246432 1.422914-4.482441 2.256857-6.702813.839154-2.225584 1.751279-4.430319 2.75201-6.62463.995519-2.194312 2.074432-4.367774 3.231527-6.5256 1.157095-2.157827 2.397585-4.294804 3.711044-6.410934 1.31346-2.116129 2.705101-4.211409 4.174925-6.280629s3.01783-4.117591 4.633593-6.139902c1.620976-2.017098 3.314922-4.013348 5.081837-5.978325 1.766916-1.964977 3.606802-3.898681 5.514445-5.806325 1.907644-1.902431 3.888257-3.77359 5.936628-5.618687 2.048372-1.839886 4.159289-3.643287 6.337963-5.415415 2.183887-1.772127 4.425108-3.502558 6.734086-5.201716s4.680502-3.356619 7.10936-4.977594c2.428858-1.620976 4.915049-3.200255 7.463785-4.737836 2.548737-1.537582 5.149595-3.033466 7.802575-4.487653 2.658192-1.454187 5.368505-2.861465 8.125727-4.227046 2.762435-1.365581 5.571779-2.684253 8.428032-3.956015 2.861465-1.276975 5.759415-2.501828 8.709487-3.679771 2.950071-1.177944 5.936628-2.303767 8.970094-3.387892 3.028254-1.078913 6.098204-2.105705 9.20464-3.085587 3.106436-.979883 6.249357-1.907644 9.423551-2.788495 3.174193-.87564 6.37966-1.699158 9.616399-2.470555s6.49954-1.490672 9.7884-2.157826c3.288861-.661942 6.59857-1.271763 9.93434-1.829462 3.330558-.557699 6.681965-1.058064 10.05422-1.506308s6.754934-.839155 10.158462-1.172732c3.398316-.338789 6.807056-.620245 10.22622-.844367 3.424376-.224122 6.848753-.39091 10.283553-.505577 3.429589-.109455 6.86439-.166789 10.29919-.166789 3.440013 0 6.874814.057334 10.304402.166789 3.434801.114667 6.859178.281455 10.283554.505577 3.419164.224122 6.827904.505578 10.22622.844367 3.403528.333577 6.786207.724488 10.158462 1.172732 3.367043.448244 6.723662.948609 10.054219 1.506308 3.33577.557699 6.64548 1.16752 9.934341 1.829462 3.28886.667154 6.55166 1.386429 9.7884 2.157826 3.236739.771397 6.442206 1.594915 9.616399 2.470555 3.174194.880851 6.317115 1.808612 9.423551 2.788495 3.106435.979882 6.176386 2.006674 9.20464 3.085587 3.033466 1.084125 6.020022 2.209948 8.970094 3.387892 2.950072 1.177943 5.848022 2.402796 8.709487 3.679771 2.856253 1.271762 5.665597 2.590434 8.428032 3.956015 2.757222 1.365581 5.467535 2.772859 8.125727 4.227046 2.652979 1.454187 5.253838 2.950071 7.802574 4.487653 2.548737 1.537581 5.034928 3.11686 7.463786 4.737836 2.428857 1.620975 4.800381 3.278436 7.10936 4.977594 2.308978 1.699158 4.550199 3.429589 6.728873 5.201716 2.183887 1.772128 4.294804 3.575529 6.343176 5.415415 2.048371 1.845097 4.028984 3.716256 5.936628 5.618687 1.907643 1.907644 3.747529 3.841348 5.514445 5.806325 1.766915 1.964977 3.460861 3.961227 5.081837 5.978325 1.615763 2.022311 3.163769 4.070682 4.633593 6.139902 1.469823 2.06922 2.861465 4.1645 4.174924 6.280629 1.31346 2.11613 2.553949 4.253107 3.711045 6.410934 1.157095 2.157826 2.236008 4.331288 3.231527 6.5256 1.000731 2.194311 1.912855 4.399046 2.75201 6.62463.833943 2.220372 1.584491 4.456381 2.256857 6.702813.667154 2.246433 1.256126 4.50329 1.761704 6.770571.505577 2.267281.922548 4.539775 1.261338 6.81748.338789 2.282918.588971 4.565835.760972 6.853965.166789 2.28813.250183 4.581472.250183 6.869601zm0 0" fill="none" stroke="#ff8000" stroke-width="4" transform="scale(.749452)"/><path d="m1286.00189 461.998936c0 2.293342-.088606 4.581472-.255394 6.869602-.166789 2.28813-.422184 4.576259-.755761 6.853965-.338789 2.277705-.760972 4.555411-1.261338 6.81748-.505577 2.267281-1.094549 4.524138-1.766916 6.77057-.667154 2.251645-1.422914 4.482441-2.256856 6.708025-.833943 2.220372-1.75128 4.43032-2.746799 6.619419-1.000731 2.194311-2.074432 4.367774-3.236739 6.5256-1.157095 2.157826-2.392372 4.294804-3.705832 6.410933-1.318672 2.116129-2.710313 4.21141-4.180137 6.28063-1.469823 2.074432-3.012617 4.117591-4.633593 6.139901-1.620976 2.022311-3.314921 4.013349-5.081837 5.978326s-3.601589 3.903893-5.514445 5.806325c-1.907643 1.907643-3.883045 3.778801-5.931416 5.618687s-4.1645 3.643286-6.343175 5.415414-4.425107 3.507771-6.734086 5.206929c-2.303766 1.693946-4.67529 3.356618-7.104148 4.972382-2.428857 1.620976-4.92026 3.200254-7.463785 4.737836-2.548737 1.542794-5.149595 3.038678-7.807787 4.492865-2.658191 1.448975-5.363292 2.861465-8.125727 4.227046-2.762435 1.360369-5.566566 2.684253-8.428031 3.956015-2.856253 1.271762-5.759416 2.496615-8.704275 3.674559-2.950072 1.177944-5.941841 2.308978-8.970094 3.387892-3.033466 1.078913-6.098205 2.110917-9.209853 3.090799-3.106436.979882-6.244144 1.907643-9.418338 2.783283-3.179406.87564-6.384872 1.699158-9.6164 2.470555-3.236739.771397-6.499539 1.490672-9.7884 2.157826s-6.59857 1.276974-9.93434 1.834674c-3.33577.552486-6.687176 1.058064-10.059431 1.501096-3.367043.448244-6.754935.839155-10.15325 1.177944-3.398316.333577-6.812268.615032-10.231433.839154-3.419164.224123-6.84354.396123-10.278341.505578-3.434801.114667-6.869601.172001-10.304402.172001s-6.869601-.057334-10.304402-.172001c-3.429589-.109455-6.859177-.281455-10.278342-.505578-3.419164-.224122-6.833116-.505577-10.231432-.839154-3.398315-.338789-6.786207-.7297-10.15325-1.177944-3.372255-.443032-6.723661-.94861-10.059431-1.501096-3.330558-.5577-6.645479-1.16752-9.93434-1.834674s-6.551661-1.386429-9.783188-2.157826c-3.23674-.771397-6.442206-1.594915-9.6164-2.470555-3.179406-.87564-6.317114-1.803401-9.42355-2.783283s-6.176387-2.011886-9.209853-3.090799c-3.028253-1.078914-6.020022-2.209948-8.964882-3.387892-2.950071-1.177944-5.853234-2.402797-8.709487-3.674559s-5.665597-2.595646-8.428031-3.956015c-2.762435-1.365581-5.467536-2.778071-8.125727-4.227046-2.658192-1.454187-5.25905-2.950071-7.802575-4.492865-2.548737-1.537582-5.034928-3.11686-7.468998-4.737836-2.428857-1.615764-4.795169-3.278436-7.104147-4.972382-2.308979-1.699158-4.555411-3.434801-6.734086-5.206929s-4.294804-3.575528-6.343175-5.415414c-2.043159-1.839886-4.023773-3.711044-5.931416-5.618687-1.912856-1.902432-3.747529-3.841348-5.514445-5.806325s-3.460862-3.956015-5.081837-5.978326c-1.620976-2.02231-3.16377-4.065469-4.633593-6.139901-1.469824-2.06922-2.861466-4.164501-4.180137-6.28063-1.31346-2.116129-2.548737-4.253107-3.705832-6.410933s-2.236009-4.331289-3.23674-6.5256c-.995518-2.189099-1.912855-4.399047-2.746798-6.619419-.833942-2.225584-1.589703-4.45638-2.256857-6.708025-.672366-2.246432-1.261338-4.503289-1.761703-6.77057-.505578-2.262069-.927761-4.539775-1.261338-6.81748-.338789-2.277706-.594184-4.565835-.760973-6.853965-.166788-2.28813-.250182-4.57626-.250182-6.869602 0-2.288129.083394-4.581471.250182-6.869601.166789-2.28813.422184-4.571047.760973-6.853965.333577-2.277705.75576-4.550199 1.261338-6.81748.500365-2.267281 1.089337-4.524138 1.761703-6.770571.667154-2.246432 1.422915-4.482441 2.256857-6.702813.833943-2.225584 1.75128-4.430319 2.746798-6.62463 1.000731-2.194312 2.079645-4.367774 3.23674-6.5256 1.157095-2.157827 2.392372-4.294804 3.705832-6.410934 1.318671-2.116129 2.710313-4.211409 4.180137-6.280629 1.469823-2.06922 3.012617-4.117591 4.633593-6.139902 1.620975-2.017098 3.314921-4.013348 5.081837-5.978325s3.601589-3.898681 5.514445-5.806325c1.907643-1.902431 3.888257-3.77359 5.931416-5.618687 2.048371-1.839886 4.1645-3.643287 6.343175-5.415415 2.178675-1.772127 4.425107-3.502558 6.734086-5.201716 2.308978-1.699158 4.67529-3.356619 7.104147-4.977594 2.43407-1.620976 4.920261-3.200255 7.468998-4.737836 2.543525-1.537582 5.144383-3.033466 7.802575-4.487653 2.658191-1.454187 5.363292-2.861465 8.125727-4.227046 2.762434-1.365581 5.571778-2.684253 8.428031-3.956015 2.856253-1.276975 5.759416-2.501828 8.709487-3.679771 2.94486-1.177944 5.936629-2.303767 8.964882-3.387892 3.033466-1.078913 6.103417-2.105705 9.209853-3.085587 3.106436-.979883 6.244144-1.907644 9.42355-2.788495 3.174194-.87564 6.37966-1.699158 9.6164-2.470555 3.231527-.771397 6.494327-1.490672 9.783188-2.157826 3.288861-.661942 6.603782-1.271763 9.93434-1.829462 3.33577-.557699 6.687176-1.058064 10.059431-1.506308 3.367043-.448244 6.754935-.839155 10.15325-1.172732 3.398316-.338789 6.812268-.620245 10.231432-.844367 3.419165-.224122 6.848753-.39091 10.278342-.505577 3.434801-.109455 6.869601-.166789 10.304402-.166789s6.869601.057334 10.304402.166789c3.434801.114667 6.859177.281455 10.278341.505577 3.419165.224122 6.833117.505578 10.231433.844367 3.398315.333577 6.786207.724488 10.15325 1.172732 3.372255.448244 6.723661.948609 10.059431 1.506308 3.330558.557699 6.645479 1.16752 9.93434 1.829462 3.288861.667154 6.551661 1.386429 9.7884 2.157826 3.231528.771397 6.436994 1.594915 9.6164 2.470555 3.174194.880851 6.311902 1.808612 9.418338 2.788495 3.111648.979882 6.176387 2.006674 9.209853 3.085587 3.028253 1.084125 6.020022 2.209948 8.970094 3.387892 2.944859 1.177943 5.848022 2.402796 8.704275 3.679771 2.861465 1.271762 5.665596 2.590434 8.428031 3.956015s5.467536 2.772859 8.125727 4.227046c2.658192 1.454187 5.25905 2.950071 7.807787 4.487653 2.543525 1.537581 5.034928 3.11686 7.463785 4.737836 2.428858 1.620975 4.800382 3.278436 7.104148 4.977594 2.308979 1.699158 4.555411 3.429589 6.734086 5.201716 2.178675 1.772128 4.294804 3.575529 6.343175 5.415415 2.048371 1.845097 4.023773 3.716256 5.931416 5.618687 1.912856 1.907644 3.747529 3.841348 5.514445 5.806325s3.460861 3.961227 5.081837 5.978325c1.620976 2.022311 3.16377 4.070682 4.633593 6.139902 1.469824 2.06922 2.861465 4.1645 4.180137 6.280629 1.31346 2.11613 2.548737 4.253107 3.705832 6.410934 1.162307 2.157826 2.236008 4.331288 3.236739 6.5256.995519 2.194311 1.912856 4.399046 2.746799 6.62463.833942 2.220372 1.589702 4.456381 2.256856 6.702813.672367 2.246433 1.261339 4.50329 1.766916 6.770571.500366 2.267281.922549 4.539775 1.261338 6.81748.333577 2.282918.588972 4.565835.755761 6.853965.166788 2.28813.255394 4.581472.255394 6.869601zm0 0" fill="none" stroke="#74a15b" stroke-width="4" transform="scale(.749452)"/><path d="m146.002484 411.998871c0-16.569395 26.858161-30.001082 59.996951-30.001082 15.912666 0 31.168602 3.16377 42.432038 8.792882 11.247799 5.618687 17.570126 13.249261 17.570126 21.2082v60.002163c0 16.569395-26.863373 30.001082-60.002164 30.001082-33.13879 0-59.996951-13.431687-59.996951-30.001082zm0 0" fill="#f5f5f5" stroke="#666" stroke-miterlimit="10" stroke-width="2" transform="scale(.749452)"/><path d="m266.001599 411.998871c0 16.569395-26.863373 30.001082-60.002164 30.001082-33.13879 0-59.996951-13.431687-59.996951-30.001082" fill="none" stroke="#666" stroke-miterlimit="10" stroke-width="2" transform="scale(.749452)"/><g fill="#333"><use x="135.3698" xlink:href="#j" y="356.73923"/><use x="148.35933" xlink:href="#e" y="356.73923"/><use x="158.36275" xlink:href="#f" y="356.73923"/><use x="163.36008" xlink:href="#e" y="356.73923"/></g><path d="m325.99855 397.999061h96.002419v80.001147h-96.002419zm0 0" fill="#f5f5f5" stroke="#666" stroke-width="2" transform="scale(.749452)"/><path d="m338.00211 409.997409h95.997207v80.001147h-95.997207zm0 0" fill="#f5f5f5" stroke="#666" stroke-width="2" transform="scale(.749452)"/><path d="m350.000458 422.000969h95.997207v80.001147h-95.997207zm0 0" fill="#f5f5f5" stroke="#666" stroke-width="2" transform="scale(.749452)"/><g fill="#333"><use x="271.79352" xlink:href="#o" y="352.24252"/><use x="283.79059" xlink:href="#m" y="352.24252"/><use x="293.79404" xlink:href="#m" y="352.24252"/><use x="303.79745" xlink:href="#p" y="352.24252"/><use x="309.78723" xlink:href="#n" y="352.24252"/><use x="318.78064" xlink:href="#q" y="352.24252"/></g><path d="m282.237417 449.578405 27.520103.260607" fill="none" stroke="#5e5e5e" stroke-miterlimit="10" stroke-width="2" transform="scale(.749452)"/><path d="m268.237607 449.437677 14.062356-6.859177-.130304 13.99981zm0 0" fill="none" stroke="#5e5e5e" stroke-miterlimit="10" stroke-width="2" transform="scale(.749452)"/><path d="m323.762542 449.97974-14.062356 6.859177.130304-13.99981zm0 0" fill="none" stroke="#5e5e5e" stroke-miterlimit="10" stroke-width="2" transform="scale(.749452)"/><path d="m925.999335 411.998871c0-16.569395 26.858161-30.001082 60.002163-30.001082 15.907453 0 31.168601 3.16377 42.426825 8.792882 11.253012 5.618687 17.570126 13.249261 17.570126 21.2082v60.002163c0 16.569395-26.858161 30.001082-59.996951 30.001082-33.144002 0-60.002163-13.431687-60.002163-30.001082zm0 0" fill="#f5f5f5" stroke="#666" stroke-miterlimit="10" stroke-width="2" transform="scale(.749452)"/><path d="m1045.998449 411.998871c0 16.569395-26.858161 30.001082-59.996951 30.001082-33.144002 0-60.002163-13.431687-60.002163-30.001082" fill="none" stroke="#666" stroke-miterlimit="10" stroke-width="2" transform="scale(.749452)"/><g fill="#333"><use x="719.94244" xlink:href="#j" y="356.73923"/><use x="732.93201" xlink:href="#e" y="356.73923"/><use x="742.93542" xlink:href="#f" y="356.73923"/><use x="747.93274" xlink:href="#e" y="356.73923"/></g><path d="m1106.000613 397.999061h95.997206v80.001147h-95.997206zm0 0" fill="#f5f5f5" stroke="#666" stroke-width="2" transform="scale(.749452)"/><path d="m1117.99896 409.997409h96.002419v80.001147h-96.002419zm0 0" fill="#f5f5f5" stroke="#666" stroke-width="2" transform="scale(.749452)"/><path d="m1130.00252 422.000969h95.997207v80.001147h-95.997207zm0 0" fill="#f5f5f5" stroke="#666" stroke-width="2" transform="scale(.749452)"/><g fill="#333"><use x="856.36621" xlink:href="#o" y="352.24252"/><use x="868.36328" xlink:href="#m" y="352.24252"/><use x="878.3667" xlink:href="#m" y="352.24252"/><use x="888.37012" xlink:href="#p" y="352.24252"/><use x="894.35992" xlink:href="#n" y="352.24252"/><use x="903.35333" xlink:href="#q" y="352.24252"/></g><path d="m1062.23948 449.578405 27.520102.260607" fill="none" stroke="#5e5e5e" stroke-miterlimit="10" stroke-width="2" transform="scale(.749452)"/><path d="m1048.23967 449.437677 14.062355-6.859177-.130303 13.99981zm0 0" fill="none" stroke="#5e5e5e" stroke-miterlimit="10" stroke-width="2" transform="scale(.749452)"/><path d="m1103.759392 449.97974-14.057143 6.859177.130303-13.99981zm0 0" fill="none" stroke="#5e5e5e" stroke-miterlimit="10" stroke-width="2" transform="scale(.749452)"/><path d="m903.998889 861.99946c0 2.293341-.083394 4.581471-.250183 6.869601-.172 2.28813-.422183 4.571047-.760972 6.853965-.333577 2.277705-.755761 4.550199-1.261338 6.81748-.505578 2.267281-1.089338 4.524138-1.761704 6.770571-.672366 2.246432-1.422914 4.482441-2.256857 6.708025-.833942 2.220372-1.751279 4.430319-2.75201 6.619418-.995519 2.194312-2.074432 4.367774-3.231527 6.5256-1.157095 2.157827-2.392373 4.294804-3.711044 6.410933-1.31346 2.11613-2.705101 4.21141-4.174925 6.28063-1.469824 2.074432-3.012617 4.117591-4.633593 6.139902-1.620976 2.02231-3.314922 4.013348-5.081837 5.978325-1.766916 1.964977-3.606802 3.898681-5.514445 5.806325-1.907644 1.902431-3.888257 3.778802-5.936628 5.618687-2.043159 1.839886-4.159289 3.643287-6.337963 5.415414-2.183887 1.772128-4.425108 3.507771-6.734086 5.201717-2.308978 1.699158-4.67529 3.356618-7.10936 4.977594-2.428858 1.620976-4.915049 3.200255-7.463785 4.737836-2.543525 1.542794-5.149595 3.038678-7.802575 4.487653-2.658192 1.454187-5.368505 2.866678-8.125727 4.232258-2.762435 1.360369-5.571779 2.679041-8.428032 3.956015-2.856253 1.271762-5.759415 2.496616-8.709487 3.674559-2.944859 1.177944-5.936628 2.308979-8.964882 3.387892-3.033466 1.078913-6.103416 2.110917-9.209852 3.090799-3.106436.979883-6.249357 1.907644-9.423551 2.783283-3.174193.87564-6.37966 1.699158-9.616399 2.470555s-6.49954 1.490672-9.7884 2.157826c-3.288861.661942-6.59857 1.276975-9.93434 1.829462-3.330558.557699-6.681965 1.063276-10.05422 1.506308-3.372255.448244-6.754934.839155-10.15325 1.177944-3.403528.333577-6.812268.615033-10.231432.839155s-6.848753.396122-10.278341.505577c-3.434801.114667-6.869602.166789-10.304402.166789-3.440013 0-6.874814-.052122-10.304402-.166789-3.434801-.109455-6.859178-.281455-10.278342-.505577-3.424376-.224122-6.833116-.505578-10.231432-.839155-3.398316-.338789-6.786207-.7297-10.158462-1.177944-3.367043-.443032-6.723662-.948609-10.054219-1.506308-3.33577-.552487-6.64548-1.16752-9.934341-1.829462-3.28886-.667154-6.55166-1.386429-9.7884-2.157826-3.236739-.771397-6.442206-1.594915-9.616399-2.470555-3.174194-.875639-6.317115-1.8034-9.423551-2.783283-3.106435-.979882-6.176386-2.011886-9.20464-3.090799-3.033466-1.078913-6.020022-2.209948-8.970094-3.387892-2.94486-1.177943-5.848022-2.402797-8.709487-3.674559-2.856253-1.276974-5.665597-2.595646-8.422819-3.956015-2.762435-1.36558-5.472748-2.778071-8.125728-4.232258-2.658191-1.448975-5.25905-2.944859-7.807786-4.487653-2.543525-1.537581-5.034928-3.11686-7.463786-4.737836-2.428857-1.620976-4.800381-3.278436-7.10936-4.977594-2.303766-1.693946-4.550199-3.429589-6.728873-5.201717-2.183887-1.772127-4.294804-3.575528-6.343176-5.415414-2.048371-1.839885-4.023772-3.716256-5.936628-5.618687-1.907643-1.907644-3.747529-3.841348-5.514445-5.806325-1.766915-1.964977-3.460861-3.956015-5.076625-5.978325-1.620975-2.022311-3.168981-4.06547-4.638805-6.139902-1.464611-2.06922-2.861465-4.1645-4.174924-6.28063-1.31346-2.116129-2.553949-4.253106-3.711045-6.410933-1.157095-2.157826-2.236008-4.331288-3.231527-6.5256-.995519-2.189099-1.912855-4.399046-2.746798-6.619418-.839155-2.225584-1.589703-4.461593-2.262069-6.708025-.667154-2.246433-1.256126-4.50329-1.761704-6.770571-.505577-2.267281-.922548-4.539775-1.261338-6.81748-.338789-2.282918-.588971-4.565835-.75576-6.853965-.172001-2.28813-.255395-4.57626-.255395-6.869601 0-2.28813.083394-4.581472.255395-6.869602.166789-2.28813.416971-4.571047.75576-6.853965.33879-2.277705.755761-4.550199 1.261338-6.81748.505578-2.267281 1.09455-4.524138 1.761704-6.770571.672366-2.246432 1.422914-4.482441 2.262069-6.702812.833943-2.225584 1.751279-4.43032 2.746798-6.624631s2.074432-4.367774 3.231527-6.5256c1.157096-2.157827 2.397585-4.294804 3.711045-6.410933 1.313459-2.116129 2.710313-4.21141 4.174924-6.28063 1.469824-2.074432 3.01783-4.117591 4.638805-6.139902 1.615764-2.017098 3.30971-4.013348 5.076625-5.978325 1.766916-1.964977 3.606802-3.898681 5.514445-5.806325 1.912856-1.902431 3.888257-3.778802 5.936628-5.618687 2.048372-1.839886 4.159289-3.643287 6.343176-5.415414 2.178674-1.772128 4.425107-3.507771 6.728873-5.201717 2.308979-1.699158 4.680503-3.356618 7.10936-4.977594 2.428858-1.620976 4.920261-3.200254 7.463786-4.737836 2.548736-1.537581 5.149595-3.033466 7.807786-4.487653 2.65298-1.454187 5.363293-2.861465 8.125728-4.227046 2.757222-1.365581 5.566566-2.684253 8.422819-3.956015 2.861465-1.276974 5.764627-2.501827 8.709487-3.679771 2.950072-1.177944 5.936628-2.303766 8.970094-3.387892 3.028254-1.078913 6.098205-2.105704 9.20464-3.085587 3.106436-.979882 6.249357-1.907643 9.423551-2.788495 3.174193-.87564 6.37966-1.699158 9.616399-2.470555 3.23674-.771397 6.49954-1.490672 9.7884-2.157826 3.288861-.661942 6.598571-1.271762 9.934341-1.829461 3.330557-.5577 6.687176-1.058065 10.054219-1.506309 3.372255-.448244 6.760146-.839155 10.158462-1.177944 3.398316-.333577 6.807056-.615033 10.231432-.839155 3.419164-.224122 6.843541-.39091 10.278342-.505577 3.429588-.109455 6.864389-.166789 10.304402-.166789 3.4348 0 6.869601.057334 10.304402.166789 3.429588.114667 6.859177.281455 10.278341.505577s6.827904.505578 10.231432.839155c3.398316.338789 6.780995.7297 10.15325 1.177944s6.723662.948609 10.05422 1.506309c3.33577.557699 6.645479 1.167519 9.93434 1.829461 3.28886.667154 6.551661 1.386429 9.7884 2.157826s6.442206 1.594915 9.616399 2.470555c3.174194.880852 6.317115 1.808613 9.423551 2.788495 3.106436.979883 6.176386 2.006674 9.209852 3.085587 3.028254 1.084126 6.020023 2.209948 8.964882 3.387892 2.950072 1.177944 5.853234 2.402797 8.709487 3.679771 2.856253 1.271762 5.665597 2.590434 8.428032 3.956015 2.757222 1.365581 5.467535 2.772859 8.125727 4.227046 2.65298 1.454187 5.25905 2.950072 7.802575 4.487653 2.548736 1.537582 5.034927 3.11686 7.463785 4.737836 2.43407 1.620976 4.800382 3.278436 7.10936 4.977594s4.550199 3.429589 6.734086 5.201717c2.178674 1.772127 4.294804 3.575528 6.337963 5.415414 2.048371 1.839885 4.028984 3.716256 5.936628 5.618687 1.907643 1.907644 3.747529 3.841348 5.514445 5.806325 1.766915 1.964977 3.460861 3.961227 5.081837 5.978325 1.620976 2.022311 3.163769 4.06547 4.633593 6.139902 1.469824 2.06922 2.861465 4.164501 4.174925 6.28063 1.318671 2.116129 2.553949 4.253106 3.711044 6.410933 1.157095 2.157826 2.236008 4.331289 3.231527 6.5256 1.000731 2.194311 1.918068 4.399047 2.75201 6.624631.833943 2.220371 1.584491 4.45638 2.256857 6.702812.672366 2.246433 1.256126 4.50329 1.761704 6.770571.505577 2.267281.927761 4.539775 1.261338 6.81748.338789 2.282918.588972 4.565835.760972 6.853965.166789 2.28813.250183 4.581472.250183 6.869602zm0 0" fill="none" stroke="#526c91" stroke-width="4" transform="scale(.749452)"/><path d="m545.997795 811.999394c0-16.569395 26.863373-30.001082 60.002164-30.001082 15.907453 0 31.168601 3.16377 42.432037 8.792882 11.247799 5.618687 17.570126 13.249261 17.570126 21.2082v60.002163c0 16.569396-26.863373 29.99587-60.002163 29.99587-33.138791 0-60.002164-13.426474-60.002164-29.99587zm0 0" fill="#f5f5f5" stroke="#666" stroke-miterlimit="10" stroke-width="2" transform="scale(.749452)"/><path d="m666.002122 811.999394c0 16.569395-26.863373 30.001082-60.002163 30.001082-33.138791 0-60.002164-13.431687-60.002164-30.001082" fill="none" stroke="#666" stroke-miterlimit="10" stroke-width="2" transform="scale(.749452)"/><g fill="#333"><use x="435.15067" xlink:href="#j" y="656.52008"/><use x="448.14017" xlink:href="#e" y="656.52008"/><use x="458.14362" xlink:href="#f" y="656.52008"/><use x="463.14093" xlink:href="#e" y="656.52008"/></g><path d="m725.999073 797.999584h96.002419v80.001147h-96.002419zm0 0" fill="#f5f5f5" stroke="#666" stroke-width="2" transform="scale(.749452)"/><path d="m737.997421 809.997932h96.002419v80.001147h-96.002419zm0 0" fill="#f5f5f5" stroke="#666" stroke-width="2" transform="scale(.749452)"/><path d="m750.000981 822.001492h95.997207v79.995935h-95.997207zm0 0" fill="#f5f5f5" stroke="#666" stroke-width="2" transform="scale(.749452)"/><g fill="#333"><use x="571.57434" xlink:href="#o" y="652.02338"/><use x="583.57147" xlink:href="#m" y="652.02338"/><use x="593.57489" xlink:href="#m" y="652.02338"/><use x="603.57831" xlink:href="#p" y="652.02338"/><use x="609.56805" xlink:href="#n" y="652.02338"/><use x="618.56152" xlink:href="#q" y="652.02338"/></g><path d="m682.23794 849.578928 27.520103.260607" fill="none" stroke="#5e5e5e" stroke-miterlimit="10" stroke-width="2" transform="scale(.749452)"/><path d="m668.23813 849.438201 14.062356-6.859178-.130304 13.99981zm0 0" fill="none" stroke="#5e5e5e" stroke-miterlimit="10" stroke-width="2" transform="scale(.749452)"/><path d="m723.757853 849.980263-14.057144 6.859177.130304-13.99981zm0 0" fill="none" stroke="#5e5e5e" stroke-miterlimit="10" stroke-width="2" transform="scale(.749452)"/><g fill="#333"><use x="190.82925" xlink:href="#j" y="419.69321"/><use x="203.81879" xlink:href="#h" y="419.69321"/><use x="213.8222" xlink:href="#g" y="419.69321"/><use x="228.8054" xlink:href="#e" y="419.69321"/><use x="238.80882" xlink:href="#k" y="419.69321"/><use x="242.80493" xlink:href="#l" y="419.69321"/></g><g fill="#333"><use x="775.40192" xlink:href="#j" y="419.69321"/><use x="788.39148" xlink:href="#h" y="419.69321"/><use x="798.3949" xlink:href="#g" y="419.69321"/><use x="813.37805" xlink:href="#e" y="419.69321"/><use x="823.38147" xlink:href="#k" y="419.69321"/><use x="827.37762" xlink:href="#l" y="419.69321"/></g><g fill="#333"><use x="490.61011" xlink:href="#j" y="719.47406"/><use x="503.59964" xlink:href="#h" y="719.47406"/><use x="513.60309" xlink:href="#g" y="719.47406"/><use x="528.58624" xlink:href="#e" y="719.47406"/><use x="538.58966" xlink:href="#k" y="719.47406"/><use x="542.58582" xlink:href="#l" y="719.47406"/></g><path d="m605.999959 542.000083c0 1.31346-.130304 2.611283-.385699 3.903894-.255395 1.287399-.635881 2.538312-1.136246 3.747529-.505578 1.214429-1.120611 2.366312-1.85031 3.460861-.7297 1.089338-1.55843 2.100493-2.486191 3.028254s-1.938917 1.761704-3.028254 2.486191c-1.09455.7297-2.246433 1.349945-3.460862 1.85031-1.214428.505578-2.46013.880852-3.752741 1.136247-1.287399.260607-2.585222.385698-3.898681.385698-1.31346 0-2.616495-.125091-3.903893-.385698-1.287399-.255395-2.538313-.630669-3.752742-1.136247-1.209216-.500365-2.366312-1.12061-3.455649-1.85031-1.09455-.724487-2.100493-1.55843-3.033466-2.486191-.927761-.927761-1.756491-1.938916-2.486191-3.028254-.7297-1.094549-1.344732-2.246432-1.845098-3.460861-.505577-1.209217-.886064-2.46013-1.141459-3.747529-.255394-1.292611-.380486-2.590434-.380486-3.903894 0-1.313459.125092-2.616494.380486-3.903893.255395-1.287399.635882-2.538312 1.141459-3.747529.500366-1.214429 1.115398-2.366312 1.845098-3.460861.7297-1.089338 1.55843-2.100493 2.486191-3.028254.932973-.927761 1.938916-1.761704 3.033466-2.491403 1.089337-.724488 2.246433-1.344733 3.455649-1.845098 1.214429-.505578 2.465343-.880852 3.752742-1.136247 1.287398-.260607 2.590433-.385698 3.903893-.385698 1.313459 0 2.611282.125091 3.898681.385698 1.292611.255395 2.538313.630669 3.752741 1.136247 1.214429.500365 2.366312 1.12061 3.460862 1.845098 1.089337.729699 2.100493 1.563642 3.028254 2.491403s1.756491 1.938916 2.486191 3.028254c.729699 1.094549 1.344732 2.246432 1.85031 3.460861.500365 1.209217.880851 2.46013 1.136246 3.747529s.385699 2.590434.385699 3.903893zm0 0" fill="none" stroke="#ff8000" stroke-width="4" transform="scale(.749452)"/><path d="m795.998122 542.000083c0 1.31346-.125091 2.611283-.380486 3.903894-.260607 1.287399-.635881 2.538312-1.141459 3.747529-.500365 1.214429-1.115398 2.366312-1.845098 3.460861-.729699 1.089338-1.55843 2.100493-2.491403 3.028254-.927761.927761-1.938916 1.761704-3.028254 2.486191-1.094549.7297-2.246432 1.349945-3.455649 1.85031-1.214429.505578-2.465342.880852-3.752741 1.136247-1.287399.260607-2.590434.385698-3.903893.385698-1.31346 0-2.611283-.125091-3.898682-.385698-1.292611-.255395-2.543524-.630669-3.752741-1.136247-1.214429-.500365-2.366312-1.12061-3.460861-1.85031-1.089338-.724487-2.100493-1.55843-3.028254-2.486191s-1.756491-1.938916-2.486191-3.028254c-.7297-1.094549-1.349945-2.246432-1.85031-3.460861-.500366-1.209217-.880852-2.46013-1.136247-3.747529-.255395-1.292611-.385698-2.590434-.385698-3.903894 0-1.313459.130303-2.616494.385698-3.903893s.635881-2.538312 1.136247-3.747529c.500365-1.214429 1.12061-2.366312 1.85031-3.460861.7297-1.089338 1.55843-2.100493 2.486191-3.028254s1.938916-1.761704 3.028254-2.491403c1.094549-.724488 2.246432-1.344733 3.460861-1.845098 1.209217-.505578 2.46013-.880852 3.752741-1.136247 1.287399-.260607 2.585222-.385698 3.898682-.385698 1.313459 0 2.616494.125091 3.903893.385698 1.287399.255395 2.538312.630669 3.752741 1.136247 1.209217.500365 2.3611 1.12061 3.455649 1.845098 1.089338.729699 2.100493 1.563642 3.028254 2.491403.932973.927761 1.761704 1.938916 2.491403 3.028254.7297 1.094549 1.344733 2.246432 1.845098 3.460861.505578 1.209217.880852 2.46013 1.141459 3.747529.255395 1.287399.380486 2.590434.380486 3.903893zm0 0" fill="none" stroke="#74a15b" stroke-width="4" transform="scale(.749452)"/><path d="m706.000089 642.000214c0 1.31346-.130303 2.611283-.385698 3.903894-.255395 1.287398-.635881 2.538312-1.136247 3.747529-.505577 1.214429-1.12061 2.366312-1.85031 3.460861-.729699 1.089338-1.55843 2.100493-2.486191 3.028254s-1.938916 1.756491-3.028253 2.486191c-1.09455.7297-2.246433 1.349944-3.460862 1.85031-1.214429.500365-2.465342.880852-3.752741 1.136247-1.287399.260607-2.585222.385698-3.898681.385698-1.31346 0-2.616495-.125091-3.903894-.385698-1.287398-.255395-2.538312-.635882-3.752741-1.136247-1.209217-.500366-2.366312-1.12061-3.455649-1.85031-1.09455-.7297-2.100493-1.55843-3.033466-2.486191-.927761-.927761-1.756491-1.938916-2.486191-3.028254-.7297-1.094549-1.344732-2.246432-1.845098-3.460861-.505578-1.209217-.886064-2.460131-1.141459-3.747529-.255395-1.292611-.380486-2.590434-.380486-3.903894 0-1.313459.125091-2.616494.380486-3.903893s.635881-2.538313 1.141459-3.747529c.500366-1.214429 1.115398-2.366312 1.845098-3.460862.7297-1.089337 1.55843-2.100492 2.486191-3.028253.932973-.932974 1.938916-1.761704 3.033466-2.491404 1.089337-.729699 2.246432-1.344732 3.455649-1.845097 1.214429-.505578 2.465343-.880852 3.752741-1.141459 1.287399-.255395 2.590434-.380486 3.903894-.380486 1.313459 0 2.611282.125091 3.898681.380486 1.287399.260607 2.538312.635881 3.752741 1.141459 1.214429.500365 2.366312 1.115398 3.460862 1.845097 1.089337.7297 2.100492 1.55843 3.028253 2.491404.927761.927761 1.756492 1.938916 2.486191 3.028253.7297 1.09455 1.344733 2.246433 1.85031 3.460862.500366 1.209216.880852 2.46013 1.136247 3.747529s.385698 2.590434.385698 3.903893zm0 0" fill="none" stroke="#526c91" stroke-width="4" transform="scale(.749452)"/><g fill="#333"><use x="495.13025" xlink:href="#j" y="398.70853"/><use x="508.11978" xlink:href="#e" y="398.70853"/><use x="518.12323" xlink:href="#f" y="398.70853"/><use x="523.12054" xlink:href="#e" y="398.70853"/></g><g fill="#333"><use x="483.1156" xlink:href="#r" y="419.69321"/><use x="495.11267" xlink:href="#s" y="419.69321"/><use x="505.11612" xlink:href="#e" y="419.69321"/><use x="515.11951" xlink:href="#d" y="419.69321"/><use x="521.10931" xlink:href="#k" y="419.69321"/><use x="525.10541" xlink:href="#l" y="419.69321"/><path d="m.890625.765625 1.546875.234375c.0625.476563.238281.820313.53125 1.03125.394531.289063.929688.4375 1.609375.4375.726563 0 1.289063-.148437 1.6875-.4375.394531-.292969.664063-.699219.8125-1.21875.082031-.324219.117188-1 .109375-2.03125-.6875.8125-1.546875 1.21875-2.578125 1.21875-1.28125 0-2.277344-.460938-2.984375-1.390625-.699219-.925781-1.046875-2.035156-1.046875-3.328125 0-.882813.160156-1.703125.484375-2.453125.320313-.757813.785156-1.34375 1.390625-1.75.613281-.40625 1.335938-.609375 2.171875-.609375 1.09375 0 2 .445312 2.71875 1.328125v-1.125h1.453125v8.0625c0 1.445313-.152344 2.472656-.453125 3.078125-.292969.613281-.761719 1.09375-1.40625 1.4375-.636719.351563-1.421875.53125-2.359375.53125-1.105469 0-2-.25-2.6875-.75s-1.023437-1.257812-1-2.265625zm1.3125-5.59375c0 1.21875.238281 2.109375.71875 2.671875.488281.5625 1.101563.84375 1.84375.84375.71875 0 1.320313-.273438 1.8125-.828125.5-.5625.75-1.441406.75-2.640625 0-1.132813-.257812-1.992188-.765625-2.578125-.511719-.582031-1.121094-.875-1.828125-.875-.710937 0-1.308594.289062-1.796875.859375-.492187.574219-.734375 1.421875-.734375 2.546875zm0 0" transform="translate(535.10883 419.69321)"/></g><g fill="#333"><use x="495.13025" xlink:href="#o" y="442.17676"/><use x="507.12735" xlink:href="#t" y="442.17676"/><path d="m1.671875 0v-12.875h1.703125v12.875zm0 0" transform="translate(519.12445 442.17676)"/><use x="524.12177" xlink:href="#n" y="442.17676"/></g><path d="m505.999828 481.99792 65.860609 45.861626" fill="none" stroke="#ff8000" stroke-miterlimit="10" stroke-width="2" transform="scale(.749452)"/><path d="m790.139676 527.859546 75.862708-45.861626" fill="none" stroke="#74a15b" stroke-miterlimit="10" stroke-width="2" transform="scale(.749452)"/><path d="m685.599771 723.961126.401335-61.961928" fill="none" stroke="#526c91" stroke-miterlimit="10" stroke-width="2" transform="scale(.749452)"/><path d="m2.501828 1201.997819h1359.998651v160.002295h-1359.998651zm0 0" fill="#f5f5f5" stroke="#666" stroke-width="2" transform="scale(.749452)"/><g fill="#333"><use x="413.15894" xlink:href="#r" y="956.30096"/><use x="425.15601" xlink:href="#b" y="956.30096"/><use x="435.15945" xlink:href="#u" y="956.30096"/><use x="439.15555" xlink:href="#i" y="956.30096"/><path d="m.578125-3.859375v-1.59375h4.84375v1.59375zm0 0" transform="translate(444.15286 956.30096)"/><use x="450.14264" xlink:href="#n" y="956.30096"/><use x="459.13605" xlink:href="#b" y="956.30096"/><use x="469.1395" xlink:href="#d" y="956.30096"/><path d="m3.78125 0-3.546875-9.328125h1.65625l2.015625 5.59375c.207031.59375.40625 1.21875.59375 1.875.132813-.488281.328125-1.082031.578125-1.78125l2.078125-5.6875h1.625l-3.53125 9.328125zm0 0" transform="translate(475.12924 956.30096)"/><use x="484.12268" xlink:href="#b" y="956.30096"/><use x="499.12341" xlink:href="#j" y="956.30096"/><use x="512.11298" xlink:href="#e" y="956.30096"/><use x="522.11639" xlink:href="#f" y="956.30096"/><use x="527.11371" xlink:href="#e" y="956.30096"/><use x="542.11444" xlink:href="#t" y="956.30096"/><use x="554.11157" xlink:href="#u" y="956.30096"/><use x="558.10767" xlink:href="#e" y="956.30096"/><use x="568.11108" xlink:href="#f" y="956.30096"/><use x="573.1084" xlink:href="#i" y="956.30096"/><use x="578.10571" xlink:href="#h" y="956.30096"/><use x="588.10913" xlink:href="#d" y="956.30096"/><use x="594.09894" xlink:href="#g" y="956.30096"/></g><g fill="#333"><path d="m3.640625 0-3.421875-12.875h1.75l1.953125 8.4375c.207031.886719.390625 1.765625.546875 2.640625.332031-1.375.523438-2.171875.578125-2.390625l2.453125-8.6875h2.046875l1.84375 6.515625c.46875 1.617187.804688 3.136719 1.015625 4.5625.15625-.8125.367188-1.742188.640625-2.796875l2.015625-8.28125h1.703125l-3.515625 12.875h-1.65625l-2.703125-9.8125c-.230469-.8125-.367187-1.3125-.40625-1.5-.136719.585937-.261719 1.085937-.375 1.5l-2.734375 9.8125zm0 0" transform="translate(440.16263 978.78448)"/><use x="457.13947" xlink:href="#k" y="978.78448"/><use x="461.13556" xlink:href="#f" y="978.78448"/><use x="466.13287" xlink:href="#s" y="978.78448"/><use x="481.13364" xlink:href="#k" y="978.78448"/><use x="485.12973" xlink:href="#f" y="978.78448"/><use x="490.12708" xlink:href="#n" y="978.78448"/><use x="504.11783" xlink:href="#h" y="978.78448"/><path d="m2.90625 0-2.859375-9.328125h1.640625l1.484375 5.390625.546875 2c.03125-.101563.191406-.742188.484375-1.921875l1.484375-5.46875h1.625l1.40625 5.40625.453125 1.78125.546875-1.796875 1.59375-5.390625h1.53125l-2.90625 9.328125h-1.640625l-1.484375-5.578125-.359375-1.59375-1.890625 7.171875zm0 0" transform="translate(514.12122 978.78448)"/><use x="527.11078" xlink:href="#l" y="978.78448"/><use x="542.11151" xlink:href="#f" y="978.78448"/><use x="547.10883" xlink:href="#b" y="978.78448"/><use x="557.1123" xlink:href="#e" y="978.78448"/><use x="567.11572" xlink:href="#g" y="978.78448"/></g><g fill="none"><path d="m305.999566 1201.997819v-563.755558" stroke="#9e9e9e" stroke-miterlimit="10" stroke-width="2" transform="scale(.749452)"/><path d="m305.999566 624.242451 6.999905 13.99981h-13.99981zm0 0" stroke="#9e9e9e" stroke-miterlimit="10" stroke-width="2" transform="scale(.749452)"/><path d="m1106.000613 1201.997819v-563.755558" stroke="#9e9e9e" stroke-miterlimit="10" stroke-width="2" transform="scale(.749452)"/><path d="m1106.000613 624.242451 6.999905 13.99981h-13.99981zm0 0" stroke="#9e9e9e" stroke-miterlimit="10" stroke-width="2" transform="scale(.749452)"/><path d="m683.999644 1201.997819.750548-163.760247" stroke="#9e9e9e" stroke-miterlimit="10" stroke-width="2" transform="scale(.749452)"/><path d="m684.807526 1024.237762 6.942571 14.031083-13.99981-.067758zm0 0" stroke="#9e9e9e" stroke-miterlimit="10" stroke-width="2" transform="scale(.749452)"/></g><path d="m297.074219 972.652344c.414062-8.109375 6.84375-14.566406 14.699219-14.566406 2.652343 0 5.253906.742187 7.523437 2.15625 4.210938 2.625 6.910156 7.332031 7.171875 12.410156zm6.679687-24.625c0-4.453125 3.597657-8.078125 8.019532-8.078125s8.019531 3.625 8.019531 8.078125-3.597656 8.070312-8.019531 8.070312-8.019532-3.617187-8.019532-8.070312zm16.410157 10.828125c-1.414063-.882813-2.957032-1.527344-4.546875-1.925781 3.410156-1.5 5.808593-4.921875 5.808593-8.902344 0-5.359375-4.332031-9.714844-9.652343-9.714844-5.324219 0-9.652344 4.355469-9.652344 9.714844 0 3.988281 2.394531 7.410156 5.820312 8.910156-7.171875 1.800781-12.523437 8.523438-12.523437 16.535156 0 .449219.367187.816407.816406.816407h31.074219c.449219 0 .816406-.367188.816406-.816407 0-5.953125-3.050781-11.558593-7.960937-14.617187zm0 0" fill="#9e9e9e"/><path d="m342.042969 972.652344c.410156-8.109375 6.84375-14.566406 14.695312-14.566406 2.652344 0 5.253907.742187 7.527344 2.15625 4.210938 2.625 6.90625 7.332031 7.171875 12.410156zm6.675781-24.625c0-4.453125 3.597656-8.078125 8.019531-8.078125s8.019532 3.625 8.019532 8.078125-3.597657 8.070312-8.019532 8.070312-8.019531-3.617187-8.019531-8.070312zm16.414063 10.828125c-1.417969-.882813-2.960938-1.527344-4.550782-1.925781 3.410157-1.5 5.808594-4.921875 5.808594-8.902344 0-5.359375-4.332031-9.714844-9.652344-9.714844-5.320312 0-9.652343 4.355469-9.652343 9.714844 0 3.988281 2.398437 7.410156 5.824218 8.910156-7.171875 1.800781-12.523437 8.523438-12.523437 16.535156 0 .449219.367187.816407.816406.816407h31.070313c.453125 0 .820312-.367188.820312-.816407 0-5.953125-3.050781-11.558593-7.960937-14.617187zm0 0" fill="#9e9e9e"/><path d="m641.824219 972.652344c.410156-8.109375 6.839844-14.566406 14.695312-14.566406 2.652344 0 5.253907.742187 7.523438 2.15625 4.214844 2.625 6.910156 7.332031 7.175781 12.410156zm6.675781-24.625c0-4.453125 3.597656-8.078125 8.019531-8.078125s8.019532 3.625 8.019532 8.078125-3.597657 8.070312-8.019532 8.070312-8.019531-3.617187-8.019531-8.070312zm16.414063 10.828125c-1.417969-.882813-2.960938-1.527344-4.550782-1.925781 3.410157-1.5 5.808594-4.921875 5.808594-8.902344 0-5.359375-4.332031-9.714844-9.652344-9.714844-5.320312 0-9.652343 4.355469-9.652343 9.714844 0 3.988281 2.398437 7.410156 5.824218 8.910156-7.171875 1.800781-12.523437 8.523438-12.523437 16.535156 0 .449219.367187.816407.816406.816407h31.070313c.453125 0 .820312-.367188.820312-.816407 0-5.953125-3.050781-11.558593-7.960937-14.617187zm0 0" fill="#9e9e9e"/><path d="m686.789063 972.652344c.414062-8.109375 6.84375-14.566406 14.699218-14.566406 2.652344 0 5.253907.742187 7.523438 2.15625 4.210937 2.625 6.910156 7.332031 7.171875 12.410156zm6.679687-24.625c0-4.453125 3.597656-8.078125 8.019531-8.078125s8.019532 3.625 8.019532 8.078125-3.597657 8.070312-8.019532 8.070312-8.019531-3.617187-8.019531-8.070312zm16.414063 10.828125c-1.417969-.882813-2.960938-1.527344-4.550782-1.925781 3.410157-1.5 5.808594-4.921875 5.808594-8.902344 0-5.359375-4.332031-9.714844-9.652344-9.714844-5.320312 0-9.652343 4.355469-9.652343 9.714844 0 3.988281 2.398437 7.410156 5.820312 8.910156-7.171875 1.800781-12.523437 8.523438-12.523437 16.535156 0 .449219.367187.816407.816406.816407h31.074219c.449218 0 .816406-.367188.816406-.816407 0-5.953125-3.050781-11.558593-7.957031-14.617187zm0 0" fill="#9e9e9e"/><path d="m550.808601 194.272119-244.809035-92.270526" fill="none" stroke="#ff8000" stroke-miterlimit="10" stroke-width="2" transform="scale(.749452)"/><path d="m563.911923 199.208016-15.573877 1.610552 4.94111-13.09811zm0 0" fill="none" stroke="#ff8000" stroke-miterlimit="10" stroke-width="2" transform="scale(.749452)"/><path d="m681.320603 183.759231v-81.757638" fill="none" stroke="#526c91" stroke-miterlimit="10" stroke-width="2" transform="scale(.749452)"/><path d="m681.320603 197.759041-6.999905-13.99981h13.99981zm0 0" fill="none" stroke="#526c91" stroke-miterlimit="10" stroke-width="2" transform="scale(.749452)"/><path d="m821.428157 190.96241 284.572456-92.963741" fill="none" stroke="#74a15b" stroke-miterlimit="10" stroke-width="2" transform="scale(.749452)"/><path d="m808.131986 195.309335 11.12792-11.008041 4.352138 13.306595zm0 0" fill="none" stroke="#74a15b" stroke-miterlimit="10" stroke-width="2" transform="scale(.749452)"/><g fill="#333"><path d="m.875-6.265625c0-2.132813.570313-3.804688 1.71875-5.015625 1.144531-1.21875 2.625-1.828125 4.4375-1.828125 1.1875 0 2.253906.289062 3.203125.859375.957031.574219 1.6875 1.371094 2.1875 2.390625.507813 1.011719.765625 2.15625.765625 3.4375 0 1.304687-.265625 2.46875-.796875 3.5s-1.28125 1.8125-2.25 2.34375c-.960937.53125-1.996094.796875-3.109375.796875-1.21875 0-2.308594-.2890625-3.265625-.875-.949219-.582031-1.667969-1.378906-2.15625-2.390625-.492187-1.019531-.734375-2.09375-.734375-3.21875zm1.75.015625c0 1.554687.414063 2.777344 1.25 3.671875.832031.898437 1.878906 1.34375 3.140625 1.34375 1.28125 0 2.332031-.445313 3.15625-1.34375.832031-.90625 1.25-2.1875 1.25-3.84375 0-1.050781-.179687-1.96875-.53125-2.75-.355469-.78125-.875-1.382813-1.5625-1.8125-.679687-.4375-1.4375-.65625-2.28125-.65625-1.210937 0-2.25.417969-3.125 1.25-.867187.824219-1.296875 2.203125-1.296875 4.140625zm0 0" transform="translate(426.13382 194.85756)"/><use x="440.12457" xlink:href="#m" y="194.85756"/><use x="450.12799" xlink:href="#b" y="194.85756"/><use x="460.13141" xlink:href="#d" y="194.85756"/><use x="466.12119" xlink:href="#e" y="194.85756"/><use x="476.1246" xlink:href="#f" y="194.85756"/><use x="481.12195" xlink:href="#k" y="194.85756"/><use x="485.11804" xlink:href="#h" y="194.85756"/><use x="495.12146" xlink:href="#l" y="194.85756"/><use x="505.12491" xlink:href="#e" y="194.85756"/><use x="515.12836" xlink:href="#u" y="194.85756"/><use x="524.12177" xlink:href="#j" y="194.85756"/><use x="537.11127" xlink:href="#b" y="194.85756"/><path d="m7.265625-3.421875 1.5625.203125c-.167969 1.074219-.605469 1.914062-1.3125 2.515625-.699219.6054687-1.558594.90625-2.578125.90625-1.273437 0-2.296875-.414063-3.078125-1.25-.773437-.832031-1.15625-2.023438-1.15625-3.578125 0-1.007813.164063-1.890625.5-2.640625.332031-.757813.835938-1.328125 1.515625-1.703125.6875-.375 1.429688-.5625 2.234375-.5625 1.007813 0 1.835938.257812 2.484375.765625.644531.511719 1.054688 1.234375 1.234375 2.171875l-1.53125.25c-.148437-.625-.40625-1.09375-.78125-1.40625-.375-.320313-.824219-.484375-1.34375-.484375-.804687 0-1.453125.289062-1.953125.859375-.492187.5625-.734375 1.464844-.734375 2.703125 0 1.25.238281 2.164062.71875 2.734375.476563.5625 1.101563.84375 1.875.84375.625 0 1.144531-.1875 1.5625-.5625.414063-.382813.675781-.972656.78125-1.765625zm0 0" transform="translate(547.11469 194.85756)"/><use x="556.10815" xlink:href="#k" y="194.85756"/><use x="560.10425" xlink:href="#n" y="194.85756"/><use x="569.09766" xlink:href="#k" y="194.85756"/><use x="573.09375" xlink:href="#h" y="194.85756"/><use x="583.09717" xlink:href="#l" y="194.85756"/><use x="593.10065" xlink:href="#n" y="194.85756"/></g></svg>