<svg height="575.03998pt" viewBox="0 0 782.88 575.03998" width="782.88pt" xmlns="http://www.w3.org/2000/svg" xmlns:xlink="http://www.w3.org/1999/xlink"><defs><clipPath id="a"><path d="m0 360h782.878906v213h-782.878906zm0 0"/></clipPath><clipPath id="b"><path d="m600 0h182.878906v93h-182.878906zm0 0"/></clipPath><g id="c"><path d="m.8125-4.140625 1.609375-.140625c.070313.648437.242188 1.179687.515625 1.59375.28125.40625.710938.742187 1.296875 1 .59375.25 1.253906.375 1.984375.375.65625 0 1.226563-.09375 1.71875-.28125.5-.195313.867188-.460938 1.109375-.796875.25-.34375.375-.710938.375-1.109375 0-.40625-.121094-.757813-.359375-1.0625-.230469-.300781-.617187-.550781-1.15625-.75-.34375-.132813-1.109375-.34375-2.296875-.625-1.179687-.289063-2.007812-.5625-2.484375-.8125-.617187-.320313-1.074219-.722656-1.375-1.203125-.304687-.476563-.453125-1.007813-.453125-1.59375 0-.65625.179688-1.265625.546875-1.828125.375-.5625.914063-.988281 1.625-1.28125.707031-.300781 1.5-.453125 2.375-.453125.945313 0 1.785156.15625 2.515625.46875.726563.304687 1.289063.757812 1.6875 1.359375.394531.59375.601563 1.273437.625 2.03125l-1.625.125c-.09375-.820313-.398437-1.441406-.90625-1.859375-.5-.414063-1.246094-.625-2.234375-.625-1.03125 0-1.789062.195312-2.265625.578125-.46875.375-.703125.828125-.703125 1.359375 0 .46875.171875.851562.515625 1.140625.320313.304687 1.175781.609375 2.5625.921875 1.382813.3125 2.335938.589844 2.859375.828125.75.34375 1.300781.78125 1.65625 1.3125.351563.53125.53125 1.140625.53125 1.828125s-.199219 1.335937-.59375 1.9375c-.386719.605469-.949219 1.078125-1.6875 1.421875-.730469.3320313-1.558594.5-2.484375.5-1.167969 0-2.148437-.1679687-2.9375-.5-.78125-.34375-1.398437-.851563-1.84375-1.53125-.449219-.6875-.683594-1.460938-.703125-2.328125zm0 0"/></g><g id="d"><path d="m4.640625-1.421875.234375 1.40625c-.449219.09375-.851562.140625-1.203125.140625-.574219 0-1.023437-.0898437-1.34375-.265625-.3125-.1875-.53125-.425781-.65625-.71875-.125-.300781-.1875-.925781-.1875-1.875v-5.375h-1.171875v-1.21875h1.171875v-2.3125l1.5625-.953125v3.265625h1.59375v1.21875h-1.59375v5.46875c0 .449219.023438.742187.078125.875.0625.125.15625.226562.28125.296875.125.074219.304688.109375.546875.109375.164063 0 .394531-.019531.6875-.0625zm0 0"/></g><g id="e"><path d="m.59375-4.671875c0-1.726563.484375-3.007813 1.453125-3.84375.800781-.6875 1.773438-1.03125 2.921875-1.03125 1.289063 0 2.34375.421875 3.15625 1.265625s1.21875 2.007812 1.21875 3.484375c0 1.199219-.183594 2.140625-.546875 2.828125-.355469.6875-.875 1.226562-1.5625 1.609375-.6875.3828125-1.445312.578125-2.265625.578125-1.304687 0-2.359375-.414063-3.171875-1.25-.804687-.84375-1.203125-2.054688-1.203125-3.640625zm1.625 0c0 1.199219.257813 2.09375.78125 2.6875.519531.59375 1.175781.890625 1.96875.890625.789063 0 1.445313-.296875 1.96875-.890625.519531-.601563.78125-1.515625.78125-2.734375 0-1.15625-.265625-2.03125-.796875-2.625-.523437-.59375-1.171875-.890625-1.953125-.890625-.792969 0-1.449219.296875-1.96875.890625-.523437.59375-.78125 1.484375-.78125 2.671875zm0 0"/></g><g id="f"><path d="m1.171875 0v-9.328125h1.421875v1.40625c.363281-.65625.695313-1.085938 1-1.296875.3125-.21875.648438-.328125 1.015625-.328125.539063 0 1.082031.171875 1.625.515625l-.53125 1.46875c-.398437-.226563-.789062-.34375-1.171875-.34375-.34375 0-.65625.105469-.9375.3125-.273437.210937-.464844.496094-.578125.859375-.179687.5625-.265625 1.179687-.265625 1.84375v4.890625zm0 0"/></g><g id="g"><path d="m7.578125-3 1.640625.203125c-.261719.949219-.742187 1.6875-1.4375 2.21875-.699219.53125-1.589844.796875-2.671875.796875-1.367187 0-2.449219-.421875-3.25-1.265625-.804687-.84375-1.203125-2.023438-1.203125-3.546875 0-1.5625.398438-2.773438 1.203125-3.640625.8125-.875 1.863281-1.3125 3.15625-1.3125 1.25 0 2.269531.429687 3.0625 1.28125.789063.84375 1.1875 2.039062 1.1875 3.578125 0 .09375-.007812.234375-.015625.421875h-6.953125c.050781 1.03125.335938 1.820312.859375 2.359375.53125.542969 1.179688.8125 1.953125.8125.582031 0 1.078125-.148438 1.484375-.453125.414063-.300781.742188-.785156.984375-1.453125zm-5.203125-2.5625h5.21875c-.074219-.78125-.273437-1.367188-.59375-1.765625-.511719-.613281-1.167969-.921875-1.96875-.921875-.71875 0-1.328125.246094-1.828125.734375-.492187.492187-.765625 1.140625-.828125 1.953125zm0 0"/></g><g id="h"><path d="m7.25 0v-1.171875c-.59375.929687-1.46875 1.390625-2.625 1.390625-.742187 0-1.421875-.203125-2.046875-.609375-.625-.414063-1.109375-.988281-1.453125-1.71875-.34375-.738281-.515625-1.585938-.515625-2.546875 0-.9375.15625-1.78125.46875-2.53125.3125-.757813.773438-1.34375 1.390625-1.75.625-.40625 1.320313-.609375 2.09375-.609375.5625 0 1.0625.121094 1.5.359375.4375.242187.796875.546875 1.078125.921875v-4.625h1.5625v12.890625zm-5.015625-4.65625c0 1.199219.25 2.09375.75 2.6875.507813.585937 1.109375.875 1.796875.875s1.269531-.28125 1.75-.84375c.488281-.5625.734375-1.425781.734375-2.59375 0-1.269531-.246094-2.203125-.734375-2.796875-.492187-.601563-1.09375-.90625-1.8125-.90625-.710937 0-1.304687.289062-1.78125.859375-.46875.574219-.703125 1.480469-.703125 2.71875zm0 0"/></g><g id="i"><path d="m7.28125-3.421875 1.546875.203125c-.167969 1.074219-.601562 1.917969-1.296875 2.53125-.699219.6054687-1.558594.90625-2.578125.90625-1.28125 0-2.3125-.414063-3.09375-1.25-.773437-.84375-1.15625-2.039063-1.15625-3.59375 0-1.007813.164063-1.890625.5-2.640625.332031-.757813.835938-1.328125 1.515625-1.703125.6875-.382813 1.429688-.578125 2.234375-.578125 1.019531 0 1.847656.261719 2.484375.78125.644531.511719 1.0625 1.234375 1.25 2.171875l-1.546875.234375c-.148437-.625-.40625-1.09375-.78125-1.40625-.367187-.320313-.8125-.484375-1.34375-.484375-.792969 0-1.4375.289062-1.9375.859375-.5.574219-.75 1.480469-.75 2.71875 0 1.25.238281 2.164062.71875 2.734375.476563.5625 1.109375.84375 1.890625.84375.613281 0 1.128906-.1875 1.546875-.5625.414063-.382813.679688-.972656.796875-1.765625zm0 0"/></g><g id="j"><path d="m1.203125-11.0625v-1.828125h1.578125v1.828125zm0 11.0625v-9.328125h1.578125v9.328125zm0 0"/></g><g id="k"><path d="m1.15625 0v-12.890625h1.578125v12.890625zm0 0"/></g><g id="l"><path d="m2.90625 0-2.859375-9.328125h1.640625l1.484375 5.375.5625 2.015625c.019531-.101563.175781-.75.46875-1.9375l1.5-5.453125h1.625l1.390625 5.40625.46875 1.78125.53125-1.796875 1.609375-5.390625h1.53125l-2.921875 9.328125h-1.640625l-1.484375-5.59375-.359375-1.59375-1.890625 7.1875zm0 0"/></g><g id="m"><path d="m7.28125-1.15625c-.585937.5-1.152344.855469-1.703125 1.0625-.542969.207031-1.121094.3125-1.734375.3125-1.03125 0-1.824219-.25-2.375-.75-.542969-.507813-.8125-1.15625-.8125-1.9375 0-.445313.101563-.859375.3125-1.234375.207031-.382813.476563-.691406.8125-.921875.332031-.226563.710938-.398438 1.140625-.515625.3125-.082031.78125-.160156 1.40625-.234375 1.269531-.15625 2.207031-.335938 2.8125-.546875.007813-.21875.015625-.359375.015625-.421875 0-.632813-.152344-1.085938-.453125-1.359375-.40625-.351563-1.007812-.53125-1.796875-.53125-.75 0-1.304687.132812-1.65625.390625-.355469.261719-.617187.726562-.78125 1.390625l-1.546875-.21875c.144531-.664063.375-1.203125.6875-1.609375.320313-.40625.785156-.71875 1.390625-.9375.613281-.21875 1.328125-.328125 2.140625-.328125.789063 0 1.4375.09375 1.9375.28125s.863281.429687 1.09375.71875c.238281.28125.40625.636719.5 1.0625.050781.273437.078125.761719.078125 1.46875v2.109375c0 1.46875.03125 2.402344.09375 2.796875.070313.386719.207031.757812.40625 1.109375h-1.65625c-.167969-.332031-.273437-.71875-.3125-1.15625zm-.140625-3.53125c-.574219.242187-1.433594.4375-2.578125.59375-.648437.09375-1.105469.203125-1.375.328125-.273437.117187-.480469.289062-.625.515625-.148437.21875-.21875.46875-.21875.75 0 .417969.15625.765625.46875 1.046875.320313.28125.789063.421875 1.40625.421875.613281 0 1.15625-.128906 1.625-.390625.476563-.269531.828125-.632813 1.046875-1.09375.164063-.363281.25-.894531.25-1.59375zm0 0"/></g><g id="n"><path d="m-.03125 0 4.953125-12.890625h1.84375l5.265625 12.890625h-1.9375l-1.5-3.90625h-5.390625l-1.421875 3.90625zm3.71875-5.296875h4.375l-1.34375-3.5625c-.417969-1.082031-.726562-1.972656-.921875-2.671875-.15625.824219-.386719 1.640625-.6875 2.453125zm0 0"/></g><g id="o"><path d="m1.1875 0v-9.328125h1.421875v1.328125c.6875-1.03125 1.675781-1.546875 2.96875-1.546875.5625 0 1.078125.105469 1.546875.3125.476563.199219.832031.464844 1.0625.796875.238281.324219.40625.710937.5 1.15625.050781.292969.078125.808594.078125 1.546875v5.734375h-1.578125v-5.671875c0-.644531-.0625-1.128906-.1875-1.453125-.117187-.320313-.335937-.578125-.65625-.765625-.3125-.1875-.679687-.28125-1.09375-.28125-.679687 0-1.261719.214844-1.75.640625-.492187.429687-.734375 1.242187-.734375 2.4375v5.09375zm0 0"/></g></defs><path d="m1.5 361.5h780v210h-780zm0 0" fill="#f5f5f5"/><g clip-path="url(#a)"><path d="m2 482.00002h1040v280.00001h-1040zm0 0" fill="none" stroke="#666" stroke-width="2" transform="scale(.75)"/></g><g fill="#808080"><use x="19.499998" xlink:href="#c" y="394.49997"/><use x="31.505857" xlink:href="#d" y="394.49997"/><use x="36.506832" xlink:href="#e" y="394.49997"/><use x="46.517574" xlink:href="#f" y="394.49997"/><use x="52.511715" xlink:href="#g" y="394.49997"/></g><path d="m142.000006 552.000023h240.00001v120.000005h-240.00001zm0 0" fill="#f5f5f5" stroke="#666" stroke-width="2" transform="scale(.75)"/><path d="m162.000007 572.000024h240.00001v120.000005h-240.00001zm0 0" fill="#f5f5f5" stroke="#666" stroke-width="2" transform="scale(.75)"/><path d="m182.000008 592.000025h240.00001v120.000005h-240.00001zm0 0" fill="#f5f5f5" stroke="#666" stroke-width="2" transform="scale(.75)"/><g fill="#333"><path d="m1.421875 0v-12.890625h5.703125c1.144531 0 2.015625.121094 2.609375.359375.601563.230469 1.082031.636719 1.4375 1.21875.363281.585937.546875 1.230469.546875 1.9375 0 .917969-.296875 1.6875-.890625 2.3125s-1.507812 1.027344-2.734375 1.203125c.445313.21875.785156.433594 1.015625.640625.5.460937.972656 1.03125 1.421875 1.71875l2.234375 3.5h-2.140625l-1.703125-2.6875c-.5-.769531-.914062-1.359375-1.234375-1.765625-.324219-.414063-.617187-.703125-.875-.859375-.25-.164063-.507812-.28125-.765625-.34375-.199219-.039063-.515625-.0625-.953125-.0625h-1.96875v5.71875zm1.703125-7.203125h3.65625c.78125 0 1.390625-.078125 1.828125-.234375.4375-.164063.769531-.425781 1-.78125.226563-.351563.34375-.738281.34375-1.15625 0-.601563-.226562-1.101563-.671875-1.5-.4375-.394531-1.132812-.59375-2.078125-.59375h-4.078125zm0 0" transform="translate(192.46873 494.99997)"/><use x="205.46776" xlink:href="#g" y="494.99997"/><use x="215.4785" xlink:href="#h" y="494.99997"/><path d="m7.296875 0v-1.375c-.71875 1.0625-1.703125 1.59375-2.953125 1.59375-.554687 0-1.070312-.105469-1.546875-.3125-.480469-.21875-.835937-.484375-1.0625-.796875-.230469-.320313-.390625-.71875-.484375-1.1875-.0625-.3125-.09375-.800781-.09375-1.46875v-5.78125h1.578125v5.171875c0 .824219.03125 1.382812.09375 1.671875.101563.417969.316406.746094.640625.984375.320313.230469.71875.34375 1.1875.34375.476563 0 .925781-.117188 1.34375-.359375.414063-.238281.707031-.566406.875-.984375.175781-.425781.265625-1.035156.265625-1.828125v-5h1.578125v9.328125zm0 0" transform="translate(225.48924 494.99997)"/><use x="235.49998" xlink:href="#i" y="494.99997"/><use x="244.49998" xlink:href="#g" y="494.99997"/><use x="254.51073" xlink:href="#f" y="494.99997"/></g><path d="m662.000028 652.000027h-235.53126" fill="none" stroke="#000" stroke-miterlimit="10" stroke-width="2" transform="scale(.75)"/><path d="m438.239602 645.000027-14.000001 7 14.000001 7" fill="none" stroke="#000" stroke-miterlimit="10" stroke-width="2" transform="scale(.75)"/><path d="m466.5 414h180v90h-180zm0 0" fill="#fff"/><path d="m475.5 413.25h4.5v1.5h-4.5zm9 0h4.5v1.5h-4.5zm9 0h4.5v1.5h-4.5zm9 0h4.5v1.5h-4.5zm9 0h4.5v1.5h-4.5zm9 0h4.5v1.5h-4.5zm9 0h4.5v1.5h-4.5zm9 0h4.5v1.5h-4.5zm9 0h4.5v1.5h-4.5zm9 0h4.5v1.5h-4.5zm9 0h4.5v1.5h-4.5zm9 0h4.5v1.5h-4.5zm9 0h4.5v1.5h-4.5zm9 0h4.5v1.5h-4.5zm9 0h4.5v1.5h-4.5zm9 0h4.5v1.5h-4.5zm9 0h4.5v1.5h-4.5zm9 0h4.5v1.5h-4.5zm9 0h4.5v1.5h-4.5zm9.75.75v4.5h-1.5v-4.5zm0 9v4.5h-1.5v-4.5zm0 9v4.5h-1.5v-4.5zm0 9v4.5h-1.5v-4.5zm0 9v4.5h-1.5v-4.5zm0 9v4.5h-1.5v-4.5zm0 9v4.5h-1.5v-4.5zm0 9v4.5h-1.5v-4.5zm0 9v4.5h-1.5v-4.5zm0 9v4.5h-1.5v-4.5zm-.75 9.75h-4.5v-1.5h4.5zm-9 0h-4.5v-1.5h4.5zm-9 0h-4.5v-1.5h4.5zm-9 0h-4.5v-1.5h4.5zm-9 0h-4.5v-1.5h4.5zm-9 0h-4.5v-1.5h4.5zm-9 0h-4.5v-1.5h4.5zm-9 0h-4.5v-1.5h4.5zm-9 0h-4.5v-1.5h4.5zm-9 0h-4.5v-1.5h4.5zm-9 0h-4.5v-1.5h4.5zm-9 0h-4.5v-1.5h4.5zm-9 0h-4.5v-1.5h4.5zm-9 0h-4.5v-1.5h4.5zm-9 0h-4.5v-1.5h4.5zm-9 0h-4.5v-1.5h4.5zm-9 0h-4.5v-1.5h4.5zm-9 0h-4.5v-1.5h4.5zm-9 0h-4.5v-1.5h4.5zm-9 0h-4.5v-1.5h4.5zm-9.75-.75v-4.5h1.5v4.5zm0-9v-4.5h1.5v4.5zm0-9v-4.5h1.5v4.5zm0-9v-4.5h1.5v4.5zm0-9v-4.5h1.5v4.5zm0-9v-4.5h1.5v4.5zm0-9v-4.5h1.5v4.5zm0-9v-4.5h1.5v4.5zm0-9v-4.5h1.5v4.5zm0-9v-4.5h1.5v4.5zm.75-9.75h4.5v1.5h-4.5zm0 0"/><path d="m481.5 429h180v90h-180zm0 0" fill="#fff"/><path d="m490.5 428.25h4.5v1.5h-4.5zm9 0h4.5v1.5h-4.5zm9 0h4.5v1.5h-4.5zm9 0h4.5v1.5h-4.5zm9 0h4.5v1.5h-4.5zm9 0h4.5v1.5h-4.5zm9 0h4.5v1.5h-4.5zm9 0h4.5v1.5h-4.5zm9 0h4.5v1.5h-4.5zm9 0h4.5v1.5h-4.5zm9 0h4.5v1.5h-4.5zm9 0h4.5v1.5h-4.5zm9 0h4.5v1.5h-4.5zm9 0h4.5v1.5h-4.5zm9 0h4.5v1.5h-4.5zm9 0h4.5v1.5h-4.5zm9 0h4.5v1.5h-4.5zm9 0h4.5v1.5h-4.5zm9 0h4.5v1.5h-4.5zm9.75.75v4.5h-1.5v-4.5zm0 9v4.5h-1.5v-4.5zm0 9v4.5h-1.5v-4.5zm0 9v4.5h-1.5v-4.5zm0 9v4.5h-1.5v-4.5zm0 9v4.5h-1.5v-4.5zm0 9v4.5h-1.5v-4.5zm0 9v4.5h-1.5v-4.5zm0 9v4.5h-1.5v-4.5zm0 9v4.5h-1.5v-4.5zm-.75 9.75h-4.5v-1.5h4.5zm-9 0h-4.5v-1.5h4.5zm-9 0h-4.5v-1.5h4.5zm-9 0h-4.5v-1.5h4.5zm-9 0h-4.5v-1.5h4.5zm-9 0h-4.5v-1.5h4.5zm-9 0h-4.5v-1.5h4.5zm-9 0h-4.5v-1.5h4.5zm-9 0h-4.5v-1.5h4.5zm-9 0h-4.5v-1.5h4.5zm-9 0h-4.5v-1.5h4.5zm-9 0h-4.5v-1.5h4.5zm-9 0h-4.5v-1.5h4.5zm-9 0h-4.5v-1.5h4.5zm-9 0h-4.5v-1.5h4.5zm-9 0h-4.5v-1.5h4.5zm-9 0h-4.5v-1.5h4.5zm-9 0h-4.5v-1.5h4.5zm-9 0h-4.5v-1.5h4.5zm-9 0h-4.5v-1.5h4.5zm-9.75-.75v-4.5h1.5v4.5zm0-9v-4.5h1.5v4.5zm0-9v-4.5h1.5v4.5zm0-9v-4.5h1.5v4.5zm0-9v-4.5h1.5v4.5zm0-9v-4.5h1.5v4.5zm0-9v-4.5h1.5v4.5zm0-9v-4.5h1.5v4.5zm0-9v-4.5h1.5v4.5zm0-9v-4.5h1.5v4.5zm.75-9.75h4.5v1.5h-4.5zm0 0"/><path d="m496.5 444h180v90h-180zm0 0" fill="#fff"/><path d="m505.5 443.25h4.5v1.5h-4.5zm9 0h4.5v1.5h-4.5zm9 0h4.5v1.5h-4.5zm9 0h4.5v1.5h-4.5zm9 0h4.5v1.5h-4.5zm9 0h4.5v1.5h-4.5zm9 0h4.5v1.5h-4.5zm9 0h4.5v1.5h-4.5zm9 0h4.5v1.5h-4.5zm9 0h4.5v1.5h-4.5zm9 0h4.5v1.5h-4.5zm9 0h4.5v1.5h-4.5zm9 0h4.5v1.5h-4.5zm9 0h4.5v1.5h-4.5zm9 0h4.5v1.5h-4.5zm9 0h4.5v1.5h-4.5zm9 0h4.5v1.5h-4.5zm9 0h4.5v1.5h-4.5zm9 0h4.5v1.5h-4.5zm9.75.75v4.5h-1.5v-4.5zm0 9v4.5h-1.5v-4.5zm0 9v4.5h-1.5v-4.5zm0 9v4.5h-1.5v-4.5zm0 9v4.5h-1.5v-4.5zm0 9v4.5h-1.5v-4.5zm0 9v4.5h-1.5v-4.5zm0 9v4.5h-1.5v-4.5zm0 9v4.5h-1.5v-4.5zm0 9v4.5h-1.5v-4.5zm-.75 9.75h-4.5v-1.5h4.5zm-9 0h-4.5v-1.5h4.5zm-9 0h-4.5v-1.5h4.5zm-9 0h-4.5v-1.5h4.5zm-9 0h-4.5v-1.5h4.5zm-9 0h-4.5v-1.5h4.5zm-9 0h-4.5v-1.5h4.5zm-9 0h-4.5v-1.5h4.5zm-9 0h-4.5v-1.5h4.5zm-9 0h-4.5v-1.5h4.5zm-9 0h-4.5v-1.5h4.5zm-9 0h-4.5v-1.5h4.5zm-9 0h-4.5v-1.5h4.5zm-9 0h-4.5v-1.5h4.5zm-9 0h-4.5v-1.5h4.5zm-9 0h-4.5v-1.5h4.5zm-9 0h-4.5v-1.5h4.5zm-9 0h-4.5v-1.5h4.5zm-9 0h-4.5v-1.5h4.5zm-9 0h-4.5v-1.5h4.5zm-9.75-.75v-4.5h1.5v4.5zm0-9v-4.5h1.5v4.5zm0-9v-4.5h1.5v4.5zm0-9v-4.5h1.5v4.5zm0-9v-4.5h1.5v4.5zm0-9v-4.5h1.5v4.5zm0-9v-4.5h1.5v4.5zm0-9v-4.5h1.5v4.5zm0-9v-4.5h1.5v4.5zm0-9v-4.5h1.5v4.5zm.75-9.75h4.5v1.5h-4.5zm0 0"/><g><path d="m1.34375 0v-12.890625h2.5625l3.046875 9.125c.28125.855469.484375 1.492187.609375 1.90625.144531-.46875.375-1.15625.6875-2.0625l3.09375-8.96875h2.28125v12.890625h-1.640625v-10.78125l-3.734375 10.78125h-1.546875l-3.71875-10.96875v10.96875zm0 0" transform="translate(540.46875 494.99997)"/><use x="555.46289" xlink:href="#j" y="494.99997"/><use x="559.46191" xlink:href="#h" y="494.99997"/><use x="569.47266" xlink:href="#h" y="494.99997"/><use x="579.4834" xlink:href="#k" y="494.99997"/><use x="583.48242" xlink:href="#g" y="494.99997"/><use x="593.49316" xlink:href="#l" y="494.99997"/><use x="606.49219" xlink:href="#m" y="494.99997"/><use x="616.50293" xlink:href="#f" y="494.99997"/><use x="622.49707" xlink:href="#g" y="494.99997"/></g><path d="m242.00001 62.000003h155.531257" fill="none" stroke="#000" stroke-miterlimit="10" stroke-width="2" transform="scale(.75)"/><path d="m385.760433 69.000003 14-7-14-7.000001" fill="none" stroke="#000" stroke-miterlimit="10" stroke-width="2" transform="scale(.75)"/><path d="m2 2h240.00001v120.000005h-240.00001zm0 0" fill="#f5f5f5" stroke="#666" stroke-width="2" transform="scale(.75)"/><path d="m5.078125 0-5-12.890625h1.84375l3.359375 9.359375c.257813.75.484375 1.453125.671875 2.109375.195313-.695313.425781-1.398438.6875-2.109375l3.484375-9.359375h1.734375l-5.03125 12.890625zm0 0" fill="#333" transform="translate(72.140625 52.499996)"/><g fill="#333"><use x="83.821289" xlink:href="#j" y="52.499996"/><use x="87.820312" xlink:href="#g" y="52.499996"/><use x="97.831055" xlink:href="#l" y="52.499996"/></g><path d="m642.000027 62.000003h155.531256" fill="none" stroke="#000" stroke-miterlimit="10" stroke-width="2" transform="scale(.75)"/><path d="m785.760449 69.000003 14.000001-7-14.000001-7.000001" fill="none" stroke="#000" stroke-miterlimit="10" stroke-width="2" transform="scale(.75)"/><path d="m301.5 1.5h180v90h-180zm0 0" fill="#fff"/><path d="m310.5.75h4.5v1.5h-4.5zm9 0h4.5v1.5h-4.5zm9 0h4.5v1.5h-4.5zm9 0h4.5v1.5h-4.5zm9 0h4.5v1.5h-4.5zm9 0h4.5v1.5h-4.5zm9 0h4.5v1.5h-4.5zm9 0h4.5v1.5h-4.5zm9 0h4.5v1.5h-4.5zm9 0h4.5v1.5h-4.5zm9 0h4.5v1.5h-4.5zm9 0h4.5v1.5h-4.5zm9 0h4.5v1.5h-4.5zm9 0h4.5v1.5h-4.5zm9 0h4.5v1.5h-4.5zm9 0h4.5v1.5h-4.5zm9 0h4.5v1.5h-4.5zm9 0h4.5v1.5h-4.5zm9 0h4.5v1.5h-4.5zm9.75.75v4.5h-1.5v-4.5zm0 9v4.5h-1.5v-4.5zm0 9v4.5h-1.5v-4.5zm0 9v4.5h-1.5v-4.5zm0 9v4.5h-1.5v-4.5zm0 9v4.5h-1.5v-4.5zm0 9v4.5h-1.5v-4.5zm0 9v4.5h-1.5v-4.5zm0 9v4.5h-1.5v-4.5zm0 9v4.5h-1.5v-4.5zm-.75 9.75h-4.5v-1.5h4.5zm-9 0h-4.5v-1.5h4.5zm-9 0h-4.5v-1.5h4.5zm-9 0h-4.5v-1.5h4.5zm-9 0h-4.5v-1.5h4.5zm-9 0h-4.5v-1.5h4.5zm-9 0h-4.5v-1.5h4.5zm-9 0h-4.5v-1.5h4.5zm-9 0h-4.5v-1.5h4.5zm-9 0h-4.5v-1.5h4.5zm-9 0h-4.5v-1.5h4.5zm-9 0h-4.5v-1.5h4.5zm-9 0h-4.5v-1.5h4.5zm-9 0h-4.5v-1.5h4.5zm-9 0h-4.5v-1.5h4.5zm-9 0h-4.5v-1.5h4.5zm-9 0h-4.5v-1.5h4.5zm-9 0h-4.5v-1.5h4.5zm-9 0h-4.5v-1.5h4.5zm-9 0h-4.5v-1.5h4.5zm-9.75-.75v-4.5h1.5v4.5zm0-9v-4.5h1.5v4.5zm0-9v-4.5h1.5v4.5zm0-9v-4.5h1.5v4.5zm0-9v-4.5h1.5v4.5zm0-9v-4.5h1.5v4.5zm0-9v-4.5h1.5v4.5zm0-9v-4.5h1.5v4.5zm0-9v-4.5h1.5v4.5zm0-9v-4.5h1.5v4.5zm.75-9.75h4.5v1.5h-4.5zm0 0"/><g><use x="366.46875" xlink:href="#n" y="41.999996"/><use x="378.47458" xlink:href="#i" y="41.999996"/><use x="387.47458" xlink:href="#d" y="41.999996"/><use x="392.47556" xlink:href="#j" y="41.999996"/><use x="396.47458" xlink:href="#e" y="41.999996"/><use x="406.48532" xlink:href="#o" y="41.999996"/></g><g><path d="m10.578125-4.515625 1.703125.421875c-.355469 1.40625-.996094 2.480469-1.921875 3.21875-.929687.730469-2.0625 1.09375-3.40625 1.09375-1.386719 0-2.515625-.28125-3.390625-.84375-.867187-.570313-1.527344-1.390625-1.984375-2.453125-.460937-1.070313-.6875-2.226563-.6875-3.46875 0-1.332031.253906-2.5.765625-3.5.519531-1 1.253906-1.757813 2.203125-2.28125.945313-.519531 1.988281-.78125 3.125-.78125 1.28125 0 2.359375.328125 3.234375.984375.882813.65625 1.5 1.578125 1.84375 2.765625l-1.671875.40625c-.304687-.9375-.742187-1.617188-1.3125-2.046875-.5625-.425781-1.277344-.640625-2.140625-.640625-.992187 0-1.820312.242187-2.484375.71875-.65625.46875-1.121094 1.105469-1.390625 1.90625-.273437.792969-.40625 1.617187-.40625 2.46875 0 1.09375.15625 2.054687.46875 2.875.320313.8125.820313 1.421875 1.5 1.828125.675781.40625 1.40625.609375 2.1875.609375.957031 0 1.765625-.273438 2.421875-.828125.664063-.550781 1.113281-1.367188 1.34375-2.453125zm0 0" transform="translate(361.47656 64.5)"/><use x="374.47559" xlink:href="#f" y="64.5"/><use x="380.46973" xlink:href="#g" y="64.5"/><use x="390.48047" xlink:href="#m" y="64.5"/><use x="400.49121" xlink:href="#d" y="64.5"/><use x="405.49219" xlink:href="#e" y="64.5"/><use x="415.50293" xlink:href="#f" y="64.5"/></g><path d="m922.000038 122.000005v355.531265" fill="none" stroke="#000" stroke-miterlimit="10" stroke-width="2" transform="scale(.75)"/><path d="m915.000038 465.760436 7 14.000001 7.000001-14.000001" fill="none" stroke="#000" stroke-miterlimit="10" stroke-width="2" transform="scale(.75)"/><path d="m601.5 1.5h180v90h-180zm0 0" fill="#f5f5f5"/><g clip-path="url(#b)"><path d="m802.00003 2h239.99997v120.00001h-239.99997zm0 0" fill="none" stroke="#666" stroke-width="2" transform="scale(.75)"/></g><g fill="#333"><use x="666.46875" xlink:href="#n" y="52.499996"/><use x="678.47461" xlink:href="#i" y="52.499996"/><use x="687.47461" xlink:href="#d" y="52.499996"/><use x="692.47559" xlink:href="#j" y="52.499996"/><use x="696.47461" xlink:href="#e" y="52.499996"/><use x="706.48535" xlink:href="#o" y="52.499996"/></g><g stroke-width="2" transform="scale(.75)"><path d="m122.000005 366.468765v55.531253l.802083 62.031252" fill="none" stroke="#000" stroke-miterlimit="10"/><path d="m129.000005 378.239599-7-14-7 14" fill="none" stroke="#000" stroke-miterlimit="10"/><path d="m122.000005 242.00001v-115.531255" fill="none" stroke="#000" stroke-miterlimit="10"/><path d="m129.000005 138.239589-7-14-7 14" fill="none" stroke="#000" stroke-miterlimit="10"/></g><path d="m1.5 181.5h180v90h-180zm0 0" fill="#fff"/><path d="m10.5 180.75h4.5v1.5h-4.5zm9 0h4.5v1.5h-4.5zm9 0h4.5v1.5h-4.5zm9 0h4.5v1.5h-4.5zm9 0h4.5v1.5h-4.5zm9 0h4.5v1.5h-4.5zm9 0h4.5v1.5h-4.5zm9 0h4.5v1.5h-4.5zm9 0h4.5v1.5h-4.5zm9 0h4.5v1.5h-4.5zm9 0h4.5v1.5h-4.5zm9 0h4.5v1.5h-4.5zm9 0h4.5v1.5h-4.5zm9 0h4.5v1.5h-4.5zm9 0h4.5v1.5h-4.5zm9 0h4.5v1.5h-4.5zm9 0h4.5v1.5h-4.5zm9 0h4.5v1.5h-4.5zm9 0h4.5v1.5h-4.5zm9.75.75v4.5h-1.5v-4.5zm0 9v4.5h-1.5v-4.5zm0 9v4.5h-1.5v-4.5zm0 9v4.5h-1.5v-4.5zm0 9v4.5h-1.5v-4.5zm0 9v4.5h-1.5v-4.5zm0 9v4.5h-1.5v-4.5zm0 9v4.5h-1.5v-4.5zm0 9v4.5h-1.5v-4.5zm0 9v4.5h-1.5v-4.5zm-.75 9.75h-4.5v-1.5h4.5zm-9 0h-4.5v-1.5h4.5zm-9 0h-4.5v-1.5h4.5zm-9 0h-4.5v-1.5h4.5zm-9 0h-4.5v-1.5h4.5zm-9 0h-4.5v-1.5h4.5zm-9 0h-4.5v-1.5h4.5zm-9 0h-4.5v-1.5h4.5zm-9 0h-4.5v-1.5h4.5zm-9 0h-4.5v-1.5h4.5zm-9 0h-4.5v-1.5h4.5zm-9 0h-4.5v-1.5h4.5zm-9 0h-4.5v-1.5h4.5zm-9 0h-4.5v-1.5h4.5zm-9 0h-4.5v-1.5h4.5zm-9 0h-4.5v-1.5h4.5zm-9 0h-4.5v-1.5h4.5zm-9 0h-4.5v-1.5h4.5zm-9 0h-4.5v-1.5h4.5zm-9 0h-4.5v-1.5h4.5zm-9.75-.75v-4.5h1.5v4.5zm0-9v-4.5h1.5v4.5zm0-9v-4.5h1.5v4.5zm0-9v-4.5h1.5v4.5zm0-9v-4.5h1.5v4.5zm0-9v-4.5h1.5v4.5zm0-9v-4.5h1.5v4.5zm0-9v-4.5h1.5v4.5zm0-9v-4.5h1.5v4.5zm0-9v-4.5h1.5v4.5zm.75-9.75h4.5v1.5h-4.5zm0 0"/><g><use x="58.476559" xlink:href="#c" y="232.49998"/><use x="70.482422" xlink:href="#g" y="232.49998"/><use x="80.493164" xlink:href="#k" y="232.49998"/><use x="84.492188" xlink:href="#g" y="232.49998"/><use x="94.50293" xlink:href="#i" y="232.49998"/><use x="103.50292" xlink:href="#d" y="232.49998"/><use x="108.5039" xlink:href="#e" y="232.49998"/><use x="118.51464" xlink:href="#f" y="232.49998"/></g></svg>